<svg id="Layer_1" data-name="Layer 1" xmlns="http://www.w3.org/2000/svg" viewBox="0 0 24 24"><defs><style>.cls-1{fill:#777;}</style></defs><title>additional-mattress-single</title><path class="cls-1" d="M23.74,9.86l0-.05a.49.49,0,0,0-.19-.16h0L17,6.87h0l-.12,0h-.15L.57,10.74l-.08,0h0l0,0A.5.5,0,0,0,.26,11v0a.49.49,0,0,0-.06.21s0,0,0,0v2.59a.5.5,0,0,0,.21.41l5.19,3.59a.5.5,0,0,0,.52,0s.05-.05.08-.08h.1L23.21,13l.24-.07a.5.5,0,0,0,.36-.48V10.11A.49.49,0,0,0,23.74,9.86ZM5.37,16.46l-4.19-2.9V12.13l4.19,2.62ZM2,11.44,16.75,7.85,22,10.08,6.24,14.16a.48.48,0,0,0-.1-.1Zm4.42,5.27V15.16L22.81,10.9v1.2Z"/></svg>