<svg id="Layer_1" data-name="Layer 1" xmlns="http://www.w3.org/2000/svg" viewBox="0 0 24 24"><defs><style>.cls-1{fill:#777;}</style></defs><title>amplifier</title><path class="cls-1" d="M24,5.48V4.39a2.86,2.86,0,0,0-2.86-2.86H20.05a.88.88,0,0,0-.73.38H15.74V1.35A1.35,1.35,0,0,0,14.39,0H9.61A1.35,1.35,0,0,0,8.26,1.35v.56H4.68a.88.88,0,0,0-.73-.38H2.86A2.86,2.86,0,0,0,0,4.39V5.48a.88.88,0,0,0,.38.73V19.32a.89.89,0,0,0-.29.35.49.49,0,0,0-.09.27s0,0,0,0S0,20,0,20v1.09A2.86,2.86,0,0,0,2.86,24h1.2a.49.49,0,0,0,.27-.09.89.89,0,0,0,.35-.29H19.32a.89.89,0,0,0,.34.29.49.49,0,0,0,.27.09h1.2A2.86,2.86,0,0,0,24,21.14V20s0,0,0-.07,0,0,0,0a.49.49,0,0,0-.09-.27.89.89,0,0,0-.29-.35V6.21A.88.88,0,0,0,24,5.48ZM9.26,1.35A.35.35,0,0,1,9.61,1h4.78a.35.35,0,0,1,.35.35v.56H9.26ZM4.56,2.92H19.44v.57H4.56Zm-.5,3.35a.49.49,0,0,0,.38-.18h.45l.53,0,0-1L4.56,5V4.48H19.44V5l-.82,0,0,1h.5l.4,0a.49.49,0,0,0,.39.2h2.68v.16l-.58,0,0,1h.54V9.12H1.38V7.44h.09l.53,0,0-1-.59,0V6.26ZM1,4.39A1.86,1.86,0,0,1,2.86,2.53h.7V5.26H1ZM3.56,23h-.7A1.86,1.86,0,0,1,1,21.14v-.7H3.56Zm16.38-3.56a.5.5,0,0,0-.5.5v2.68H4.56V19.94a.5.5,0,0,0-.5-.5H1.38V10.12H22.62v9.32ZM23,21.14A1.86,1.86,0,0,1,21.14,23h-.7V20.44H23ZM23,5.27H20.44V2.53h.7A1.86,1.86,0,0,1,23,4.39Zm-7.69,14.4H8.66a.5.5,0,0,0-.5.5v1.55a.5.5,0,0,0,.5.5h6.65a.5.5,0,0,0,.5-.5V20.17A.5.5,0,0,0,15.31,19.67Zm-.5,1.55H9.16v-.55h5.65ZM6.08,13.6A1.41,1.41,0,1,0,7.49,15,1.41,1.41,0,0,0,6.08,13.6Zm0,1.82A.41.41,0,1,1,6.49,15,.41.41,0,0,1,6.08,15.42ZM10.15,15a4.08,4.08,0,1,0-4.08,4.08A4.08,4.08,0,0,0,10.15,15ZM6.08,18.09A3.08,3.08,0,1,1,9.15,15,3.08,3.08,0,0,1,6.08,18.09Zm0-5.86A2.78,2.78,0,1,0,8.86,15,2.78,2.78,0,0,0,6.08,12.23Zm0,4.56A1.78,1.78,0,1,1,7.86,15,1.78,1.78,0,0,1,6.08,16.79ZM17.87,13.6A1.41,1.41,0,1,0,19.28,15,1.41,1.41,0,0,0,17.87,13.6Zm0,1.82a.41.41,0,1,1,.41-.41A.41.41,0,0,1,17.87,15.42Zm0-3.19A2.78,2.78,0,1,0,20.65,15,2.78,2.78,0,0,0,17.87,12.23Zm0,4.56A1.78,1.78,0,1,1,19.65,15,1.78,1.78,0,0,1,17.87,16.79Zm0-5.86A4.08,4.08,0,1,0,21.95,15,4.08,4.08,0,0,0,17.87,10.93Zm0,7.16A3.08,3.08,0,1,1,20.95,15,3.08,3.08,0,0,1,17.87,18.09ZM7.26,6.08l.53,0,0-1-1,0,0,1Zm9.51,0,.53,0,0-1-1,0,0,1Zm-2.38,0,.53,0,0-1-1,0,0,1ZM12,6.12l.53,0,0-1-1,0,0,1Zm-2.38,0,.53,0,0-1-1,0,0,1Zm7.69,1.28h.5l.53,0,0-1-1,0Zm-13.65,0,.53,0,0-1-1,0,0,1ZM6,7.46l.53,0,0-1-1,0,0,1Zm8.91,0h.5l.53,0,0-1-1,0Zm-1.85,0,.53,0,0-1-1,0,0,1Zm-2.35,0,.53,0,0-1-1,0,0,1Zm-2.35,0,.53,0,0-1-1,0,0,1ZM2,8.83h.5L3,8.8l0-1-1,0Zm2.85,0,.53,0,0-1-1,0,0,1Zm9.42-.08.53,0,0-1-1,0,0,1Zm-2.35,0,.53,0,0-1-1,0,0,1Zm-2.35,0,.53,0,0-1-1,0,0,1Zm9.44,0,.53,0,0-1-1,0,0,1Zm-2.35,0,.53,0,0-1-1,0,0,1Zm4.71,0,.53,0,0-1-1,0,0,1ZM20.18,7.43l.53,0,0-1-1,0,0,1Zm-13,1.4.53,0,0-1-1,0,0,1Z"/></svg>