<svg id="Layer_1" data-name="Layer 1" xmlns="http://www.w3.org/2000/svg" viewBox="0 0 24 24"><defs><style>.cls-1{fill:#777;}</style></defs><title>armchair</title><path class="cls-1" d="M12,15a.5.5,0,0,1-.5-.5V5.31A6.83,6.83,0,0,0,6.39,4.4,5.59,5.59,0,0,0,3.25,6.77a.5.5,0,0,1-.87-.49A6.57,6.57,0,0,1,6.13,3.44a7.94,7.94,0,0,1,6.12,1.15A.5.5,0,0,1,12.5,5v9.44A.5.5,0,0,1,12,15Z"/><path class="cls-1" d="M20.3,18.3H3.7a.5.5,0,0,1-.48-.65s1.29-4.07.2-6a1.7,1.7,0,0,0-1.12-.85A2.41,2.41,0,0,1,2.37,6,4.18,4.18,0,0,1,5.52,7.42C6.73,8.8,7.09,11,6.61,14H17.39c-.48-3-.12-5.16,1.09-6.53A4.21,4.21,0,0,1,21.65,6a2.41,2.41,0,0,1,0,4.82,1.7,1.7,0,0,0-1.12.85c-1.09,1.9.19,5.93.2,6a.5.5,0,0,1-.48.65Zm-15.93-1H19.64c-.34-1.33-1-4.34.07-6.12a2.69,2.69,0,0,1,1.82-1.34h.11a1.41,1.41,0,0,0,0-2.82h0a3.19,3.19,0,0,0-2.39,1.08c-1,1.21-1.3,3.37-.74,6.26A.5.5,0,0,1,18,15H6a.5.5,0,0,1-.49-.59c.56-2.89.3-5.06-.74-6.26A3.17,3.17,0,0,0,2.39,7a1.41,1.41,0,0,0,0,2.82h.11a2.69,2.69,0,0,1,1.82,1.34C5.32,13,4.71,16,4.36,17.3Z"/><path class="cls-1" d="M12,15a.5.5,0,0,1-.5-.5V5a.5.5,0,0,1,.25-.43,7.94,7.94,0,0,1,6.12-1.15,6.57,6.57,0,0,1,3.75,2.85.5.5,0,0,1-.87.49A5.65,5.65,0,0,0,17.59,4.4a6.84,6.84,0,0,0-5.09.91v9.14A.5.5,0,0,1,12,15Z"/><path class="cls-1" d="M18.58,20.78H16.91a.5.5,0,0,1-.5-.5v-.83a.5.5,0,0,1,1,0v.33h.68v-.33a.5.5,0,0,1,1,0v.83A.5.5,0,0,1,18.58,20.78Z"/><path class="cls-1" d="M7,20.78H5.34a.5.5,0,0,1-.5-.5v-.83a.5.5,0,0,1,1,0v.33h.68v-.33a.5.5,0,0,1,1,0v.83A.5.5,0,0,1,7,20.78Z"/></svg>