<svg id="Layer_1" data-name="Layer 1" xmlns="http://www.w3.org/2000/svg" viewBox="0 0 24 24"><defs><style>.cls-1{fill:#777;}</style></defs><title>baby-crib-cot</title><path class="cls-1" d="M24,2a.5.5,0,0,0-1,0V5.42H1V2A.5.5,0,0,0,0,2V17.46s0,.06,0,.1a.47.47,0,0,0,0,.09V22a.5.5,0,0,0,1,0V20.87H23V22a.5.5,0,1,0,1,0V17.65a.47.47,0,0,0,0-.09s0-.06,0-.1Zm-1.1,13a4,4,0,0,0-2.92-.91h-.63V6.42h3.54Zm-4.54-.91H14.77V6.42h3.54Zm-4.54,0H10.23V6.42h3.54Zm-4.54,0H5.69V6.42H9.23Zm-4.54,0H3.92a4.16,4.16,0,0,0-2.78.8V6.42H4.69ZM1.15,17.65v-.73c.26-1.29,1.07-1.79,2.78-1.79h.77v2.52a.48.48,0,0,0,0,.12H1.33a.27.27,0,0,1-.19-.08S1.15,17.66,1.15,17.65Zm4.54,0V15.13H9.23v2.52a.48.48,0,0,0,0,.12H5.66A.48.48,0,0,0,5.69,17.65Zm4.54,0V15.13h3.54v2.52a.48.48,0,0,0,0,.12H10.21A.48.48,0,0,0,10.23,17.65Zm4.54,0V15.13h3.54v2.52a.48.48,0,0,0,0,.12H14.75A.48.48,0,0,0,14.77,17.65Zm4.54,0V15.13h.63c2,0,2.79.69,2.86,2.58a.26.26,0,0,1-.13.06H19.29A.48.48,0,0,0,19.31,17.65ZM1,19.87V18.71a1.21,1.21,0,0,0,.29.06H22.67a1.21,1.21,0,0,0,.29-.06v1.16Z"/></svg>