<svg id="Layer_1" data-name="Layer 1" xmlns="http://www.w3.org/2000/svg" viewBox="0 0 24 24"><defs><style>.cls-1{fill:#777;}</style></defs><title>baby-chair</title><path class="cls-1" d="M9.71,5.58a1,1,0,1,1,1-1A1,1,0,0,1,9.71,5.58Zm0-1.24a.25.25,0,0,0-.25.24c0,.27.5.27.5,0A.25.25,0,0,0,9.71,4.34Z"/><path class="cls-1" d="M11.94,3.73a1,1,0,1,1,1-1A1,1,0,0,1,11.94,3.73Zm0-1.24a.25.25,0,0,0-.25.24c0,.27.5.27.5,0A.25.25,0,0,0,11.94,2.5Z"/><path class="cls-1" d="M14.25,5.58a1,1,0,1,1,1-1A1,1,0,0,1,14.25,5.58Zm0-1.24a.25.25,0,0,0-.25.24c0,.27.5.27.5,0A.25.25,0,0,0,14.25,4.34Z"/><path class="cls-1" d="M14.25,8.1a1,1,0,1,1,1-1A1,1,0,0,1,14.25,8.1Zm0-1.24a.25.25,0,0,0-.25.24c0,.27.5.27.5,0A.25.25,0,0,0,14.25,6.87Z"/><path class="cls-1" d="M9.71,8.1a1,1,0,1,1,1-1A1,1,0,0,1,9.71,8.1Zm0-1.24a.25.25,0,0,0-.25.24c0,.27.5.27.5,0A.25.25,0,0,0,9.71,6.87Z"/><path class="cls-1" d="M7,9.26a.5.5,0,0,1-.4-.81,2.17,2.17,0,0,0,.34-.58V4.1A4,4,0,0,1,10.85,0h2.27a4,4,0,0,1,3.94,4.1V7.89a2.54,2.54,0,0,0,.36.55.5.5,0,0,1-.77.64,2.25,2.25,0,0,1-.6-1.19V4.1A3,3,0,0,0,13.12,1H10.85A3,3,0,0,0,7.9,4.1V7.89a2.38,2.38,0,0,1-.55,1.18A.5.5,0,0,1,7,9.26Z"/><path class="cls-1" d="M14.25,18.68H9.48a.5.5,0,0,1,0-1h4.78a.5.5,0,0,1,0,1Z"/><path class="cls-1" d="M19.33,14H4.67a1.65,1.65,0,1,1,0-3.3H6.92v1H4.67a.65.65,0,1,0,0,1.3H19.33a.65.65,0,0,0,0-1.3H17v-1h2.34a1.65,1.65,0,0,1,0,3.3Z"/><path class="cls-1" d="M17,14a.5.5,0,0,1-.5-.5V10.77H7.46v2.76a.5.5,0,0,1-1,0V10.27a.5.5,0,0,1,.5-.5H17a.5.5,0,0,1,.5.5v3.26A.5.5,0,0,1,17,14Z"/><path class="cls-1" d="M8.22,24a1.76,1.76,0,0,1-1.76-1.76V13.54h1v8.71a.76.76,0,1,0,1.51,0V13.54h1v8.71A1.76,1.76,0,0,1,8.22,24Z"/><path class="cls-1" d="M15.87,24a1.76,1.76,0,0,1-1.76-1.76V13.54h1v8.71a.76.76,0,1,0,1.51,0V13.54h1v8.71A1.76,1.76,0,0,1,15.87,24Z"/></svg>