<svg id="Layer_1" data-name="Layer 1" xmlns="http://www.w3.org/2000/svg" viewBox="0 0 24 24"><defs><style>.cls-1{fill:#777;}</style></defs><title>baby-changing-table</title><path class="cls-1" d="M13.86,10.71h.05l3.16-.33a.5.5,0,0,0,.45-.5.48.48,0,0,0,0-.05A.5.5,0,0,0,17,9.38l-3.16.33a.5.5,0,0,0-.45.5.48.48,0,0,0,0,.05A.5.5,0,0,0,13.86,10.71Zm9.62-9.43L15.73.13h-.12L1.38,1.27l-.06,0-.05,0-.13.07,0,0,0,0L1,1.51l0,.08a.49.49,0,0,0,0,.09.49.49,0,0,0,0,.09v1.4L.68,3.12a.49.49,0,0,0-.42.1.5.5,0,0,0-.19.39V21.47a.5.5,0,0,0,.34.48L7,24.1l.16,0a.5.5,0,0,0,.5-.5V19L15.16,18v1.75a.5.5,0,0,0,.39.49L23.31,22h.11a.5.5,0,0,0,.5-.5V1.78A.5.5,0,0,0,23.49,1.28Zm-7.84,1.5L22.34,4,8.29,5.28A.49.49,0,0,0,8.39,5V3.43Zm-9,20.15L1.08,21.1V4.23L6.64,5.42Zm.6-18.4L1.85,3.37a.49.49,0,0,0,.06-.22V2.39L7.36,3.5l0,1.08Zm.24-2L4.95,2l10.21-.82v.65Zm15.44,18.4-6.76-1.58V17.84l6.76-1Zm0-5L7.64,18V6.34L22.92,5Zm0-12.78L16.16,1.85V1.2l6.76,1ZM13.86,13.81h.05l3.16-.33a.5.5,0,0,0,.45-.5.48.48,0,0,0,0-.05.5.5,0,0,0-.55-.44l-3.16.33a.5.5,0,0,0-.45.5.48.48,0,0,0,0,.05A.5.5,0,0,0,13.86,13.81Z"/></svg>