<svg id="Layer_1" data-name="Layer 1" xmlns="http://www.w3.org/2000/svg" viewBox="0 0 24 24"><defs><style>.cls-1{fill:#777;}</style></defs><title>basket</title><path class="cls-1" d="M22.54,8H13.93V2.15a1,1,0,0,0-1-1H11a1,1,0,0,0-1,1V8H1.46A1.46,1.46,0,0,0,0,9.5v1.7a1.46,1.46,0,0,0,1.46,1.46h.26l2.71,9.53a.49.49,0,0,0,.16.23l.06,0,.06,0a3.34,3.34,0,0,0,1.41.31H18.92a3.34,3.34,0,0,0,1.35-.29h.06l0,0a.49.49,0,0,0,.13-.11l0,0a.49.49,0,0,0,.09-.2l1.68-9.48h.26A1.46,1.46,0,0,0,24,11.2V9.5A1.46,1.46,0,0,0,22.54,8Zm-5.72,3.62L15.31,9h2.91l1.52,2.62ZM14.15,9l1.52,2.62H13.06L11.54,9ZM12.93,2.15V8H11.07l0-5.86ZM10.38,9l1.52,2.62H9.27L7.76,9ZM5.29,11.66,3.77,9H6.6l1.52,2.62Zm-3.83,0A.46.46,0,0,1,1,11.2V9.5A.46.46,0,0,1,1.46,9H2.62l1.52,2.62Zm19.65,1.89a.45.45,0,0,0,0,.13l-1.42,8a2.32,2.32,0,0,1-.75.13H6.11a2.33,2.33,0,0,1-.78-.14L3.7,16h0l-.94-3.3H21.27ZM23,11.2a.46.46,0,0,1-.46.46H20.89L19.37,9h3.17A.46.46,0,0,1,23,9.5Z"/></svg>