<svg id="Layer_1" data-name="Layer 1" xmlns="http://www.w3.org/2000/svg" viewBox="0 0 24 24"><defs><style>.cls-1{fill:#777;}</style></defs><title>bedding-box</title><path class="cls-1" d="M22.83,7.89H1.14A1.22,1.22,0,0,0-.08,9.11v7.58a1.22,1.22,0,0,0,1.2,1.22v.81a.5.5,0,0,0,1,0v-.81H22v.81a.5.5,0,0,0,1,0v-.83A1.21,1.21,0,0,0,24,16.69V9.11A1.22,1.22,0,0,0,22.83,7.89Zm-21.69,1H22.83a.22.22,0,0,1,.22.22V10H.92V9.11A.22.22,0,0,1,1.14,8.89Zm21.69,8H1.14a.22.22,0,0,1-.22-.22V11H23v5.67A.22.22,0,0,1,22.83,16.91Z"/></svg>