<svg id="Layer_1" data-name="Layer 1" xmlns="http://www.w3.org/2000/svg" viewBox="0 0 24 24"><defs><style>.cls-1{fill:#777;}</style></defs><title>bedside-table</title><path class="cls-1" d="M20.81,10.88H3.19a.5.5,0,0,0-.5.5v1.86a.5.5,0,0,0,.5.5h.42V23.5a.5.5,0,1,0,1,0V20.24H19.39V23.5a.5.5,0,0,0,1,0V13.74h.42a.5.5,0,0,0,.5-.5V11.38A.5.5,0,0,0,20.81,10.88Zm-1.42,8.35H4.61v-5.5H19.39Zm.92-6.5H3.69v-.86H20.31Zm-9.21,3.78h1.82a.5.5,0,1,0,0-1H11.09a.5.5,0,1,0,0,1ZM12.83,1.58l2.25,1.3a.5.5,0,0,0,.68-.18A1.8,1.8,0,0,0,15.1.24,1.8,1.8,0,0,0,12.65.9.5.5,0,0,0,12.83,1.58ZM14,1a.8.8,0,0,1,1,.56l0,.08-1.08-.62ZM8.54,2.93l.13,0a.5.5,0,0,0,.25-.07l2.25-1.3A.5.5,0,0,0,11.35.9,1.8,1.8,0,0,0,8.24,2.7.5.5,0,0,0,8.54,2.93ZM9.4,1.11A.79.79,0,0,1,9.8,1a.81.81,0,0,1,.29.05L9,1.67A.79.79,0,0,1,9.4,1.11ZM8.12,5.83A3.86,3.86,0,0,0,9.38,8.67l-.6,1a.5.5,0,0,0,.86.5l.56-1a3.72,3.72,0,0,0,3.58,0l.56,1a.5.5,0,1,0,.86-.5l-.6-1A3.87,3.87,0,1,0,8.12,5.83ZM12,2.95A2.88,2.88,0,1,1,9.12,5.83,2.88,2.88,0,0,1,12,2.95ZM10.8,7.57a.5.5,0,0,0,.29-.09l1.37-1a.5.5,0,0,0,.21-.41V3.87a.5.5,0,0,0-1,0v2l-1.16.82a.5.5,0,0,0,.29.91Z"/></svg>