<svg id="Layer_1" data-name="Layer 1" xmlns="http://www.w3.org/2000/svg" viewBox="0 0 24 24"><defs><style>.cls-1{fill:#777;}</style></defs><title>bedside-lamp</title><path class="cls-1" d="M21.85,10.06,17,.28A.5.5,0,0,0,16.51,0h-9A.5.5,0,0,0,7,.28L2.15,10.06a.5.5,0,0,0,.45.72h8.91v2.86a.48.48,0,0,0,0,.11,2.13,2.13,0,0,0-1.65,2.07V23H6a.5.5,0,1,0,0,1H18a.5.5,0,0,0,0-1H14.12V15.83a2.13,2.13,0,0,0-1.63-2.07.48.48,0,0,0,0-.12V10.78h5.42a.47.47,0,0,0,0,.05v4.46a.5.5,0,0,0,1,0V10.84a.47.47,0,0,0,0-.05H21.4a.5.5,0,0,0,.45-.72Zm-8.73,5.77V23H10.88V15.83a1.12,1.12,0,1,1,2.24,0Zm-9.71-6L7.8,1h8.4l4.39,8.78Zm15,6.44a1,1,0,1,0,1,1A1,1,0,0,0,18.42,16.23Zm-.25,1a.25.25,0,0,1,.5,0C18.67,17.49,18.17,17.49,18.17,17.22Z"/></svg>