<svg id="Layer_1" data-name="Layer 1" xmlns="http://www.w3.org/2000/svg" viewBox="0 0 24 24"><defs><style>.cls-1{fill:#777;}</style></defs><title>bicycle</title><path class="cls-1" d="M19.32,10.32a4.51,4.51,0,0,0-1.84.4,15.78,15.78,0,0,1-.81-1.88,20.39,20.39,0,0,1-.53-2.12c0-.24-.09-.39-.1-.43a1.22,1.22,0,0,0-1.15-.76H14a.5.5,0,0,0,0,1h.93a.2.2,0,0,1,.18.1l.06.29c.08.39.21,1,.37,1.62H9.79V7.38l1.68-.47a.71.71,0,0,0,0-1.38L8.08,4.59A1.24,1.24,0,0,0,6.66,5.82v.8a1.23,1.23,0,0,0,.44.94,1.22,1.22,0,0,0,.8.28l.23,0,.64-.18V8.87L7.08,11a4.43,4.43,0,0,0-2.4-.72A4.55,4.55,0,1,0,8.87,16.6c1.87.3,1.94.3,2,.3a1.72,1.72,0,0,0,1.59-2.37l4-3.72.2.42a4.53,4.53,0,1,0,2.71-.91ZM7.94,6.86a.24.24,0,0,1-.19-.05.23.23,0,0,1-.08-.18v-.8a.24.24,0,0,1,.08-.18.42.42,0,0,1,.13-.07l2.34.65Zm1.16,3.24,1.09,3.41L9,13.6a4.66,4.66,0,0,0-1.16-1.93ZM8,13.69l-1.85.15,1.09-1.38A3.67,3.67,0,0,1,8,13.69ZM4.68,18.42a3.55,3.55,0,1,1,0-7.1,3.44,3.44,0,0,1,1.78.5L4.78,14h-.1a1,1,0,0,0-.24,1.92l.1,0,3.32.54A3.53,3.53,0,0,1,4.68,18.42Zm6.21-2.52c-.23,0-3.65-.58-6-1l6-.49a.72.72,0,0,1,0,1.45Zm.92-2.15a1.71,1.71,0,0,0-.58-.25L10,9.55h5.89l.12.3Zm7.51,4.67a3.53,3.53,0,0,1-2.24-6.28c.83,1.56,1.69,2.93,1.75,3a.5.5,0,0,0,.42.23.49.49,0,0,0,.27-.08.5.5,0,0,0,.16-.69s-.91-1.44-1.75-3a3.55,3.55,0,1,1,1.39,6.81Z"/></svg>