<svg id="Layer_1" data-name="Layer 1" xmlns="http://www.w3.org/2000/svg" viewBox="0 0 24 24"><defs><style>.cls-1{fill:#777;}</style></defs><title>boxspring-bed</title><path class="cls-1" d="M24,13.94s0,0,0,0a6.67,6.67,0,0,0-.58-2.09V5.22c0-1.33-.44-2.81-1.43-3.13-.42-.14-1.06-.11-1.76.74H3.8C3,1.89,2.29,2,1.91,2.11,1,2.45.47,3.77.6,5.22v6.67a.5.5,0,0,0,0,.2A5.16,5.16,0,0,0,0,13.92s0,0,0,0v8.89a.5.5,0,0,0,1,0V21.22H23v1.61a.5.5,0,1,0,1,0V13.94ZM2.27,3c.33-.12.73.36.88.58a.5.5,0,0,0,.4.21H20.47a.5.5,0,0,0,.4-.21c.31-.42.61-.65.81-.59s.74.91.74,2.18v5.16a3.15,3.15,0,0,0-.8-.59,4,4,0,0,0-.78-.27V7.83a2.09,2.09,0,0,0-2.09-2.09H13.59A2.08,2.08,0,0,0,12,6.49a2.08,2.08,0,0,0-1.59-.75H5.26A2.09,2.09,0,0,0,3.17,7.83V9.65a3.69,3.69,0,0,0-.35.13,4.25,4.25,0,0,0-1.21,1V5.17C1.49,4,1.92,3.18,2.27,3ZM5.84,9.31a12.43,12.43,0,0,0-1.68.09V7.83A1.09,1.09,0,0,1,5.26,6.74h5.16A1.09,1.09,0,0,1,11.5,7.83V9.31ZM12.5,7.83a1.09,1.09,0,0,1,1.09-1.09h5.16a1.09,1.09,0,0,1,1.09,1.09V9.35c-.4,0-.81,0-1.25,0H12.5ZM3.25,10.68a6,6,0,0,1,2.59-.37H18.59a6,6,0,0,1,2.59.37,4.14,4.14,0,0,1,1.74,2.79H1.12A5.17,5.17,0,0,1,3.25,10.68ZM23,20.22H1V17.84H23Zm0-3.38H1V14.47H23Z"/></svg>