<svg id="Layer_1" data-name="Layer 1" xmlns="http://www.w3.org/2000/svg" viewBox="0 0 24 24"><defs><style>.cls-1{fill:#777;}</style></defs><title>buffet</title><path class="cls-1" d="M7.64,13.25h8.78a.5.5,0,0,0,.5-.5v-9a.5.5,0,0,0-.5-.5H7.64a.5.5,0,0,0-.5.5v9A.5.5,0,0,0,7.64,13.25Zm4.89-9h3.39v8H12.53Zm-4.39,0h3.39v8H8.14ZM19.25,1a.5.5,0,0,0,.08-.27A.74.74,0,0,0,18.59,0H5.41a.74.74,0,0,0-.73.74A.5.5,0,0,0,4.75,1,11.78,11.78,0,0,0,5.7,2.32l.37,11.63c-.19.2-.44.52-.82,1a.5.5,0,0,0-.1.3.68.68,0,0,0,0,.08.48.48,0,0,0,0,.08v5.64a1.25,1.25,0,0,0,.25.72.47.47,0,0,0,0,.07v1.36a.73.73,0,0,0,.73.73h.8a.73.73,0,0,0,.73-.73v-.86h8.54v.86a.73.73,0,0,0,.73.73h.8a.73.73,0,0,0,.73-.73V22a1.27,1.27,0,0,0,.45-1V15.43a.48.48,0,0,0,0-.08.68.68,0,0,0,0-.08.5.5,0,0,0-.1-.3,12,12,0,0,0-.88-1.08l.37-11.54A11.18,11.18,0,0,0,19.25,1ZM6.64,23H6.38v-.6h.27Zm10.8,0h-.27v-.6h.27Zm.45-1.88a.29.29,0,0,1-.29.29H6.43a.29.29,0,0,1-.29-.29V19.14H17.9Zm0-2.93H6.14V16H17.9ZM6.83,14.59H17.21l.29.34h-11Zm-.13-12H17.27l-.35,11H7.05Zm10.9-1H6.39c-.11-.14-.27-.38-.45-.64H18.06C17.88,1.22,17.71,1.46,17.61,1.6Zm-9.52,16H9.86a.5.5,0,0,0,0-1H8.09a.5.5,0,1,0,0,1Zm0,3.19H9.86a.5.5,0,0,0,0-1H8.09a.5.5,0,1,0,0,1Zm6.13-3.11H16a.5.5,0,0,0,0-1H14.22a.5.5,0,0,0,0,1Zm-.38,3.11h1.77a.5.5,0,0,0,0-1H13.84a.5.5,0,1,0,0,1ZM9.05,6a.5.5,0,0,0,.35-.15l.37-.37a.5.5,0,0,0-.71-.71l-.37.37A.5.5,0,0,0,9.05,6Zm1.42-.72L8.54,7.25A.5.5,0,1,0,9.25,8L11.18,6a.5.5,0,0,0-.71-.71Zm4.21,5-.37.37a.5.5,0,1,0,.71.71l.37-.37a.5.5,0,0,0-.71-.71Zm.16-2.06L12.9,10.22a.5.5,0,1,0,.71.71L15.54,9a.5.5,0,0,0-.71-.71Z"/></svg>