<svg id="Layer_1" data-name="Layer 1" xmlns="http://www.w3.org/2000/svg" viewBox="0 0 24 24"><defs><style>.cls-1{fill:#777;}</style></defs><title>bunk-bed</title><path class="cls-1" d="M23.5,0a.5.5,0,0,0-.5.5V5H18.2V.51a.5.5,0,0,0-1,0V5h-11a1.27,1.27,0,0,0,.08-.41V4A1.3,1.3,0,0,0,5,2.69H1.29A1.24,1.24,0,0,0,1,2.75V.5a.5.5,0,0,0-1,0V23.38a.5.5,0,0,0,1,0V22H17.2v1.7a.5.5,0,1,0,1,0V22H23v1.7a.5.5,0,1,0,1,0V.51A.5.5,0,0,0,23.5,0ZM1,4a.3.3,0,0,1,.29-.3H5a.3.3,0,0,1,.29.3v.61a.3.3,0,0,1-.29.3H1.29A.3.3,0,0,1,1,4.59ZM1,6H7.61V9H1Zm0,9.92a.29.29,0,0,1,.29-.29H5a.29.29,0,0,1,.29.29v.61a.3.3,0,0,1-.29.3H1.29a.3.3,0,0,1-.29-.3ZM1,18H7.61v3H1Zm16.2,3H8.61V18h8.6Zm0-4h-11a1.28,1.28,0,0,0,.1-.47v-.61A1.3,1.3,0,0,0,5,14.62H1.29a1.24,1.24,0,0,0-.29.06V10H17.2Zm0-8H8.61V6h8.6ZM23,21H18.2V18H23Zm0-4H18.2V14H23Zm0-4H18.2V10H23Zm0-4H18.2V6H23Z"/></svg>