<svg id="Layer_1" data-name="Layer 1" xmlns="http://www.w3.org/2000/svg" viewBox="0 0 24 24"><defs><style>.cls-1{fill:#777;}</style></defs><title>camping-set</title><path class="cls-1" d="M23.77,20a.5.5,0,0,0-.69.15l-.4.62L12.59,3.57l.68-1A.5.5,0,0,0,12.43,2L12,2.64,11.57,2a.5.5,0,0,0-.84.55l.68,1L1.32,20.79l-.4-.62a.5.5,0,0,0-.84.55L.93,22a.48.48,0,0,0,.11.1.49.49,0,0,0,.07.06.5.5,0,0,0,.24.06H22.66a.37.37,0,0,0,.31-.13.48.48,0,0,0,.11-.1l.84-1.29A.5.5,0,0,0,23.77,20ZM11.5,5.4V21.24H2.22Zm1,15.84V15.08l2.64,6.16Zm.82-6.77,4.58,4L16,20.78Zm3.62,6.77,2-2.53a.5.5,0,0,0-.06-.69l-6.42-5.6v-7l9.28,15.84Z"/></svg>