<svg id="Layer_1" data-name="Layer 1" xmlns="http://www.w3.org/2000/svg" viewBox="0 0 24 24"><defs><style>.cls-1{fill:#787878;}</style></defs><title>carpet</title><path class="cls-1" d="M23.38,7.85a.5.5,0,0,0,0-1h-2V5H23.5a.5.5,0,0,0,0-1H.5a.5.5,0,0,0,0,1h2V6.85H.5a.5.5,0,0,0,0,1h2V10H.5a.5.5,0,1,0,0,1h2v1.88H.5a.5.5,0,0,0,0,1h2v2.06H.5a.5.5,0,1,0,0,1h2V19H.5a.5.5,0,0,0,0,1H23.38a.5.5,0,0,0,0-1h-2V16.91h2a.5.5,0,1,0,0-1h-2V13.85h2a.5.5,0,0,0,0-1h-2V11h2a.5.5,0,1,0,0-1h-2V7.85ZM20.34,19H3.45V5H20.34ZM5.83,16.91H18.45a.5.5,0,0,0,.5-.5V7.34a.5.5,0,0,0-.5-.5H5.83a.5.5,0,0,0-.5.5v9.07A.5.5,0,0,0,5.83,16.91Zm.5-9.06H17.95v8.06H6.33Zm9.16,3.58L12.7,10h0l-.44-.23a.5.5,0,0,0-.47,0l-.4.22h0L8.53,11.56a.5.5,0,0,0,0,.88l3,1.59A.5.5,0,0,0,12,14l3.52-1.71a.5.5,0,0,0,0-.89Zm-3.36,1.42h-.72L9.82,12l1.88-1h.67l1.77.9Z"/></svg>