<svg id="Layer_1" data-name="Layer 1" xmlns="http://www.w3.org/2000/svg" viewBox="0 0 24 24"><defs><style>.cls-1{fill:#787878;}</style></defs><title>cat-tree</title><path class="cls-1" d="M14,7.82a2.06,2.06,0,1,0,2.06,2.06A2.06,2.06,0,0,0,14,7.82Zm0,3.12a1.06,1.06,0,1,1,1.06-1.06A1.06,1.06,0,0,1,14,10.95Zm4.11,10h-1V16.72a.5.5,0,0,0-.5-.5H16v-2h1.43a1.77,1.77,0,0,0,1.77-1.77V7.31a1.77,1.77,0,0,0-1.77-1.77H16V3h3.68a.5.5,0,0,0,.5-.5c0-1-.8-2.53-2-2.53H7.66c-1.21,0-2,1.52-2,2.53v9a2.32,2.32,0,1,0,1,0V3h5.46V5.54H10.69A1.77,1.77,0,0,0,8.92,7.31v5.16a1.77,1.77,0,0,0,1.77,1.77h1.43v2h-.64a.5.5,0,0,0-.5.5v4.18h-1c-1.16,0-2,1.55-2,2.59a.5.5,0,0,0,.5.5H19.66a.5.5,0,0,0,.5-.5C20.16,22.46,19.32,20.91,18.15,20.91ZM7.47,13.83a1.32,1.32,0,1,1-1.32-1.32A1.32,1.32,0,0,1,7.47,13.83ZM6.75,2c.17-.52.56-1,.92-1H18.15c.36,0,.74.51.92,1ZM15,3V5.42H13.11V3Zm-4.3,10.2a.77.77,0,0,1-.77-.77V7.31a.77.77,0,0,1,.77-.77h6.72a.77.77,0,0,1,.77.77v5.16a.77.77,0,0,1-.77.77Zm4.3,1.1v1.89H13.11V14.33Zm-3,2.89h4.15v3.68H12ZM9,23c.17-.56.59-1.09.92-1.09h8.21c.33,0,.75.54.92,1.09Z"/></svg>