<svg id="Layer_1" data-name="Layer 1" xmlns="http://www.w3.org/2000/svg" viewBox="0 0 24 24"><defs><style>.cls-1{fill:#777;}</style></defs><title>chair</title><path class="cls-1" d="M15.92,11.63h-.05a.5.5,0,0,1-.44-.55l1-9.51c0-.32-.23-.57-.43-.57H8c-.2,0-.43.26-.43.63l1,9.46a.5.5,0,1,1-1,.1l-1-9.51A1.55,1.55,0,0,1,8,0h8a1.54,1.54,0,0,1,1.43,1.62l-1,9.56A.5.5,0,0,1,15.92,11.63Z"/><path class="cls-1" d="M17.06,16H6.94a1.81,1.81,0,0,1,0-3.62H17.06a1.81,1.81,0,1,1,0,3.62ZM6.94,13.36a.81.81,0,0,0,0,1.62H17.06a.81.81,0,1,0,0-1.62Z"/><path class="cls-1" d="M7.47,24a1.37,1.37,0,0,1-1.39-1.35L7,15.42l1,.12-.89,7.17a.39.39,0,0,0,.4.29.38.38,0,0,0,.39-.35l.9-7.23,1,.12-.89,7.17A1.36,1.36,0,0,1,7.47,24Z"/><path class="cls-1" d="M16.53,24a1.37,1.37,0,0,1-1.39-1.35l-.89-7.11,1-.12.89,7.17a.4.4,0,0,0,.4.41.38.38,0,0,0,.39-.35L16,15.54l1-.12.89,7.17A1.38,1.38,0,0,1,16.53,24Z"/></svg>