<svg id="Layer_1" data-name="Layer 1" xmlns="http://www.w3.org/2000/svg" viewBox="0 0 24 24"><defs><style>.cls-1{fill:#777;}</style></defs><title>chandelier</title><path class="cls-1" d="M23,13.28a2.36,2.36,0,0,0-4.22-1.83,2.32,2.32,0,0,0-.42,1.82,1.79,1.79,0,0,0-1,1.61v1a1.8,1.8,0,0,0,1.79,1.79h1v1.24H12.5V17.67h1a1.8,1.8,0,0,0,1.79-1.79v-1a1.79,1.79,0,0,0-1-1.61,2.34,2.34,0,0,0-1.82-2.71V5.09h1.8a.5.5,0,0,0,0-1H9.7a.5.5,0,0,0,0,1h1.8v5.47a2.33,2.33,0,0,0-1.82,2.71,1.79,1.79,0,0,0-1,1.61v1a1.8,1.8,0,0,0,1.79,1.79h1v1.24H3.84V17.67H4.89a1.8,1.8,0,0,0,1.79-1.79v-1a1.79,1.79,0,0,0-1-1.61,2.35,2.35,0,0,0-.9-2.3A2.38,2.38,0,0,0,3,10.53a2.35,2.35,0,0,0-1.56.93A2.32,2.32,0,0,0,1,13.28a1.79,1.79,0,0,0-1,1.61v1a1.8,1.8,0,0,0,1.79,1.79h1v1.74a.5.5,0,0,0,.5.5H20.66a.5.5,0,0,0,.5-.5V17.67h1A1.8,1.8,0,0,0,24,15.87v-1A1.79,1.79,0,0,0,23,13.28ZM10.9,12.05a1.35,1.35,0,0,1,.9-.53,1.37,1.37,0,0,1,1,.26,1.34,1.34,0,0,1,.52,1.31H10.66A1.33,1.33,0,0,1,10.9,12.05Zm-.45,4.62a.8.8,0,0,1-.79-.79v-1a.8.8,0,0,1,.79-.79h3.1a.8.8,0,0,1,.79.79v1a.8.8,0,0,1-.79.79Zm-8.2-4.62a1.35,1.35,0,0,1,.9-.53,1.37,1.37,0,0,1,1,.26,1.34,1.34,0,0,1,.52,1.31H2A1.33,1.33,0,0,1,2.25,12.05ZM1,15.87v-1a.8.8,0,0,1,.79-.79h3.1a.8.8,0,0,1,.79.79v1a.8.8,0,0,1-.79.79H1.79A.8.8,0,0,1,1,15.87Zm18.56-3.82a1.35,1.35,0,0,1,.9-.53,1.39,1.39,0,0,1,1,.26A1.35,1.35,0,0,1,22,13.1H19.31A1.33,1.33,0,0,1,19.56,12.05ZM23,15.87a.8.8,0,0,1-.79.79h-3.1a.8.8,0,0,1-.79-.79v-1a.8.8,0,0,1,.79-.79h3.1a.8.8,0,0,1,.79.79Z"/></svg>