<svg id="Layer_1" data-name="Layer 1" xmlns="http://www.w3.org/2000/svg" viewBox="0 0 24 24"><defs><style>.cls-1{fill:#777;}</style></defs><title>chest</title><path class="cls-1" d="M20.56,2H3.44a3.5,3.5,0,0,0-3.5,3.5V21.54a.5.5,0,0,0,.5.5H23.56a.5.5,0,0,0,.5-.5V5.46A3.5,3.5,0,0,0,20.56,2ZM3.94,21h-3V10.81h3Zm0-11.22h-3V5.46A2.5,2.5,0,0,1,3.44,3h.5ZM18.81,21H4.94V10.82h3.5v1a1.67,1.67,0,0,0,1.66,1.66h3.42a1.67,1.67,0,0,0,1.66-1.66v-1h3.63ZM9.44,11.83V8.58a.66.66,0,0,1,.66-.66h3.42a.66.66,0,0,1,.66.66v3.25a.66.66,0,0,1-.66.66H10.1A.66.66,0,0,1,9.44,11.83Zm9.38-2H15.19V8.58a1.67,1.67,0,0,0-1.66-1.66H10.1A1.67,1.67,0,0,0,8.44,8.58V9.82H4.94V3H18.81ZM23.06,21H19.81V10.82h3.25Zm0-11.22H19.81V3h.75a2.5,2.5,0,0,1,2.5,2.5ZM11.81,11.49a.5.5,0,0,0,.5-.5V9.41a.5.5,0,1,0-1,0V11A.5.5,0,0,0,11.81,11.49Z"/></svg>