<svg id="Layer_1" data-name="Layer 1" xmlns="http://www.w3.org/2000/svg" viewBox="0 0 24 24"><defs><style>.cls-1{fill:#777;}</style></defs><title>chest-freezer</title><path class="cls-1" d="M24,9.54a.5.5,0,0,0,0-.2l0,0a.49.49,0,0,0-.08-.11h0l-.06,0-.08-.05L19.46,7.34a.51.51,0,0,0-.24,0l-1.64.17.19-.72s0,0,0,0l1.46-.14a.5.5,0,0,0,.41-.3l2.1-4.89a.5.5,0,0,0-.05-.49.51.51,0,0,0-.44-.21L1.74,2.06a.5.5,0,0,0-.45.39L.13,7.75a.5.5,0,0,0,.49.61h0l3-.28L3.39,9,.45,9.29l-.11,0H.29A.49.49,0,0,0,.1,9.5l0,0a.49.49,0,0,0-.06.2s0,0,0,0v9.68a.49.49,0,0,0,.1.29l2.42,3.31,0,0,0,.05.07,0,.05,0a.5.5,0,0,0,.2,0H3L23.58,20a.5.5,0,0,0,.42-.49V9.54ZM1.25,7.29,2.19,3,20.5,1.78,18.84,5.64Zm15.46-.45-.2.75L4.45,8.87l.2-.76a.48.48,0,0,0,0-.13ZM2.42,21.25,1,19.3V10.94l1.42,1.34ZM1.64,10.17,19.2,8.31l2.35,1L3.1,11.54ZM23,19,3.42,22.19V12.51L23,10.1ZM10.93,15.87a.5.5,0,1,0-.26,1l.51.14-.42.24a.5.5,0,0,0,.25.93.49.49,0,0,0,.25-.07l.42-.24-.14.51a.5.5,0,0,0,.35.61L12,19a.5.5,0,0,0,.48-.37l.4-1.47.94-.54v1.1l-1.08,1.08a.5.5,0,0,0,.71.71l.37-.37v.47a.5.5,0,0,0,1,0v-.47l.37.37a.5.5,0,0,0,.71-.71l-1.08-1.08v-1.1l1,.55.39,1.47a.5.5,0,0,0,.48.37l.13,0a.5.5,0,0,0,.35-.61L17,17.85l.41.24a.49.49,0,0,0,.25.07.5.5,0,0,0,.25-.93L17.53,17l.51-.14a.5.5,0,0,0-.26-1l-1.47.4-1-.55,1-.55,1.47.4.13,0a.5.5,0,0,0,.13-1l-.51-.14.41-.24a.5.5,0,1,0-.5-.87L17,13.6l.14-.51a.5.5,0,0,0-1-.26l-.39,1.47-1,.55V13.77l1.08-1.08a.5.5,0,0,0-.71-.71l-.37.37v-.49a.5.5,0,1,0-1,0v.49L13.48,12a.5.5,0,0,0-.71.71l1.08,1.08v1.09l-.94-.54-.39-1.47a.5.5,0,1,0-1,.26l.14.51-.42-.24a.5.5,0,1,0-.5.87l.42.24-.51.14a.5.5,0,0,0,.13,1l.13,0,1.47-.39.94.54-.94.54Z"/></svg>