<svg id="Layer_1" data-name="Layer 1" xmlns="http://www.w3.org/2000/svg" viewBox="0 0 24 24"><defs><style>.cls-1{fill:#777;}</style></defs><title>children-bicycle</title><path class="cls-1" d="M18.34,10.31l-.36,0-.8-3.08h1.51a.5.5,0,0,0,0-1H16.92L16,2.78l0,0a.48.48,0,0,0,0-.1l0-.07-.07-.06-.08-.05-.09,0-.1,0H14.11a.5.5,0,0,0,0,1h1l1.11,4.28a.49.49,0,0,0-.23,0L6.74,12.06a5,5,0,0,0-1-.27V10.43a.49.49,0,0,0,0-.21h2a.75.75,0,0,0,.75-.75V8a.75.75,0,0,0-.75-.75H2.81A.75.75,0,0,0,2.06,8V9.48a.75.75,0,0,0,.75.75h2a.49.49,0,0,0,0,.21v1.28l-.41,0-.12,0-.45.09-.15,0L3.18,12l-.1,0a5.16,5.16,0,0,0-.52.24,5,5,0,1,0,5.26.34l8.62-4,0,0,.49,1.9-.13,0-.5.17-.12,0a6.1,6.1,0,0,0-.59.28,5.64,5.64,0,1,0,2.69-.7ZM3.06,9.23v-1H7.48v1Zm5.84,7.42A3.95,3.95,0,1,1,3,13.19,4.34,4.34,0,0,1,3.54,13l.34-.11.12,0,.46-.09a4.24,4.24,0,0,1,.5,0A4,4,0,0,1,8.89,16.65Zm9.47,3.95a4.64,4.64,0,0,1-2.24-8.71,4.74,4.74,0,0,1,.58-.26l.41-.14.14,0,.43-.08h.06l0,0v0a5,5,0,0,1,.58,0,4.64,4.64,0,0,1,0,9.28ZM4.94,13.81l-.41,0-.25,0-.1,0-.31.1-.3.14a2.84,2.84,0,1,0,1.36-.35Zm0,4.68A1.84,1.84,0,0,1,4.06,15l.23-.1.21-.07.21,0H5a1.84,1.84,0,0,1,0,3.68ZM18.35,13l-.42,0-.35.07-.32.11-.3.14A2.91,2.91,0,1,0,18.35,13Zm0,4.83a1.92,1.92,0,0,1-.92-3.59l.24-.11.22-.07.23,0,.24,0a1.92,1.92,0,0,1,0,3.83Z"/></svg>