<svg id="Layer_1" data-name="Layer 1" xmlns="http://www.w3.org/2000/svg" viewBox="0 0 24 24"><defs><style>.cls-1{fill:#777;}</style></defs><title>clothes-rack</title><path class="cls-1" d="M23.42,20.19a.5.5,0,0,0-.28-.65L21.91,19a1.36,1.36,0,0,0,.48-1V1.46A1.37,1.37,0,0,0,21,.09H3.8A1.37,1.37,0,0,0,2.44,1.46V18a1.35,1.35,0,0,0,.06.39l-1.21-.49a.5.5,0,0,0-.65.28.49.49,0,0,0,.07.47,1.23,1.23,0,1,0,1.79,1.1,1.19,1.19,0,0,0-.06-.31L4,20.1a1.41,1.41,0,1,0,1.43.25.48.48,0,0,0,.13-.16.5.5,0,0,0-.28-.65l-.4-.16H17.6a1.21,1.21,0,0,0-.08.38,1.24,1.24,0,0,0,2.48,0,1.21,1.21,0,0,0-.08-.38h.15l1.65.67a1.41,1.41,0,1,0,1.36.42A.48.48,0,0,0,23.42,20.19ZM1,19.76a.24.24,0,0,1,.48,0C1.49,20,1,20,1,19.76Zm3.53,2.06A.41.41,0,1,1,5,21.41.41.41,0,0,1,4.54,21.82Zm14-2.06a.24.24,0,0,1,.48,0C19,20,18.52,20,18.52,19.76ZM14.58,5.37h4.27V16.23H14.58Zm.43-1,1.71-1.06,1.71,1.06ZM3.44,1.46a.37.37,0,0,1,.37-.37H8.06l0,1.37-3.22,2a.5.5,0,0,0,.26.93h6.93a.5.5,0,0,0,.26-.93l-3.24-2,0-1.36h7.12l0,1.37L13,4.45a.5.5,0,0,0,.26.93h.33V16.73a.5.5,0,0,0,.5.5h5.27a.5.5,0,0,0,.5-.5V5.37h.33a.5.5,0,0,0,.26-.93l-3.24-2,0-1.36H21a.37.37,0,0,1,.37.37V18a.37.37,0,0,1-.37.37h-.76l-1.15-.46a.5.5,0,0,0-.65.28.5.5,0,0,0,0,.19H3.8A.37.37,0,0,1,3.44,18ZM8.59,3.32,10.3,4.37H6.89ZM22,21.82a.41.41,0,1,1,.41-.41A.41.41,0,0,1,22,21.82Z"/></svg>