<svg id="Layer_1" data-name="Layer 1" xmlns="http://www.w3.org/2000/svg" viewBox="0 0 24 24"><defs><style>.cls-1{fill:#777;}</style></defs><title>computer-and-accessories</title><path class="cls-1" d="M12.54,11H1.45A1.42,1.42,0,0,0,0,12.38v7.16A1.43,1.43,0,0,0,1.45,21H12.54A1.43,1.43,0,0,0,14,19.54V12.38A1.42,1.42,0,0,0,12.54,11ZM13,19.54a.42.42,0,0,1-.42.42H1.45A.42.42,0,0,1,1,19.54V12.38A.42.42,0,0,1,1.45,12H12.54a.42.42,0,0,1,.42.42ZM10.2,23H9.76l-.23-1.43a.5.5,0,0,0-1,.16L8.75,23H5.25l.21-1.27a.5.5,0,0,0-1-.16L4.24,23h-.5a.5.5,0,0,0,0,1H10.2a.5.5,0,0,0,0-1ZM23.47,0h-8a.5.5,0,0,0-.5.5v23a.5.5,0,0,0,.5.5h8a.5.5,0,0,0,.5-.5V.5A.5.5,0,0,0,23.47,0ZM23,23H16V1h7ZM17.44,10h4a.5.5,0,0,0,0-1h-4a.5.5,0,0,0,0,1Zm.35,3.14a.51.51,0,0,0-.71,0,.64.64,0,0,0-.11.16.59.59,0,0,0,0,.19.5.5,0,0,0,.14.35.55.55,0,0,0,.36.15.47.47,0,0,0,.35-.15.51.51,0,0,0,.15-.35.6.6,0,0,0,0-.19A.46.46,0,0,0,17.79,13.13Zm1.29,0a.46.46,0,0,0-.11.16.41.41,0,0,0,0,.19.45.45,0,0,0,0,.19.36.36,0,0,0,.11.16.47.47,0,0,0,.35.15.45.45,0,0,0,.35-.15.48.48,0,0,0,0-.7A.5.5,0,0,0,19.08,13.13ZM17.44,8h4a.5.5,0,0,0,0-1h-4a.5.5,0,0,0,0,1Zm0-2h4a.5.5,0,0,0,0-1h-4a.5.5,0,0,0,0,1Zm0-2h4a.5.5,0,0,0,0-1h-4a.5.5,0,0,0,0,1Z"/></svg>