<svg id="Layer_1" data-name="Layer 1" xmlns="http://www.w3.org/2000/svg" viewBox="0 0 24 24"><defs><style>.cls-1{fill:#777;}</style></defs><title>corner-office-desk</title><path class="cls-1" d="M9.66,4.22,7.77,6.11a.5.5,0,0,0,.71.71l1.89-1.89a.5.5,0,0,0-.71-.71ZM8.08,5.33l.79-.79a.5.5,0,0,0-.71-.71l-.79.79a.5.5,0,0,0,.71.71ZM24,12v0s0,0,0,0a.49.49,0,0,0-.08-.2l0-.05a.49.49,0,0,0-.2-.13l0,0L16.23,9.43h.43a1.16,1.16,0,0,0,1.16-1.16V3.39a1.16,1.16,0,0,0-1.16-1.16H6.89A1.16,1.16,0,0,0,5.73,3.39V8.27A1.16,1.16,0,0,0,6.89,9.43h.66L.36,11.55l0,0h0l-.1.07-.06,0,0,0,0,.06A.49.49,0,0,0,0,12s0,0,0,0H0v6.93a.5.5,0,0,0,1,0V12.79L5,14.5l.26.11v6.65a.5.5,0,0,0,1,0V14.65l5.62-1.78,1.58.43v5.16a.5.5,0,0,0,.37.48l4.58,1.26v1.06a.5.5,0,0,0,1,0V20.11L23,18v1a.5.5,0,1,0,1,0V12S24,12,24,12ZM6.89,8.43a.16.16,0,0,1-.16-.16V3.39a.16.16,0,0,1,.16-.16h9.77a.16.16,0,0,1,.16.16V8.27a.16.16,0,0,1-.16.16Zm6.09,1v.75H10.57V9.43Zm5.46,9.74-4-1.09v-1.7l4,1.09Zm0-2.74-4-1.09V13.58l4,1.08Zm.45-2.68L12,11.87a.51.51,0,0,0-.28,0L5.81,13.75,2,12.12,9.4,9.93a.5.5,0,0,0,.17-.09v.78a.63.63,0,0,0,.55.56h3.3a.63.63,0,0,0,.55-.56V9.83l8.14,2.33Zm4.11,3-3.56,2.14V14.59L23,12.84Zm-7.09-1.43.86.24.13,0a.5.5,0,0,0,.13-1l-.86-.24a.5.5,0,1,0-.26,1Zm0,2.8.86.24.13,0a.5.5,0,0,0,.13-1l-.86-.24a.5.5,0,1,0-.26,1Z"/></svg>