<svg id="Layer_1" data-name="Layer 1" xmlns="http://www.w3.org/2000/svg" viewBox="0 0 24 24"><defs><style>.cls-1{fill:#777;}</style></defs><title>corner-bed</title><path class="cls-1" d="M5.2,15.71H5.13L.43,15A.5.5,0,0,1,0,14.5V10.26a.5.5,0,0,1,.57-.5l4.7.63a.5.5,0,0,1,.43.5v4.32a.5.5,0,0,1-.5.5ZM1,14.07l3.7.56v-3.3L1,10.83Z"/><path class="cls-1" d="M16.1,10.8a.5.5,0,0,1-.5-.5V9.12l-3.37-.47a.5.5,0,0,1,.14-1l3.81.52a.5.5,0,0,1,.43.5V10.3A.5.5,0,0,1,16.1,10.8Z"/><path class="cls-1" d="M12.29,10.51a.5.5,0,0,1-.5-.5V7.71a.92.92,0,0,0-.78-1L2.83,8A.85.85,0,0,0,2,9a.5.5,0,1,1-1,.11,1.85,1.85,0,0,1,.46-1.45A1.78,1.78,0,0,1,2.75,7L10.93,5.7h0a1.91,1.91,0,0,1,1.85,2V10A.5.5,0,0,1,12.29,10.51Z"/><path class="cls-1" d="M4.39,9.59a.5.5,0,0,1-.5-.5V8.71a.5.5,0,0,1,1,0v.38A.5.5,0,0,1,4.39,9.59Z"/><path class="cls-1" d="M6.33,9.3a.5.5,0,0,1-.5-.5V8.43a.5.5,0,0,1,1,0V8.8A.5.5,0,0,1,6.33,9.3Z"/><path class="cls-1" d="M8.27,9a.5.5,0,0,1-.5-.5V8.09a.5.5,0,0,1,1,0v.38A.5.5,0,0,1,8.27,9Z"/><path class="cls-1" d="M5.38,11.62a.5.5,0,0,1-.08-1l6.93-1.11a.5.5,0,1,1,.16,1L5.46,11.61Z"/><path class="cls-1" d="M1,15.85H1a.5.5,0,0,1-.48-.52l0-.69a.5.5,0,0,1,.5-.48h0a.5.5,0,0,1,.48.52l0,.69A.5.5,0,0,1,1,15.85Z"/><path class="cls-1" d="M4.39,16.4h0a.5.5,0,0,1-.48-.52l0-.69a.5.5,0,0,1,.5-.48h0a.5.5,0,0,1,.48.52l0,.69A.5.5,0,0,1,4.39,16.4Z"/><path class="cls-1" d="M13.91,13.78h-.07L5.31,12.56a.5.5,0,1,1,.14-1l8.45,1.21,6.46-1.35-8.12-.92a.5.5,0,1,1,.11-1l11.21,1.27a.5.5,0,0,1,0,1l-9.59,2Z"/><path class="cls-1" d="M13.91,16.31h-.08L5.3,15a.5.5,0,1,1,.15-1l8.43,1.31L23,12.9V11.28a.5.5,0,0,1,1,0v2a.5.5,0,0,1-.37.48L14,16.29Z"/><path class="cls-1" d="M10.21,8.66a.5.5,0,0,1-.5-.5V7.78a.5.5,0,0,1,1,0v.38A.5.5,0,0,1,10.21,8.66Z"/><path class="cls-1" d="M13.27,18.3a.5.5,0,0,1-.41-.21l-1.71-2.36a.5.5,0,1,1,.81-.58l1.5,2.08,8.43-2.45-.58-.57a.5.5,0,1,1,.7-.71l1.19,1.17a.5.5,0,0,1-.21.84l-9.59,2.78Z"/><path class="cls-1" d="M13.91,16.31a.5.5,0,0,1-.5-.5V13.28a.5.5,0,0,1,1,0v2.52A.5.5,0,0,1,13.91,16.31Z"/></svg>