<svg id="Layer_1" data-name="Layer 1" xmlns="http://www.w3.org/2000/svg" viewBox="0 0 24 24"><defs><style>.cls-1{fill:#777;}</style></defs><title>couch</title><path class="cls-1" d="M20.35,11.26a.5.5,0,0,1-.5-.5V7.88a1.36,1.36,0,0,0-1.37-1.35H5.55A1.53,1.53,0,0,0,4.42,7a1,1,0,0,0-.24.77v3a.5.5,0,0,1-1,0V7.88a1.89,1.89,0,0,1,.48-1.5,2.52,2.52,0,0,1,1.89-.85H18.48a2.36,2.36,0,0,1,2.37,2.35v2.88A.5.5,0,0,1,20.35,11.26Z"/><path class="cls-1" d="M21.9,16.88H2.1A2.08,2.08,0,0,1,0,14.82V10.76a2,2,0,0,1,2-2,2.14,2.14,0,0,1,2.18,2v1.92H19.85V10.76a2.11,2.11,0,0,1,2.13-2,2,2,0,0,1,2,2v4.06A2.08,2.08,0,0,1,21.9,16.88ZM2,9.78a1,1,0,0,0-1,1v4.06a1.1,1.1,0,0,0,1.1,1.06H21.9A1.1,1.1,0,0,0,23,14.82V10.76a1,1,0,0,0-1-1,1.12,1.12,0,0,0-1.15,1v2.42a.5.5,0,0,1-.5.5H3.68a.5.5,0,0,1-.5-.5V10.76A1.16,1.16,0,0,0,2,9.78Z"/><path class="cls-1" d="M20.35,18.47a.5.5,0,0,1-.5-.5V16.38a.5.5,0,0,1,1,0V18A.5.5,0,0,1,20.35,18.47Z"/><path class="cls-1" d="M3.66,18.47a.5.5,0,0,1-.5-.5V16.38a.5.5,0,0,1,1,0V18A.5.5,0,0,1,3.66,18.47Z"/><path class="cls-1" d="M11.67,13.68a.5.5,0,0,1-.5-.5V6a.5.5,0,0,1,1,0v7.15A.5.5,0,0,1,11.67,13.68Z"/></svg>