<svg id="Layer_1" data-name="Layer 1" xmlns="http://www.w3.org/2000/svg" viewBox="0 0 24 24"><defs><style>.cls-1{fill:#777;}</style></defs><title>country-wardrobe</title><path class="cls-1" d="M10.43,8.06a.5.5,0,0,0-.5.5v1.1a.5.5,0,1,0,1,0V8.56A.5.5,0,0,0,10.43,8.06Zm3.2,0a.5.5,0,0,0-.5.5v1.1a.5.5,0,1,0,1,0V8.56A.5.5,0,0,0,13.63,8.06ZM11.48,20h1.1a.5.5,0,0,0,0-1h-1.1a.5.5,0,0,0,0,1ZM12,0h0C7.09,0,4.49,2.78,4.18,4.86V17.21h0v4.4h0V23.5a.5.5,0,0,0,1,0V22.15H18.82V23.5a.5.5,0,0,0,1,0V5.32C19.82,2.39,16.33,0,12,0ZM5.18,4.93C5.41,3.4,7.58,1.16,11.53,1l0,15.71H5.18ZM18.82,21.15H5.18V17.72H18.82Zm0-4.43H12.5l0-15.7c3.51.16,6.29,2,6.29,4.3Z"/></svg>