<svg id="Layer_1" data-name="Layer 1" xmlns="http://www.w3.org/2000/svg" viewBox="0 0 24 24"><defs><style>.cls-1{fill:#777;}</style></defs><title>dishwasher</title><path class="cls-1" d="M21.8,22.35H2.2a1.5,1.5,0,0,1-1.5-1.5V1.5A1.5,1.5,0,0,1,2.2,0H21.8a1.5,1.5,0,0,1,1.5,1.5V20.85A1.5,1.5,0,0,1,21.8,22.35ZM2.2,1a.5.5,0,0,0-.5.5V20.85a.5.5,0,0,0,.5.5H21.8a.5.5,0,0,0,.5-.5V1.5a.5.5,0,0,0-.5-.5Z"/><path class="cls-1" d="M19.74,20.19H4.19a1.5,1.5,0,0,1-1.5-1.5V6.08a1.5,1.5,0,0,1,1.5-1.5H19.74a1.5,1.5,0,0,1,1.5,1.5V18.69A1.5,1.5,0,0,1,19.74,20.19ZM4.19,5.58a.5.5,0,0,0-.5.5V18.69a.5.5,0,0,0,.5.5H19.74a.5.5,0,0,0,.5-.5V6.08a.5.5,0,0,0-.5-.5Z"/><path class="cls-1" d="M4.12,4.08A1.34,1.34,0,1,1,5.46,2.74,1.34,1.34,0,0,1,4.12,4.08Zm0-1.68a.34.34,0,1,0,.34.34A.34.34,0,0,0,4.12,2.4Z"/><path class="cls-1" d="M6.84,9.25A1.34,1.34,0,0,1,5.5,7.91c0-.64.72-1.28,1-1.53a.5.5,0,0,1,.63,0c.31.25,1,.89,1,1.53A1.34,1.34,0,0,1,6.84,9.25Zm0-1.8a1.37,1.37,0,0,0-.34.47.34.34,0,0,0,.68,0A1.4,1.4,0,0,0,6.84,7.45Z"/><path class="cls-1" d="M11.85,9.25a1.34,1.34,0,0,1-1.34-1.34c0-.64.72-1.28,1-1.53a.5.5,0,0,1,.63,0c.31.25,1,.89,1,1.53A1.34,1.34,0,0,1,11.85,9.25Zm0-1.8a1.37,1.37,0,0,0-.34.47.34.34,0,0,0,.68,0A1.4,1.4,0,0,0,11.85,7.45Z"/><path class="cls-1" d="M16.83,9.25a1.34,1.34,0,0,1-1.34-1.34c0-.64.72-1.28,1-1.53a.5.5,0,0,1,.63,0c.31.25,1,.89,1,1.53A1.34,1.34,0,0,1,16.83,9.25Zm0-1.8a1.37,1.37,0,0,0-.34.47.34.34,0,0,0,.68,0A1.41,1.41,0,0,0,16.83,7.45Z"/><path class="cls-1" d="M14,4.09a1.34,1.34,0,1,1,1.34-1.34A1.35,1.35,0,0,1,14,4.09ZM14,2.4a.34.34,0,1,0,.34.34A.34.34,0,0,0,14,2.4Z"/><path class="cls-1" d="M16.94,4.08a1.34,1.34,0,1,1,1.34-1.34A1.34,1.34,0,0,1,16.94,4.08Zm0-1.68a.34.34,0,1,0,.34.34A.34.34,0,0,0,16.94,2.4Z"/><path class="cls-1" d="M19.88,4.08a1.34,1.34,0,1,1,1.34-1.34A1.34,1.34,0,0,1,19.88,4.08Zm0-1.68a.34.34,0,1,0,.34.34A.34.34,0,0,0,19.88,2.4Z"/><path class="cls-1" d="M9,18.56a4.5,4.5,0,1,1,4.5-4.5A4.5,4.5,0,0,1,9,18.56Zm0-8a3.5,3.5,0,1,0,3.5,3.5A3.5,3.5,0,0,0,9,10.57Z"/><path class="cls-1" d="M11.85,18.56a4.46,4.46,0,0,1-1.64-.31.5.5,0,0,1,.37-.93,3.45,3.45,0,0,0,1.27.24,3.5,3.5,0,1,0,0-7,3,3,0,0,0-1.26.23.5.5,0,0,1-.39-.92,3.93,3.93,0,0,1,1.64-.31,4.5,4.5,0,1,1,0,9Z"/><path class="cls-1" d="M14.83,18.56a4.47,4.47,0,0,1-1.64-.31.5.5,0,0,1,.37-.93,3.46,3.46,0,0,0,1.27.24,3.5,3.5,0,0,0,0-7,3,3,0,0,0-1.25.23.5.5,0,0,1-.39-.92,3.94,3.94,0,0,1,1.64-.31,4.5,4.5,0,0,1,0,9Z"/><path class="cls-1" d="M6.84,14.55a.5.5,0,0,1-.5-.5A2.66,2.66,0,0,1,9,11.4a.5.5,0,0,1,0,1,1.66,1.66,0,0,0-1.66,1.66A.5.5,0,0,1,6.84,14.55Z"/><path class="cls-1" d="M11.88,18.56a.5.5,0,0,1,0-1,3.5,3.5,0,1,0,0-7,.5.5,0,1,1,0-1,4.5,4.5,0,1,1,0,9Z"/><path class="cls-1" d="M5.31,24H2.93a.5.5,0,0,1-.5-.5V21.85a.5.5,0,0,1,.5-.5H5.31a.5.5,0,0,1,.5.5V23.5A.5.5,0,0,1,5.31,24ZM3.43,23H4.81v-.65H3.43Z"/><path class="cls-1" d="M21.07,24H18.69a.5.5,0,0,1-.5-.5V21.85a.5.5,0,0,1,.5-.5h2.38a.5.5,0,0,1,.5.5V23.5A.5.5,0,0,1,21.07,24Zm-1.88-1h1.38v-.65H19.19Z"/></svg>