<svg id="Layer_1" data-name="Layer 1" xmlns="http://www.w3.org/2000/svg" viewBox="0 0 24 24"><defs><style>.cls-1{fill:#777;}</style></defs><title>drums</title><path class="cls-1" d="M.67,3.79H7.13a.5.5,0,0,0,0-1H4.4v-1a.5.5,0,0,0-1,0v1H.67a.5.5,0,0,0,0,1Zm22.74.37h-3V1.8a.5.5,0,1,0-1,0V4.15h-3a.5.5,0,0,0,0,1h3V19.44l-2.71,2.24a.5.5,0,0,0,.64.77l2.59-2.14,2.59,2.14a.5.5,0,0,0,.64-.77l-2.75-2.27V6.9h.77a.5.5,0,0,0,0-1h-.77V5.15h3a.5.5,0,0,0,0-1Zm-7.9,9.68a4,4,0,0,0-1.12-1.07,3.92,3.92,0,0,0-1.19-.53,4.16,4.16,0,0,0-2.41.06,3.9,3.9,0,0,0-1,.46A4.25,4.25,0,0,0,7.89,16.3a4.21,4.21,0,0,0,8.42,0A4.14,4.14,0,0,0,15.51,13.84ZM12.1,19.5a3.21,3.21,0,0,1-3.21-3.2,3.24,3.24,0,0,1,1.47-2.7,2.89,2.89,0,0,1,.73-.35,3.09,3.09,0,0,1,1-.16,3,3,0,0,1,.83.12,3,3,0,0,1,.91.4,3.1,3.1,0,0,1,.86.82,3.16,3.16,0,0,1,.61,1.88A3.21,3.21,0,0,1,12.1,19.5Zm5.78-3.2a5.72,5.72,0,0,0-.57-2.49l1.14-.41a.5.5,0,0,0,.33-.47v-3a.5.5,0,0,0-.19-.4.49.49,0,0,0-.43-.09l-2.54.66V9.64a.5.5,0,0,0-.5-.5H9.38a.5.5,0,0,0-.5.5v.44L6.05,9.4a.5.5,0,0,0-.62.49v3a.5.5,0,0,0,.3.46l1.14.48a5.71,5.71,0,0,0,2.2,7.33l-.64.65a.5.5,0,1,0,.71.7l.87-.88a5.7,5.7,0,0,0,4.18,0l.87.88a.5.5,0,1,0,.71-.7l-.64-.65A5.76,5.76,0,0,0,17.88,16.3Zm-2.27-5.2,2.17-.56v2l-1,.35h0a5.55,5.55,0,0,0-1.17-1.18Zm-5.73-1h4.73v1a5.43,5.43,0,0,0-1-.38,5.72,5.72,0,0,0-3.31.09c-.14,0-.28.11-.41.16ZM6.44,12.6V10.52l2.44.59v.41A5.76,5.76,0,0,0,7.38,13Zm5.66,8.47A4.78,4.78,0,0,1,7.32,16.3,4.67,4.67,0,0,1,8,13.87a4.73,4.73,0,0,1,1.51-1.58,4.4,4.4,0,0,1,1.09-.52,4.64,4.64,0,0,1,1.5-.24,4.9,4.9,0,0,1,2.6.77A4.61,4.61,0,0,1,16,13.51a4.7,4.7,0,0,1,.9,2.79A4.78,4.78,0,0,1,12.1,21.07ZM4.4,19.43V6H7.21a.5.5,0,0,0,0-1H.59a.5.5,0,0,0,0,1H3.4V19.43L.67,21.68a.5.5,0,0,0,.64.77L3.9,20.31,6.5,22.46a.5.5,0,0,0,.64-.77Z"/></svg>