<svg id="Layer_1" data-name="Layer 1" xmlns="http://www.w3.org/2000/svg" viewBox="0 0 24 24"><defs><style>.cls-1{fill:#777;}</style></defs><title>exercise-bike</title><path class="cls-1" d="M5.27,8.58a3.35,3.35,0,0,1,.84.24,4,4,0,0,0,1.47.34,2.92,2.92,0,0,0,1.25-.29,5.38,5.38,0,0,1,1.9-.24.53.53,0,0,0,.42-.2A.5.5,0,0,0,11.22,8c-.38-1.2-1.2-1.21-2.14-1.22a10.54,10.54,0,0,1-2.23-.22H6.77a1.93,1.93,0,0,0-1.65.54,1.36,1.36,0,0,0-.29,1.1A.5.5,0,0,0,5.27,8.58Zm1.42-1A11.56,11.56,0,0,0,9,7.77,3,3,0,0,0,8.4,8a2.18,2.18,0,0,1-1.94-.08c-.18-.07-.36-.14-.55-.19A1.19,1.19,0,0,1,6.68,7.54ZM20,4.87l2.14-3.33a1,1,0,0,0,.14-.8,1.06,1.06,0,0,0-.5-.67.5.5,0,0,0-.67.21.55.55,0,0,0,.19.72L19.2,4.33a1.06,1.06,0,0,1-1.43.32h0L19.47,2.7A.5.5,0,1,0,18.72,2l-3.16,3.6a.5.5,0,1,0,.75.66l.75-.85c.1.73.2,1.42.3,2.05.55,3.68.88,6-.42,9.85A28.33,28.33,0,0,0,13.32,16l.53-1.22h.61a.5.5,0,0,0,0-1H12.59a.5.5,0,0,0,0,1h.17l-.41.94a27.64,27.64,0,0,0-2.9-.61l-.88-5A.49.49,0,0,0,8,9.63a.5.5,0,0,0-.41.58l.82,4.71-.2,0c-3.27-.35-4.67,3-5,5a3.46,3.46,0,0,0,.86,2.7,4,4,0,0,0,.37.36H2.15a.5.5,0,1,0,0,1H20.63a.5.5,0,0,0,0-1h-2a3.66,3.66,0,0,0,.93-1.67,3,3,0,0,0-1.68-3.54h0c1.43-4.16,1.06-6.69.5-10.43-.07-.5-.15-1-.23-1.58l.19,0A2,2,0,0,0,20,4.87ZM12.58,19.64a1.43,1.43,0,1,1-1.43-1.43h.08l-.53,1.22a.5.5,0,0,0,.92.4l.54-1.22A1.42,1.42,0,0,1,12.58,19.64Zm6,1.45A2.43,2.43,0,0,1,16.4,23H6.84a2.69,2.69,0,0,1-2-1,2.46,2.46,0,0,1-.63-1.9c0-.19.76-4.53,3.9-4.2a25.93,25.93,0,0,1,3.83.71l-.29.67a2.45,2.45,0,1,0,.91.41l.35-.79a26.92,26.92,0,0,1,4.51,1.8A2,2,0,0,1,18.59,21.09Z"/></svg>