<svg id="Layer_1" data-name="Layer 1" xmlns="http://www.w3.org/2000/svg" viewBox="0 0 24 24"><defs><style>.cls-1{fill:#777;}</style></defs><title>floor-lamp</title><path class="cls-1" d="M18.87,3.12V1.39a.5.5,0,0,0-.5-.5h-6V.47a.5.5,0,0,0-1,0V8.05H5.63a.5.5,0,0,0-.5.5v1.91a3.42,3.42,0,0,0-2.89,3.07.5.5,0,0,0,.5.54H4a1.6,1.6,0,0,0,1.61,1.55l.24,0a1.6,1.6,0,0,0,1.37-1.53H8.53a.5.5,0,0,0,.5-.54,3.41,3.41,0,0,0-2.89-3.07V9.05h5.26V23H7.07a.5.5,0,0,0,0,1h9.4a.5.5,0,0,0,0-1H12.39V1.89h5.48V3.12A3.42,3.42,0,0,0,15,6.19a.5.5,0,0,0,.5.54h1.29a1.6,1.6,0,0,0,1.61,1.55l.24,0A1.6,1.6,0,0,0,20,6.73h1.29a.5.5,0,0,0,.5-.54A3.41,3.41,0,0,0,18.87,3.12ZM6.13,14.38a.61.61,0,0,1-.4.24.63.63,0,0,1-.46-.12A.58.58,0,0,1,5,14.08H6.24A.6.6,0,0,1,6.13,14.38Zm1.79-1.3H3.35a2.4,2.4,0,0,1,4.57,0ZM18.86,7a.61.61,0,0,1-.4.24A.63.63,0,0,1,18,7.15a.58.58,0,0,1-.22-.42H19A.6.6,0,0,1,18.86,7Zm-2.78-1.3a2.4,2.4,0,0,1,4.57,0Z"/></svg>