<svg id="Layer_1" data-name="Layer 1" xmlns="http://www.w3.org/2000/svg" viewBox="0 0 24 24"><defs><style>.cls-1{fill:#777;}</style></defs><title>flower-planters</title><path class="cls-1" d="M23.5,21h-2l.75-6.66a.5.5,0,0,0-.5-.56H19.91a5.43,5.43,0,0,0,1.48-2.55.5.5,0,0,0-.4-.62,7,7,0,0,0-3.29.17,11.44,11.44,0,0,1,.6-1.88,1.38,1.38,0,0,0,.75.39l.23,0a1.36,1.36,0,0,0,.83-.28,1.4,1.4,0,0,0,2.24-1.12,1.32,1.32,0,0,0,0-.18,1.38,1.38,0,0,0,.34-.21,1.4,1.4,0,0,0-.34-2.38,1.39,1.39,0,0,0-.12-.76,1.39,1.39,0,0,0-2.11-.53A1.4,1.4,0,0,0,17.89,5a1.31,1.31,0,0,0,0,.18,1.4,1.4,0,0,0-.35,2.38,1.39,1.39,0,0,0,.25.15,10.85,10.85,0,0,0-1,2.62,1.4,1.4,0,0,0-.25-.15,1.39,1.39,0,0,0-.12-.76,1.39,1.39,0,0,0-2.11-.53A1.4,1.4,0,0,0,12.09,10a1.32,1.32,0,0,0,0,.18,1.4,1.4,0,0,0,0,2.58,1.32,1.32,0,0,0,0,.18,1.39,1.39,0,0,0,.3.86H6.79A11.79,11.79,0,0,1,7.46,10a2.2,2.2,0,0,0,1.15.36l.28,0A2.66,2.66,0,0,0,10.6,9.13a.5.5,0,0,0-.23-.71A5,5,0,0,0,8.3,8l.2-.37a1.38,1.38,0,0,0,.15.05,1.36,1.36,0,0,0,1.07-.26,1.39,1.39,0,0,0,2.11-.53,1.39,1.39,0,0,0,.12-.76,1.4,1.4,0,0,0,0-2.58,1.39,1.39,0,0,0-.12-.76,1.39,1.39,0,0,0-2.11-.53A1.4,1.4,0,0,0,7.47,3.38a1.31,1.31,0,0,0,0,.18,1.42,1.42,0,0,0-.34.21,1.4,1.4,0,0,0,.34,2.38,1.31,1.31,0,0,0,0,.18,1.38,1.38,0,0,0,.22.72,16,16,0,0,0-1.53,3.87,9.77,9.77,0,0,0-.77-1.71,1.4,1.4,0,0,0-.08-2.54,1.39,1.39,0,0,0,0-.18A1.4,1.4,0,0,0,3.08,5.38,1.39,1.39,0,0,0,1,5.92a1.39,1.39,0,0,0-.12.76A1.4,1.4,0,0,0,.51,9.06a1.38,1.38,0,0,0,.34.21,1.32,1.32,0,0,0,0,.18A1.37,1.37,0,0,0,2,10.82a1.37,1.37,0,0,0,1.07-.26,1.36,1.36,0,0,0,.83.28l.23,0a1.38,1.38,0,0,0,.75-.39,13.17,13.17,0,0,1,.87,3.37H2.27a.5.5,0,0,0-.5.56L2.52,21H.5a.5.5,0,1,0,0,1h23a.5.5,0,0,0,0-1ZM18.19,6.16a.4.4,0,0,1,.32-.08A.5.5,0,0,0,19,5.84.5.5,0,0,0,19,5.26a.4.4,0,0,1-.1-.26.37.37,0,0,1,.33-.39.37.37,0,0,1,.43.27.5.5,0,0,0,1,0A.39.39,0,0,1,21,4.6a.4.4,0,0,1,.29.66.5.5,0,0,0,.48.82.38.38,0,0,1,.32.08.4.4,0,0,1,0,.62.37.37,0,0,1-.33.08.5.5,0,0,0-.47.82.39.39,0,0,1,.1.26.39.39,0,0,1-.76.12.52.52,0,0,0-1,0,.37.37,0,0,1-.43.27.39.39,0,0,1-.3-.54l.1-.15a.49.49,0,0,0,.08-.22.45.45,0,0,0,0-.05.49.49,0,0,0-.05-.25h0a.5.5,0,0,0-.14-.15h0l-.06,0a.49.49,0,0,0-.16,0h-.14a.39.39,0,0,1-.33-.08.4.4,0,0,1,0-.62Zm-8.9,3a1.18,1.18,0,0,1-.55.25,1.19,1.19,0,0,1-.82-.23l.1,0A2.28,2.28,0,0,1,9.3,9.12ZM7.63,4.86a.4.4,0,0,1,.15-.31.37.37,0,0,1,.33-.08.5.5,0,0,0,.47-.82.39.39,0,0,1-.1-.26.39.39,0,0,1,.76-.12.52.52,0,0,0,1,0A.39.39,0,0,1,10.55,3a.4.4,0,0,1,.29.66.5.5,0,0,0,.48.82.37.37,0,0,1,.32.08.4.4,0,0,1,0,.62.37.37,0,0,1-.32.08.5.5,0,0,0-.48.82.39.39,0,1,1-.66.39.5.5,0,0,0-1,0,.39.39,0,0,1-.76-.12.39.39,0,0,1,.1-.26.5.5,0,0,0-.47-.82.38.38,0,0,1-.33-.08A.4.4,0,0,1,7.63,4.86ZM5,8.28a.4.4,0,0,1-.33.08h0a.49.49,0,0,0-.27,0l-.05,0-.06,0a.5.5,0,0,0-.14.15h0a.49.49,0,0,0-.05.25.45.45,0,0,0,0,.05.49.49,0,0,0,.08.22l.1.15a.39.39,0,0,1-.3.54.37.37,0,0,1-.43-.27.5.5,0,0,0-1,0,.37.37,0,0,1-.43.27.37.37,0,0,1-.33-.39.39.39,0,0,1,.1-.26.5.5,0,0,0-.47-.82.37.37,0,0,1-.33-.08.4.4,0,0,1,0-.62.39.39,0,0,1,.32-.08.5.5,0,0,0,.48-.82.4.4,0,0,1,.29-.66.39.39,0,0,1,.37.27.5.5,0,0,0,1,0A.37.37,0,0,1,4,6.11a.37.37,0,0,1,.33.39.4.4,0,0,1-.1.26.5.5,0,0,0,.48.82A.39.39,0,0,1,5,7.66a.4.4,0,0,1,0,.62Zm15.22,3.27c-.26.65-.74,1.54-1.4,1.74A1.38,1.38,0,0,1,17.72,13a5.35,5.35,0,0,1,1.35-.27.5.5,0,0,0,.47-.53.5.5,0,0,0-.53-.47,6.55,6.55,0,0,0-1.38.25A3.88,3.88,0,0,1,20.24,11.55Zm-3.76,1.8h0v0h0a5.06,5.06,0,0,0,.52.41h-.78a1.41,1.41,0,0,0,.18-.28A1.38,1.38,0,0,0,16.49,13.35Zm-4.25-1.88a.4.4,0,0,1,.15-.31.37.37,0,0,1,.32-.08.5.5,0,0,0,.47-.82.4.4,0,0,1-.1-.26.39.39,0,0,1,.76-.12.5.5,0,0,0,.48.34h0a.5.5,0,0,0,.47-.34.39.39,0,1,1,.66.39.5.5,0,0,0,.48.82.37.37,0,0,1,.32.08.4.4,0,0,1,0,.62.38.38,0,0,1-.32.08.5.5,0,0,0-.48.82.39.39,0,1,1-.66.39.5.5,0,0,0-.47-.34h0a.5.5,0,0,0-.48.34.37.37,0,0,1-.43.27.37.37,0,0,1-.33-.39.4.4,0,0,1,.1-.26.5.5,0,0,0-.47-.82.38.38,0,0,1-.32-.08A.4.4,0,0,1,12.24,11.47ZM20.47,21H3.53l-.7-6.21H21.17ZM9.71,6.1A1.24,1.24,0,1,0,8.47,4.86,1.24,1.24,0,0,0,9.71,6.1Zm0-1.49a.24.24,0,0,1,.24.24c0,.27-.48.27-.48,0A.24.24,0,0,1,9.71,4.61ZM3.08,6.73A1.24,1.24,0,1,0,4.32,8,1.24,1.24,0,0,0,3.08,6.73ZM2.85,8a.24.24,0,1,1,.48,0C3.32,8.24,2.85,8.24,2.85,8Zm11.48,4.74a1.24,1.24,0,1,0-1.24-1.24A1.24,1.24,0,0,0,14.33,12.71Zm0-1.49a.24.24,0,0,1,.24.24c0,.27-.48.27-.48,0A.24.24,0,0,1,14.33,11.23Zm5.8-3.51a1.24,1.24,0,1,0-1.24-1.24A1.24,1.24,0,0,0,20.13,7.72Zm0-1.49a.24.24,0,0,1,.24.24c0,.27-.48.27-.48,0A.24.24,0,0,1,20.13,6.23Z"/></svg>