<svg id="Layer_1" data-name="Layer 1" xmlns="http://www.w3.org/2000/svg" viewBox="0 0 24 24"><defs><style>.cls-1{fill:#777;}</style></defs><title>folding-bed</title><path class="cls-1" d="M23.89,14.23l-1-3.16.26-.1a.5.5,0,0,0-.06-1L7.25,6.37a.51.51,0,0,0-.26,0l-6.57,2a.5.5,0,0,0,0,1l.46.12L.34,11.63a.5.5,0,0,0,.48.63.51.51,0,0,0,.19,0l4.21-1.68,2.32.58v3.27a.5.5,0,0,0,.5.5.51.51,0,0,0,.19,0l5.35-2.21,1.7.43a.47.47,0,0,0,0,.06l1.19,4.16a.5.5,0,0,0,.48.36.49.49,0,0,0,.2,0l6.46-2.76A.5.5,0,0,0,23.89,14.23ZM7.16,7.37l14,3.24-4.68,1.73L2.44,8.8Zm-5.6,3.54.32-1.23,1.69.43Zm7,2.72V11.37l3.42.86Zm8.74,2.83-.89-3.12h0l.12,0a.5.5,0,0,0,.17,0l5.2-1.92.88,2.69Z"/></svg>