<svg id="Layer_1" data-name="Layer 1" xmlns="http://www.w3.org/2000/svg" viewBox="0 0 24 24"><defs><style>.cls-1{fill:#777;}</style></defs><title>folding-table</title><path class="cls-1" d="M23.8,7.06l0,0A.49.49,0,0,0,23.5,7H5.16a.5.5,0,0,0-.3.1L.2,10.54v0a.49.49,0,0,0-.15.22.46.46,0,0,0,0,0,.48.48,0,0,0,0,.12v5.6a.5.5,0,0,0,1,0v-5.1H4.63v1.22a.5.5,0,0,0,1,0V11.44h14v5.1a.5.5,0,0,0,1,0V11.18L23,8.69v4a.5.5,0,0,0,1,0V7.45A.49.49,0,0,0,23.8,7.06ZM5.33,8h7.09l-2.07,2.39a.48.48,0,0,0-.05.1H2Zm14.59,2.49H11.58L13.74,8h8.58Z"/></svg>