<svg id="Layer_1" data-name="Layer 1" xmlns="http://www.w3.org/2000/svg" viewBox="0 0 24 24"><defs><style>.cls-1{fill:#777;}</style></defs><title>folding-chair </title><path class="cls-1" d="M12,15c-4.13,0-7.78-.88-9.52-2.29a.5.5,0,0,1,.63-.78C4.66,13.16,8.15,14,12,14s7.34-.81,8.89-2.06a.5.5,0,1,1,.63.78C19.78,14.1,16.13,15,12,15Z"/><path class="cls-1" d="M5.73,24a.5.5,0,0,1-.31-.89L18,13.33a.5.5,0,1,1,.62.79L6,23.89A.5.5,0,0,1,5.73,24Z"/><path class="cls-1" d="M18.27,24a.5.5,0,0,1-.31-.11L5.42,14.12A.5.5,0,1,1,6,13.33l12.54,9.78a.5.5,0,0,1-.31.89Z"/><path class="cls-1" d="M17.45,12.35h0a.5.5,0,0,1-.48-.52l.32-8.65A2.11,2.11,0,0,0,15.16,1H8.84A2.11,2.11,0,0,0,6.73,3.19L7,11.83a.5.5,0,0,1-.48.52.51.51,0,0,1-.52-.48L5.73,3.22A3.11,3.11,0,0,1,8.84,0h6.33a3.11,3.11,0,0,1,3.11,3.22l-.32,8.65A.5.5,0,0,1,17.45,12.35Z"/></svg>