<svg id="Layer_1" data-name="Layer 1" xmlns="http://www.w3.org/2000/svg" viewBox="0 0 24 24"><defs><style>.cls-1{fill:#777;}</style></defs><title>food-cart</title><path class="cls-1" d="M23.5,6.89H13.66A4.44,4.44,0,0,0,9.75,3V2a.5.5,0,0,0-1,0V3A4.44,4.44,0,0,0,4.83,6.89H.5a.5.5,0,0,0,0,1h.7V13s0,0,0,0,0,0,0,0v5s0,0,0,0,0,0,0,0v1.72H1.1a.5.5,0,0,0,0,1H2.44V22a.5.5,0,0,0,1,0V20.82h17V22a.5.5,0,0,0,1,0V20.82h1.4a.5.5,0,0,0,0-1h-.28V7.89h.94a.5.5,0,0,0,0-1Zm-14.25-3a3.46,3.46,0,0,1,3.41,3H5.83A3.46,3.46,0,0,1,9.25,3.92Zm12.32,15.9H2.2V18.55H21.56Zm0-2.26H2.2v-4H21.56Zm-8.65-5.18V10.81a.14.14,0,0,1,.13-.13h6a.13.13,0,0,1,.13.13v1.56a.13.13,0,0,1-.13.13H13A.14.14,0,0,1,12.91,12.37Zm8.65.13H20.12a1.07,1.07,0,0,0,0-.13V10.81A1.13,1.13,0,0,0,19,9.67H13a1.14,1.14,0,0,0-1.13,1.13v1.56a1.07,1.07,0,0,0,0,.13H2.2V7.89H21.56Z"/></svg>