<svg id="Layer_1" data-name="Layer 1" xmlns="http://www.w3.org/2000/svg" viewBox="0 0 24 24"><defs><style>.cls-1{fill:#777;}</style></defs><title>gardenchair</title><path class="cls-1" d="M23.85,17.89,20,14a.5.5,0,0,0-.35-.15H7.93s0,0,0,0V12.54H15.1a.5.5,0,0,0,0-1H7.44a.5.5,0,0,0-.5.5v1.81s0,0,0,0H6l-5-9.78a.5.5,0,0,0-.89.46L5.24,14.62a.5.5,0,0,0,.44.27H7a.48.48,0,0,0,.1.08l4.21,2.12L7.12,19.22a.5.5,0,1,0,.45.89l4.87-2.46,4.87,2.46a.5.5,0,1,0,.45-.89l-4.21-2.12L17.77,15a.48.48,0,0,0,.1-.08h1.57l3.71,3.71a.5.5,0,0,0,.71-.71ZM12.44,16.53,9.19,14.89H15.7Z"/></svg>