<svg id="Layer_1" data-name="Layer 1" xmlns="http://www.w3.org/2000/svg" viewBox="0 0 24 24"><defs><style>.cls-1{fill:#777;}</style></defs><title>grand-piano-big</title><path class="cls-1" d="M24.21,14a.5.5,0,0,0-.08-.27L22.7,11.52a1.13,1.13,0,0,0,.12-.49V8.42a1.09,1.09,0,0,0,0-.22.5.5,0,0,0-.09-.54L16,.37l0,0L15.93.29l-.08,0-.09,0h-.19l-.09,0h0L1.5,7.55A.5.5,0,0,0,1.24,8a.54.54,0,0,0,0,.07,1.12,1.12,0,0,0-.07.36V11a1.13,1.13,0,0,0,.12.49L-.13,13.78A.5.5,0,0,0-.21,14a.5.5,0,0,0,0,.07s0,.06,0,.09v1.61A1.15,1.15,0,0,0,.94,17h.32a.49.49,0,0,0,0,.15V23.5a.5.5,0,0,0,1,0V17.13a.49.49,0,0,0,0-.15H9.45a.49.49,0,0,0,0,.15V23h-1a.5.5,0,1,0,0,1H15.6a.5.5,0,0,0,0-1H14.08V17.13a.49.49,0,0,0,0-.15h7.74a.49.49,0,0,0,0,.15V23.5a.5.5,0,0,0,1,0V17.13a.49.49,0,0,0,0-.15h.32a1.15,1.15,0,0,0,1.15-1.15V14.22s0-.06,0-.09A.5.5,0,0,0,24.21,14ZM15.56,1.33,21,7.26H4.21ZM2.18,11V8.42a.15.15,0,0,1,.15-.15H21.67a.16.16,0,0,1,.15.15V11a.16.16,0,0,1-.15.15H2.33A.15.15,0,0,1,2.18,11Zm.15,1.15H21.67a1.1,1.1,0,0,0,.24,0l.59.93h-21l.59-.93A1.1,1.1,0,0,0,2.33,12.18Zm10.75,4.94V23H10.42V17.13a.49.49,0,0,0,0-.15h2.72A.49.49,0,0,0,13.08,17.13Zm10.13-1.3a.15.15,0,0,1-.15.15H.94a.15.15,0,0,1-.15-.15V14.22a.14.14,0,0,1,0-.07l0,0a.15.15,0,0,1,.1,0H23.06a.15.15,0,0,1,.1,0l0,0a.14.14,0,0,1,0,.07Z"/></svg>