<svg id="Layer_1" data-name="Layer 1" xmlns="http://www.w3.org/2000/svg" viewBox="0 0 24 24"><defs><style>.cls-1{fill:#777;}</style></defs><title>grandfather-clock</title><path class="cls-1" d="M11.21,10.57a4.19,4.19,0,0,0,.78.07,4.05,4.05,0,1,0-.78-.07ZM9.82,4.38A3,3,0,0,1,12,3.48a3.27,3.27,0,0,1,.61.06,3.09,3.09,0,1,1-2.79.84Zm4.4,7.12H9.78a1.86,1.86,0,0,0-1.86,1.86v5.78A1.86,1.86,0,0,0,9.78,21h4.45a1.86,1.86,0,0,0,1.86-1.86V13.36A1.86,1.86,0,0,0,14.22,11.5Zm-1.84,4.87a.93.93,0,0,1,.54.54,1,1,0,0,1-1.31,1.31.92.92,0,0,1-.54-.54,1,1,0,0,1,.22-1.09,1,1,0,0,1,.7-.29A1.14,1.14,0,0,1,12.39,16.37Zm2.69,2.77a.86.86,0,0,1-.86.86H9.78a.86.86,0,0,1-.86-.86V13.36a.86.86,0,0,1,.86-.86H11.5v2.87a2,2,0,0,0-.91.51A2,2,0,0,0,10.13,18a1.92,1.92,0,0,0,1.13,1.13,2.13,2.13,0,0,0,.73.13,2,2,0,0,0,1.41-.58,2,2,0,0,0,.45-2.14,1.92,1.92,0,0,0-1.13-1.13,2.07,2.07,0,0,0-.23,0V12.5h1.72a.86.86,0,0,1,.86.86Zm3.37,2.38h-.06V12a.49.49,0,0,0,0-.17A7.73,7.73,0,0,1,18,8.39l.44-4A4.35,4.35,0,0,0,14,0H10A4.36,4.36,0,0,0,5.61,4.4l.44,4a7.73,7.73,0,0,1-.37,3.35l0,.12a.51.51,0,0,0,0,.16v9.52H5.55a1.24,1.24,0,0,0,0,2.48H18.45a1.24,1.24,0,1,0,0-2.48ZM6.61,12.09v0A8.73,8.73,0,0,0,7,8.26L6.61,4.35A3.35,3.35,0,0,1,10,1H14A3.35,3.35,0,0,1,17.4,4.29l-.44,4a8.74,8.74,0,0,0,.43,3.8v9.43H6.61ZM18.45,23H5.55a.24.24,0,0,1,0-.48H18.45a.24.24,0,1,1,0,.48ZM10.25,6.45l1.5.86a.5.5,0,0,0,.66-.15L13.91,5a.5.5,0,1,0-.82-.57L11.85,6.22l-1.1-.63a.5.5,0,1,0-.5.87Z"/></svg>