<svg id="Layer_1" data-name="Layer 1" xmlns="http://www.w3.org/2000/svg" viewBox="0 0 24 24"><defs><style>.cls-1{fill:#777;}</style></defs><title>grand-piano-small</title><path class="cls-1" d="M23.06,8.21h-1.4L15.49,1.42,16.93.65a.5.5,0,1,0-.47-.88L.52,8.26s-.05.05-.08.08a1.15,1.15,0,0,0-.65,1v6.78A1.15,1.15,0,0,0,.94,17.29h.89V23.5a.5.5,0,0,0,1,0V17.29H9.42V23h-1a.5.5,0,1,0,0,1H15.6a.5.5,0,1,0,0-1H14.08V17.29h6.63V23.5a.5.5,0,0,0,1,0V17.29h1.35a1.15,1.15,0,0,0,1.15-1.15V9.36A1.15,1.15,0,0,0,23.06,8.21Zm.15,1.15V11.5H.79V9.36a.15.15,0,0,1,.15-.15H23.06A.15.15,0,0,1,23.21,9.36Zm-3.49,6.93H17.93s0,0,0,0V12.58a.47.47,0,0,0,0-.08h1.8a.47.47,0,0,0,0,.08v3.67S19.71,16.28,19.72,16.29Zm-7.33,0s0,0,0,0V12.58a.47.47,0,0,0,0-.08h1.8a.47.47,0,0,0,0,.08v3.67s0,0,0,0ZM4.07,12.5h1.8a.47.47,0,0,0,0,.08v3.67s0,0,0,0H4.08s0,0,0,0V12.58A.47.47,0,0,0,4.07,12.5Zm2.77,0h1.8a.47.47,0,0,0,0,.08v3.67s0,0,0,0H6.85s0,0,0,0V12.58A.47.47,0,0,0,6.84,12.5Zm2.78,3.79s0,0,0,0V12.58a.47.47,0,0,0,0-.08h1.8a.47.47,0,0,0,0,.08v3.67s0,0,0,0Zm5.53-3.79H17a.47.47,0,0,0,0,.08v3.67s0,0,0,0H15.16s0,0,0,0V12.58A.47.47,0,0,0,15.15,12.5ZM14.63,2,20.3,8.21H2.74L14.59,1.9ZM.79,16.14V12.5H3.1a.47.47,0,0,0,0,.08v3.67s0,0,0,0H.94A.15.15,0,0,1,.79,16.14ZM13.08,23H10.42V17.29h2.66Zm10-6.71H20.7s0,0,0,0V12.58a.47.47,0,0,0,0-.08h2.52v3.64A.15.15,0,0,1,23.06,16.29Z"/></svg>