<svg id="Layer_1" data-name="Layer 1" xmlns="http://www.w3.org/2000/svg" viewBox="0 0 24 24"><defs><style>.cls-1{fill:#787878;}</style></defs><title>grill</title><path class="cls-1" d="M6.73,11.12A4.85,4.85,0,0,0,8,13.25a.5.5,0,1,0,.71-.7,3.84,3.84,0,0,1-1-1.69.5.5,0,0,0-1,.26Zm13.15-.17H18.13a5.83,5.83,0,0,0,.22-1.54.5.5,0,0,0-.5-.5H6.4l8.32-6.42a.5.5,0,0,0,.09-.7C13-.51,9.29-.6,6.47,1.58,3.94,3.53,3,6.64,4.08,8.92a.49.49,0,0,0-.44.49.5.5,0,0,0,.5.5h.33A7.57,7.57,0,0,0,9.23,16L6.76,20.44a1.81,1.81,0,0,0-.59-.11A1.83,1.83,0,1,0,8,22.17s0,0,0,0H15.3L16,23.71a.5.5,0,0,0,.45.29.5.5,0,0,0,.21,0,.5.5,0,0,0,.24-.67L13.53,16a7.66,7.66,0,0,0,4.24-4h2.11a.5.5,0,0,0,0-1ZM6.17,23A.83.83,0,1,1,7,22.17.83.83,0,0,1,6.17,23ZM7.08,2.38A6.34,6.34,0,0,1,10.89,1a4,4,0,0,1,2.79,1L5.06,8.67C4,6.8,4.86,4.09,7.08,2.38Zm7.76,18.76H7.68L7.58,21l2.64-4.78a5.66,5.66,0,0,0,2.32,0ZM11.4,15.36A6.31,6.31,0,0,1,5.47,9.91H17.32A6.31,6.31,0,0,1,11.4,15.36Z"/></svg>