<svg id="Layer_1" data-name="Layer 1" xmlns="http://www.w3.org/2000/svg" viewBox="0 0 24 24"><defs><style>.cls-1{fill:#777;}</style></defs><title>house-bar-counter</title><path class="cls-1" d="M22.69,4.25H1.31a1.31,1.31,0,0,0,0,2.63h.25V19.25a.5.5,0,0,0,.5.5H21.94a.5.5,0,0,0,.5-.5V6.87h.25a1.31,1.31,0,0,0,0-2.63ZM21.44,18.75H17.55V10.83h2a1.42,1.42,0,1,0,0-2.84h-5a1.42,1.42,0,1,0,0,2.84h2v7.92H7.48V10.83h2A1.42,1.42,0,1,0,9.46,8h-5a1.42,1.42,0,1,0,0,2.84h2v7.92H2.56V6.87H21.44ZM14.57,9.83a.42.42,0,1,1,0-.84h5a.42.42,0,1,1,0,.84Zm-10.07,0a.42.42,0,1,1,0-.84h5a.42.42,0,1,1,0,.84Zm18.19-4H1.31a.31.31,0,0,1,0-.63H22.69a.31.31,0,0,1,0,.63Z"/></svg>