<svg xmlns="http://www.w3.org/2000/svg" xmlns:xlink="http://www.w3.org/1999/xlink" width="256" height="256" viewBox="0 0 256 256">
  <defs>
    <rect id="ic_baby_buggy-a" width="256" height="256"/>
  </defs>
  <g fill="none" fill-rule="evenodd">
    <mask id="ic_baby_buggy-b" fill="#fff">
      <use xlink:href="#ic_baby_buggy-a"/>
    </mask>
    <use fill="#FFF" opacity=".01" xlink:href="#ic_baby_buggy-a"/>
    <g fill="#777" stroke="#777" stroke-width="2.8" mask="url(#ic_baby_buggy-b)">
      <g transform="translate(21 32)">
        <path d="M178.888889,99.6416242 C178.888889,112.734115 175.246711,130.019065 158.924889,139.770467 C153.322089,135.556545 146.431289,132.952356 138.882178,132.952356 C129.114844,132.952356 120.392222,137.230667 114.267067,143.912846 L65.1370222,143.912846 C59.0047111,137.230667 50.2820889,132.952356 40.5147556,132.952356 C34.9119556,132.952356 29.7027111,134.469082 25.0516,136.915875 C14.3039556,127.515037 7.15555556,112.848585 7.15555556,99.6416242 L7.15555556,86.4918982 L178.888889,86.4918982 L178.888889,87.386194 L178.888889,99.6416242 Z M138.882178,192.77717 C124.363556,192.77717 112.549733,180.958157 112.549733,166.441947 C112.549733,151.925736 124.363556,140.106723 138.882178,140.106723 C153.4008,140.106723 165.221778,151.925736 165.221778,166.441947 C165.221778,180.958157 153.4008,192.77717 138.882178,192.77717 L138.882178,192.77717 Z M40.5147556,192.77717 C25.9961333,192.77717 14.1751556,180.958157 14.1751556,166.441947 C14.1751556,151.925736 25.9961333,140.106723 40.5147556,140.106723 C55.0333778,140.106723 66.8543556,151.925736 66.8543556,166.441947 C66.8543556,180.958157 55.0333778,192.77717 40.5147556,192.77717 L40.5147556,192.77717 Z M205.872489,28.7346955 L202.867156,28.7346955 C190.967467,28.7346955 178.888889,41.3621528 178.888889,50.4481985 L178.888889,79.3375314 L3.57777778,79.3375314 C1.60284444,79.3375314 0,80.9401096 0,82.9147148 L0,99.6416242 C0,114.465472 7.35591111,130.226542 18.9407556,141.03679 C11.7136444,147.189546 7.0196,156.225511 7.0196,166.441947 C7.0196,184.907367 22.0462667,199.931537 40.5147556,199.931537 C58.9832444,199.931537 74.0099111,184.907367 74.0099111,166.441947 C74.0099111,160.875849 72.5144,155.696088 70.0958222,151.067212 L109.301111,151.067212 C106.882533,155.696088 105.394178,160.875849 105.394178,166.441947 C105.394178,184.907367 120.413689,199.931537 138.882178,199.931537 C157.350667,199.931537 172.377333,184.907367 172.377333,166.441947 C172.377333,158.192962 169.257511,150.723803 164.291556,144.878685 C178.316444,135.656706 186.044444,119.831247 186.044444,99.6416242 L186.044444,87.386194 L186.044444,82.9147148 L186.044444,50.4481985 C186.044444,45.3900612 194.953111,35.8890622 202.867156,35.8890622 L205.872489,35.8890622 C207.847422,35.8890622 209.450267,34.286484 209.450267,32.3118788 C209.450267,30.3301192 207.847422,28.7346955 205.872489,28.7346955 L205.872489,28.7346955 Z"/>
        <path d="M10.60024 71.5335482C12.5751733 71.5335482 14.1780178 69.93097 14.1780178 67.9563648L14.1780178 60.9522398C14.1780178 32.1201418 34.6715289 7.76667741 58.9288622 7.76667741L64.8608178 7.76667741C52.0809956 17.9115694 43.3440622 37.9938769 43.3440622 61.0667096L43.3440622 68.0708347C43.3440622 70.0454399 44.9469067 71.648018 46.92184 71.648018 48.9039289 71.648018 50.4996178 70.0454399 50.4996178 68.0708347L50.4996178 61.0667096C50.4996178 32.2346117 65.7337956 7.88114728 83.7657956 7.88114728 83.9589956 7.88114728 84.1235733 7.79529488 84.3167733 7.76667741L99.8085511 7.76667741C87.0287289 17.9115694 78.2917956 37.9938769 78.2917956 61.0667096L78.2917956 68.0708347C78.2917956 70.0454399 79.89464 71.648018 81.8695733 71.648018 83.8445067 71.648018 85.4473511 70.0454399 85.4473511 68.0708347L85.4473511 61.0667096C85.4473511 32.2346117 100.681529 7.88114728 118.706373 7.88114728 120.688462 7.88114728 122.284151 6.27856913 122.284151 4.30396391 122.284151 2.67992266 121.196507 1.36351917 119.722462.927102804 119.278818.733934902 118.79224.612310667 118.27704.612310667L58.9288622.612310667C30.7932178.612310667 7.02246222 28.242475 7.02246222 60.9522398L7.02246222 67.9563648C7.02246222 69.93097 8.62530667 71.5335482 10.60024 71.5335482M37.9931378 163.925756C37.3491378 164.569649 36.92696 165.499716 36.92696 166.436938 36.92696 167.359852 37.2775822 168.289919 37.9931378 168.933812 38.6371378 169.649249 39.5745156 170.014122 40.5047378 170.014122 41.4278044 170.014122 42.3580267 169.649249 43.0735822 168.933812 43.7175822 168.289919 44.0825156 167.359852 44.0825156 166.436938 44.0825156 165.499716 43.7175822 164.569649 43.0020267 163.854212 41.7211822 162.63797 39.3526933 162.57358 37.9931378 163.925756M136.311902 163.925756C135.667902 164.648347 135.310124 165.499716 135.310124 166.436938 135.310124 167.359852 135.667902 168.22553 136.311902 168.933812 137.027458 169.649249 137.95768 170.014122 138.887902 170.014122 139.818124 170.014122 140.748347 169.649249 141.392347 168.933812 142.107902 168.289919 142.46568 167.359852 142.46568 166.436938 142.46568 165.499716 142.107902 164.569649 141.392347 163.854212 140.032791 162.57358 137.743013 162.57358 136.311902 163.925756"/>
      </g>
    </g>
  </g>
</svg>
