<svg xmlns="http://www.w3.org/2000/svg" xmlns:xlink="http://www.w3.org/1999/xlink" width="256" height="256" viewBox="0 0 256 256">
  <defs>
    <rect id="ic_ball_path-a" width="256" height="256"/>
  </defs>
  <g fill="none" fill-rule="evenodd">
    <mask id="ic_ball_path-b" fill="#fff">
      <use xlink:href="#ic_ball_path-a"/>
    </mask>
    <use fill="#FFF" fill-rule="nonzero" opacity=".01" xlink:href="#ic_ball_path-a"/>
    <g fill="#777" mask="url(#ic_ball_path-b)">
      <g transform="translate(38 5)">
        <path fill-rule="nonzero" d="M176.206568,8 L4.7934322,8 C2.1460927,8 0,10.1453022 0,12.7916667 L0,213.275 L0,232.441667 C0,235.088031 2.1460927,237.233333 4.7934322,237.233333 C7.44077171,237.233333 9.58686441,235.088031 9.58686441,232.441667 L9.58686441,210.066667 L171.413136,218.066667 L171.413136,233.208333 C171.413136,235.854698 173.559228,238 176.206568,238 C178.853907,238 181,235.854698 181,233.208333 L181,213.466667 L181,12.7916667 C181,10.1453022 178.853907,8 176.206568,8 Z M9.58686441,67.9916667 L171.706568,59.9916667 L171.706568,108.433333 L9.58686441,100.433333 L9.58686441,67.9916667 Z M9.58686441,110.016667 L171.706568,118.016667 L171.706568,150.458333 L9.58686441,158.458333 L9.58686441,110.016667 Z M171.706568,17.5833333 L171.706568,50.4083333 L9.58686441,58.4083333 L9.58686441,17.5833333 L171.706568,17.5833333 Z M9.58686441,168.041667 L171.706568,160.041667 L171.706568,208.483333 L9.58686441,200.483333 L9.58686441,168.041667 Z" transform="matrix(1 0 0 -1 0 246)"/>
        <path stroke="#777" stroke-width="3.5" d="M51.1121387,29.112207 C48.010332,32.213877 43.8864844,33.9221094 39.4999316,33.9221094 C35.1134473,33.9221094 30.9895996,32.213877 27.887793,29.112207 C24.7861914,26.0104688 23.077959,21.8866211 23.077959,17.5 C23.077959,13.1134473 24.7861914,8.98966797 27.8878613,5.88792969 C30.9895996,2.78625977 35.1134473,1.07802734 39.4999316,1.07802734 C43.8864844,1.07802734 48.010332,2.78625977 51.1121387,5.88792969 C54.2138086,8.98966797 55.922041,13.1135156 55.922041,17.5001367 C55.922041,21.8866895 54.2138086,26.0104688 51.1121387,29.112207 Z M51.8744141,5.1256543 C48.5690332,1.82041016 44.1744141,6.8359375e-05 39.4999316,6.8359375e-05 C34.8255859,6.8359375e-05 30.4308984,1.82041016 27.1255176,5.1256543 C23.8203418,8.43103516 22,12.8256543 22,17.5 C22,22.1744141 23.8203418,26.5691016 27.1255859,29.8743457 C30.4309668,33.1796582 34.8255859,35 39.5000684,35 C44.1744824,35 48.5690332,33.1796582 51.8744141,29.8743457 C55.1796582,26.5690332 57,22.1744141 57,17.5 C57,12.8256543 55.1796582,8.43103516 51.8744141,5.1256543 L51.8744141,5.1256543 Z"/>
        <path stroke="#777" stroke-linecap="round" stroke-linejoin="round" stroke-width="3.5" d="M28.6941146,15.1666667 L27.6161556,15.1666667 C27.6161556,23.0060514 33.9939486,29.3839128 41.8334017,29.3839128 L41.8334017,28.3059538 C34.5883333,28.3059538 28.6941146,22.4116667 28.6941146,15.1666667"/>
      </g>
    </g>
  </g>
</svg>
