<svg xmlns="http://www.w3.org/2000/svg" xmlns:xlink="http://www.w3.org/1999/xlink" width="256" height="256" viewBox="0 0 256 256">
  <defs>
    <rect id="ic_children_chair-a" width="256" height="256"/>
  </defs>
  <g fill="none" fill-rule="evenodd">
    <mask id="ic_children_chair-b" fill="#fff">
      <use xlink:href="#ic_children_chair-a"/>
    </mask>
    <use fill="#FFF" opacity=".01" xlink:href="#ic_children_chair-a"/>
    <g fill="#777" mask="url(#ic_children_chair-b)">
      <path d="M73.3334766,36.6665234 C75.5515234,36.6665234 77.7240234,37.5190234 79.4290234,39.0590234 C81.18,40.6265234 83.82,40.6265234 85.5709766,39.0590234 C87.2759766,37.5190234 89.4484766,36.6665234 91.6665234,36.6665234 C96.7265234,36.6665234 100.833477,40.7825 100.833477,45.8334766 C100.833477,51.0859766 89.32,64.5790234 82.5,71.5365234 C75.68,64.57 64.1665234,51.0859766 64.1665234,45.8334766 C64.1665234,40.7825 68.2734766,36.6665234 73.3334766,36.6665234 Z M79.4290234,81.3265234 C80.3090234,82.1059766 81.4,82.5 82.5,82.5 C83.6,82.5 84.6909766,82.1059766 85.5709766,81.3265234 C85.8090234,81.1065234 110,58.3090234 110,45.8334766 C110,35.7225 101.7775,27.5 91.6665234,27.5 C88.4309766,27.5 85.2865234,28.3709766 82.5,30.0025 C79.7134766,28.3709766 76.5690234,27.5 73.3334766,27.5 C63.2225,27.5 55,35.7225 55,45.8334766 C55,58.3090234 79.1909766,81.1065234 79.4290234,81.3265234 Z M18.3334766,137.5 C13.2734766,137.5 9.16652344,133.384023 9.16652344,128.333477 C9.16652344,123.2825 13.2734766,119.166523 18.3334766,119.166523 L146.666523,119.166523 C151.726523,119.166523 155.833477,123.2825 155.833477,128.333477 C155.833477,133.384023 151.726523,137.5 146.666523,137.5 L18.3334766,137.5 Z M144.063477,189.09 C145.759023,191.464023 146.666523,194.223477 146.666523,197.083477 C146.666523,204.664023 140.4975,210.833477 132.916523,210.833477 C126.701523,210.833477 121.256523,206.598477 119.661523,200.539023 C119.615977,200.319023 119.5425,200.1175 119.46,199.915977 L103.546523,146.666523 L120.660977,146.666523 L144.063477,189.09 Z M45.54,199.8975 C45.4575,200.099023 45.3840234,200.319023 45.3290234,200.53 C43.7434766,206.598477 38.2984766,210.833477 32.0834766,210.833477 C24.5025,210.833477 18.3334766,204.664023 18.3334766,197.083477 C18.3334766,194.2325 19.2409766,191.464023 21.23,188.6225 L44.3390234,146.666523 L61.4534766,146.666523 L45.54,199.8975 Z M18.3334766,22.9165234 C18.3334766,15.3359766 24.5025,9.16652344 32.0834766,9.16652344 L132.916523,9.16652344 C140.4975,9.16652344 146.666523,15.3359766 146.666523,22.9165234 C146.666523,59.895 126.3625,100.1 121.045977,110 L43.9540234,110 C38.6375,100.1 18.3334766,59.895 18.3334766,22.9165234 Z M165,128.333477 C165,118.2225 156.7775,110 146.666523,110 L131.404023,110 C139.04,95.1040234 155.833477,58.3365234 155.833477,22.9165234 C155.833477,10.285 145.5575,0 132.916523,0 L32.0834766,0 C19.4425,0 9.16652344,10.285 9.16652344,22.9165234 C9.16652344,58.3365234 25.96,95.1040234 33.5959766,110 L18.3334766,110 C8.2225,110 0,118.2225 0,128.333477 C0,138.444023 8.2225,146.666523 18.3334766,146.666523 L33.8890234,146.666523 L13.5025,183.736523 C10.6609766,187.678477 9.16652344,192.298477 9.16652344,197.083477 C9.16652344,209.715 19.4425,220 32.0834766,220 C42.2765234,220 51.2234766,213.198477 54.0559766,203.399023 C54.1015234,203.270977 54.1475,203.151523 54.1934766,203.014023 L71.0234766,146.666523 L93.9765234,146.666523 L110.806523,203.014023 C110.8525,203.1425 110.898477,203.270977 110.944023,203.399023 C113.7675,213.198477 122.723477,220 132.916523,220 C145.5575,220 155.833477,209.715 155.833477,197.083477 C155.833477,192.3075 154.339023,187.6875 151.8,184.195 L131.12,146.666523 L146.666523,146.666523 C156.7775,146.666523 165,138.444023 165,128.333477 L165,128.333477 Z" transform="translate(46 18)"/>
    </g>
  </g>
</svg>
