<svg xmlns="http://www.w3.org/2000/svg" xmlns:xlink="http://www.w3.org/1999/xlink" width="256" height="256" viewBox="0 0 256 256">
  <defs>
    <rect id="ic_children_table-a" width="256" height="256"/>
  </defs>
  <g fill="none" fill-rule="evenodd">
    <mask id="ic_children_table-b" fill="#fff">
      <use xlink:href="#ic_children_table-a"/>
    </mask>
    <use fill="#FFF" opacity=".01" xlink:href="#ic_children_table-a"/>
    <g fill="#777" mask="url(#ic_children_table-b)">
      <g transform="translate(8 55)">
        <path d="M17.796199,73.8365043 C12.8394643,73.8365043 8.81632653,69.7953636 8.81632653,64.8366449 C8.81632653,59.8775043 12.8394643,55.8363636 17.796199,55.8363636 L221.877551,55.8363636 C226.834286,55.8363636 230.857423,59.8775043 230.857423,64.8366449 C230.857423,69.7953636 226.834286,73.8365043 221.877551,73.8365043 L17.796199,73.8365043 Z M219.934974,124.979413 C221.595918,127.310273 222.484898,130.019554 222.484898,132.827554 C222.484898,140.270273 216.441773,146.327554 209.01551,146.327554 C202.927347,146.327554 197.593469,142.169554 196.03102,136.220273 C195.986403,136.004273 195.914426,135.806413 195.83361,135.608554 L180.244898,83.3272727 L197.010077,83.3272727 L219.934974,124.979413 Z M45.2635332,135.590413 C45.1827168,135.788273 45.1107398,136.004273 45.0568622,136.211413 C43.5036735,142.169554 38.1697959,146.327554 32.0816327,146.327554 C24.6553699,146.327554 18.6122449,140.270273 18.6122449,132.827554 C18.6122449,130.028413 19.5012245,127.310273 21.4496556,124.520413 L44.0870663,83.3272727 L60.8522449,83.3272727 L45.2635332,135.590413 Z M222.040676,47 L17.959324,47 C8.05469388,47 0,55.073 0,65.0001406 C0,74.9268594 8.05469388,82.9998594 17.959324,82.9998594 L33.1974107,82.9998594 L13.2269388,119.395859 C10.4434056,123.266141 8.97945153,127.802141 8.97945153,132.500141 C8.97945153,144.902 19.0457143,155 31.4287117,155 C41.4137372,155 50.1780995,148.322141 52.9527934,138.700859 C52.9825383,138.617047 58.5229464,120.050047 69.5740179,82.9998594 L170.425982,82.9998594 L186.912513,138.322859 C189.813061,148.322141 198.586263,155 208.571288,155 C220.954286,155 231.020548,144.902 231.020548,132.500141 C231.020548,127.811 229.556594,123.275 227.069388,119.846 L206.811429,82.9998594 L222.040676,82.9998594 C231.945306,82.9998594 240,74.9268594 240,65.0001406 C240,55.073 231.945306,47 222.040676,47 Z"/>
        <path stroke="#777" stroke-width="2" d="M150.933816,5.90681444 C150.933816,4.72545155 151.886124,3.76421839 153.056747,3.76421839 L190.943066,3.76421839 C192.11369,3.76421839 193.065998,4.72545155 193.065998,5.90681444 L193.065998,44.1405264 C193.065998,45.3218893 192.11369,46.2831225 190.943066,46.2831225 L153.056747,46.2831225 C151.886124,46.2831225 150.933816,45.3218893 150.933816,44.1405264 L150.933816,5.90681444 Z M196.395534,46.2833106 C196.652814,45.6185941 196.795996,44.8963052 196.795996,44.1405264 L196.795996,5.90681444 C196.795996,2.64983515 194.17025,0.000188145069 190.943066,0.000188145069 L153.056747,0.000188145069 C149.829563,0.000188145069 147.203817,2.64983515 147.203817,5.90681444 L147.203817,44.1405264 C147.203817,44.8963052 147.346813,45.6185941 147.604093,46.2833106 L196.395534,46.2833106 Z"/>
        <path stroke="#777" d="M169.319449,21.7527263 C169.737601,21.5991741 170.105105,21.3323771 170.380193,20.982326 L172.50024,18.285085 L174.620047,20.9820861 C174.895375,21.3323771 175.262639,21.5989342 175.680791,21.7527263 L178.902149,22.9343588 L176.990938,25.7829927 C176.742495,26.1529576 176.602311,26.5845834 176.585508,27.0296449 L176.456606,30.4569788 L173.155794,29.5203102 C172.727079,29.398668 172.273161,29.398668 171.844206,29.5203102 L168.543154,30.4569788 L168.414252,27.0296449 C168.397449,26.5843434 168.257025,26.1527177 168.008822,25.7829927 L166.097851,22.9343588 L169.319449,21.7527263 Z M163.859223,33.6899732 C163.886828,34.4260642 164.250971,35.1086519 164.847234,35.5417172 C165.443497,35.9745425 166.205389,36.1098604 166.914472,35.908803 L172.50024,34.323856 L178.085768,35.908803 C178.301565,35.9699839 178.522163,35.9999746 178.741321,35.9999746 C179.243008,35.9999746 179.737974,35.8428235 180.152766,35.5417172 C180.749029,35.1086519 181.113172,34.4260642 181.140777,33.6899732 L181.358975,27.8904971 L184.593055,23.0703965 C185.003526,22.4588267 185.110105,21.692745 184.882545,20.9921629 C184.654986,20.2918208 184.117773,19.7344741 183.425973,19.480873 L177.975109,17.481335 L174.388167,12.9174746 C173.933288,12.3380548 173.236928,12 172.5,12 C171.763072,12 171.066952,12.3380548 170.611833,12.9172347 L167.024891,17.4810951 L161.573787,19.4806331 C160.881987,19.7342342 160.345014,20.2915808 160.117455,20.991923 C159.889895,21.6925051 159.996474,22.4585868 160.406945,23.0701565 L163.641025,27.8902572 L163.859223,33.6899732 L163.859223,33.6899732 Z"/>
      </g>
    </g>
  </g>
</svg>
