<svg xmlns="http://www.w3.org/2000/svg" xmlns:xlink="http://www.w3.org/1999/xlink" width="256" height="256" viewBox="0 0 256 256">
  <defs>
    <rect id="ic_children_kitchen-a" width="256" height="256"/>
  </defs>
  <g fill="none" fill-rule="evenodd">
    <mask id="ic_children_kitchen-b" fill="#fff">
      <use xlink:href="#ic_children_kitchen-a"/>
    </mask>
    <use fill="#FFF" opacity=".01" xlink:href="#ic_children_kitchen-a"/>
    <g fill="#777" stroke="#777" mask="url(#ic_children_kitchen-b)">
      <g transform="translate(25 13)">
        <path stroke-width="4.792" d="M133.354034,130.145439 C131.085719,124.014434 126.849351,119.748364 121.424461,118.132848 C116.194759,116.575622 110.510315,117.700429 105.433353,121.209247 C105.048197,119.319405 104.350254,117.540434 103.396758,115.928896 C106.011783,115.649208 108.506425,114.500012 110.415853,112.601348 C113.354277,109.679754 114.51218,105.384626 113.438475,101.390979 C113.272688,100.774696 112.788198,100.292982 112.168365,100.128144 C108.152235,99.0598967 103.831668,100.21186 100.893418,103.133454 C99.0151298,105.000984 97.8654025,107.431177 97.5602698,109.985215 C94.9092342,108.348077 91.784669,107.401599 88.4407352,107.401599 C87.4498369,107.401599 86.6466457,108.20019 86.6466457,109.18524 C86.6466457,110.170982 87.4498369,110.969573 88.4407352,110.969573 C94.5893147,110.969573 99.8068394,115.003347 101.560047,120.547647 C96.7155012,117.505322 91.3892491,116.592399 86.4598085,118.060028 C81.0356147,119.675372 76.7987243,123.941615 74.5304093,130.071755 C72.3287224,136.022874 72.248525,143.058499 74.3033864,149.881893 C76.3591176,156.705979 80.3161,162.538962 85.4452511,166.307058 C90.7294041,170.188795 96.6271276,171.436582 102.052017,169.821239 C102.664196,169.63945 103.269069,169.419089 103.859676,169.164481 C104.503864,169.450915 105.164405,169.695491 105.832252,169.89475 C107.380357,170.355535 108.966386,170.583333 110.565984,170.583333 C114.57272,170.583333 118.662089,169.154276 122.439019,166.380051 C127.568344,162.611954 131.525326,156.778972 133.580883,149.954886 C135.636615,143.131492 135.555721,136.095866 133.354034,130.145439 Z M101.130531,112.365593 C100.816526,109.918968 101.653814,107.423739 103.431551,105.656358 C105.209114,103.888803 107.718717,103.05631 110.179436,103.367825 C110.492571,105.815142 109.656153,108.310198 107.878416,110.077752 C106.100679,111.845307 103.590554,112.677626 101.130531,112.365593 Z M130.142487,148.931264 C128.308386,155.020238 124.815539,160.197847 120.306743,163.509828 C115.952775,166.707824 111.178336,167.761715 106.862467,166.476048 C106.121902,166.255687 105.39195,165.962507 104.692093,165.604464 C104.434453,165.472663 104.152457,165.406417 103.871158,165.406417 C103.595947,165.406417 103.32004,165.469204 103.06727,165.594951 C102.409513,165.923243 101.721138,166.194975 101.022499,166.403055 C91.9172294,169.115012 81.4733078,161.243781 77.7419565,148.85758 C74.0111271,136.472244 78.3840572,124.189477 87.4900226,121.478039 C92.4507767,120.00107 98.0209262,121.631461 102.772402,125.952362 C103.091799,126.244158 103.516445,126.423179 103.984582,126.423179 C104.480727,126.423179 104.930598,126.222537 105.255388,125.898915 C109.974854,121.675395 115.48864,120.090321 120.394943,121.551031 C129.500908,124.263161 133.873839,136.545928 130.142487,148.931264 Z"/>
        <path stroke-width="4.792" d="M93.2737794,128.017284 C92.9896964,127.073401 91.9894041,126.537547 91.0400832,126.820695 C87.2107902,127.960378 84.9385333,131.721194 83.9351572,136.591088 C82.931781,141.460982 84.2743897,146.203678 85.8400647,151.402216 C86.0724804,152.175208 86.7860803,152.675084 87.557958,152.675084 C87.7286166,152.675084 87.9018846,152.650176 88.0737609,152.599497 C89.0230818,152.316349 89.5625438,151.322478 89.2779389,150.378594 C87.9351117,145.91932 86.9897828,142.170385 87.3620717,137.652589 C87.7343606,133.134794 89.3628974,131.044734 92.0696014,130.238706 C93.0189223,129.95625 93.5578624,128.961687 93.2737794,128.017284 Z"/>
        <path stroke-width="1.917" d="M190.364476,0.371967655 L15.6355241,0.371967655 C7.01454819,0.371967655 0,7.38045822 0,15.9939892 L0,198.507978 C0,207.121509 7.01454819,214.13 15.6355241,214.13 L15.8855783,214.13 L15.8855783,222.312668 C15.8855783,226.55062 19.3366988,229.99876 23.5783133,229.99876 L31.5211024,229.99876 C35.7627169,229.99876 39.2138373,226.55062 39.2138373,222.312668 L39.2138373,214.13 L166.786163,214.13 L166.786163,222.312668 C166.786163,226.55062 170.237283,229.99876 174.478898,229.99876 L182.421687,229.99876 C186.663301,229.99876 190.114422,226.55062 190.114422,222.312668 L190.114422,214.13 L190.364476,214.13 C198.985452,214.13 206,207.121509 206,198.507978 L206,15.9939892 C206,7.38045822 198.985452,0.371967655 190.364476,0.371967655 Z M15.6355241,7.81132075 L190.364476,7.81132075 C194.879723,7.81132075 198.554217,11.4826415 198.554217,15.9939892 L198.554217,55.9203774 L7.44578313,55.9203774 L7.44578313,15.9939892 C7.44578313,11.4826415 11.1202771,7.81132075 15.6355241,7.81132075 Z M31.7680542,222.312668 C31.7680542,222.450916 31.656988,222.559407 31.5211024,222.559407 L23.5783133,222.559407 C23.4399458,222.559407 23.3313614,222.450916 23.3313614,222.312668 L23.3313614,214.13 L31.7680542,214.13 L31.7680542,222.312668 Z M182.668639,222.312668 C182.668639,222.450916 182.560054,222.559407 182.421687,222.559407 L174.478898,222.559407 C174.343012,222.559407 174.231946,222.450916 174.231946,222.312668 L174.231946,214.13 L182.668639,214.13 L182.668639,222.312668 Z M190.364476,206.690647 L15.6355241,206.690647 C11.1202771,206.690647 7.44578313,203.019326 7.44578313,198.507978 L7.44578313,63.3597305 L198.554217,63.3597305 L198.554217,198.507978 C198.554217,203.019326 194.879723,206.690647 190.364476,206.690647 Z"/>
        <path stroke-width="1.917" d="M87.1144217 35.5855256L87.8149458 35.5855256C89.490247 42.4098922 95.6609398 47.4878706 103 47.4878706 110.33906 47.4878706 116.509753 42.4098922 118.185054 35.5855256L118.885578 35.5855256C120.940614 35.5855256 122.60847 33.9191105 122.60847 31.8658491 122.60847 29.8119677 120.940614 28.1461725 118.885578 28.1461725L118.185054 28.1461725C116.509753 21.3218059 110.33906 16.2438275 103 16.2438275 95.6609398 16.2438275 89.490247 21.3218059 87.8149458 28.1461725L87.1144217 28.1461725C85.0593855 28.1461725 83.3915301 29.8119677 83.3915301 31.8658491 83.3915301 33.9191105 85.0593855 35.5855256 87.1144217 35.5855256zM103 40.0485175C99.824994 40.0485175 97.0712952 38.2295957 95.7143012 35.5855256L110.285699 35.5855256C108.928705 38.2295957 106.175006 40.0485175 103 40.0485175zM103 23.6831806C106.175006 23.6831806 108.928705 25.4990027 110.285699 28.1461725L95.7143012 28.1461725C97.0712952 25.4990027 99.824994 23.6831806 103 23.6831806zM140.759428 40.4576819C139.305639 41.9108356 139.305639 44.2647709 140.759428 45.7179245 141.486633 46.4438814 142.439072 46.8071698 143.392133 46.8071698 144.344572 46.8071698 145.297012 46.4438814 146.024217 45.7179245L146.518741 45.2238275C149.000669 46.7253369 151.812072 47.4804313 154.623476 47.4804313 158.627446 47.4804313 162.631416 45.9572237 165.681084 42.9108086 170.870175 37.7261995 171.638331 29.7760108 167.993 23.7674933L168.490006 23.2733962C169.944416 21.8208625 169.944416 19.4644474 168.490006 18.0137736 167.035596 16.5606199 164.677145 16.5606199 163.225217 18.0137736L162.728831 18.5078706C156.71512 14.8656873 148.75806 15.6331806 143.56897 20.8177898 138.37988 26.0030189 137.611102 33.9532075 141.256434 39.9635849L140.759428 40.4576819zM160.416295 37.651186C158.16953 39.8960108 154.938681 40.5543935 152.10556 39.6418329L162.408663 29.3470081C163.320151 32.1783019 162.660578 35.408841 160.416295 37.651186zM148.833139 26.0780323C150.430259 24.4847709 152.526867 23.6850404 154.623476 23.6850404 155.476639 23.6850404 156.324837 23.8232884 157.144494 24.0873854L146.838289 34.3840701C145.927422 31.5533962 146.586373 28.3228571 148.833139 26.0780323zM40.3189157 42.9132884C43.3685843 45.9572237 47.3725542 47.4804313 51.3765241 47.4804313 54.1879277 47.4804313 56.9993313 46.7253369 59.481259 45.2238275L59.9757831 45.7179245C60.702988 46.4438814 61.6554277 46.8071698 62.6078675 46.8071698 63.5609277 46.8071698 64.5133675 46.4438814 65.2405723 45.7179245 66.6943614 44.2647709 66.6943614 41.9083558 65.2405723 40.4576819L64.7460482 39.9635849C68.3913795 33.9532075 67.6201205 26.0030189 62.4310301 20.8177898 57.2419398 15.6331806 49.2848795 14.8656873 43.2711687 18.5078706L42.7766446 18.0112938C41.3228554 16.5581402 38.9644036 16.5581402 37.5124759 18.0112938 36.0580663 19.4644474 36.0580663 21.8208625 37.5124759 23.2715364L38.007 23.7674933C34.3616687 29.7760108 35.1298253 37.7286792 40.3189157 42.9132884zM45.5837048 37.651186C43.3394217 35.408841 42.6798494 32.1783019 43.5913373 29.3470081L53.8969217 39.6443127C51.0638012 40.5543935 47.8304699 39.8960108 45.5837048 37.651186zM51.3765241 23.6850404C53.4731325 23.6850404 55.569741 24.4847709 57.1668614 26.0780323 59.4136265 28.3228571 60.0725783 31.5533962 59.1592289 34.3815903L48.855506 24.0873854C49.6751627 23.8232884 50.5258434 23.6850404 51.3765241 23.6850404zM170.637278 79.5416667L35.6191691 79.5416667C29.186633 79.5416667 23.9534884 84.770292 23.9534884 91.1972731L23.9534884 178.486303C23.9534884 184.910804 29.186633 190.13881 35.6191691 190.13881L170.637278 190.13881C177.069814 190.13881 182.302958 184.910804 182.302958 178.486303L182.302958 91.1972731C182.302958 84.770292 177.069814 79.5416667 170.637278 79.5416667zM174.857175 178.486303C174.857175 180.808621 172.964085 182.699456 170.637278 182.699456L35.6191691 182.699456C33.2923619 182.699456 31.3992715 180.808621 31.3992715 178.486303L31.3992715 91.1972731C31.3992715 88.8724753 33.2923619 86.9810198 35.6191691 86.9810198L170.637278 86.9810198C172.964085 86.9810198 174.857175 88.8724753 174.857175 91.1972731L174.857175 178.486303z"/>
      </g>
    </g>
  </g>
</svg>
