<svg xmlns="http://www.w3.org/2000/svg" xmlns:xlink="http://www.w3.org/1999/xlink" width="256" height="256" viewBox="0 0 256 256">
  <defs>
    <rect id="ic_doll_house-a" width="256" height="256"/>
    <path id="ic_doll_house-c" d="M234.371888,121.215393 L225.101945,110.768326 C221.349819,106.540882 214.879753,105.911219 210.371567,109.33445 L208.471206,110.77731 C204.465767,107.543774 199.36178,105.60242 193.80855,105.60242 C188.256096,105.60242 183.153142,107.543774 179.147704,110.778337 L177.246309,109.33445 C172.739157,105.911219 166.269091,106.540882 162.516965,110.768326 L153.245987,121.215393 C152.752287,121.770872 152.662335,122.575085 153.020849,123.225797 C153.334905,123.795394 153.935618,124.140387 154.575619,124.140387 C154.665571,124.140387 154.756557,124.134483 154.847284,124.119338 L171.684033,121.529326 C170.935727,123.793341 170.52991,126.210856 170.52991,128.720781 C170.52991,135.567243 173.543812,141.7268 178.321853,145.963229 L160.999417,156.384113 C159.160833,157.489168 157.865321,159.2398 157.352493,161.31335 C156.84044,163.38613 157.171555,165.533864 158.286388,167.35868 C159.796958,169.835491 162.457514,171.205965 165.180623,171.205965 C166.599173,171.205965 168.036075,170.834019 169.335465,170.052909 L173.637641,167.463923 L168.842798,186.459057 C168.620503,187.336427 169.105157,188.238953 169.963576,188.544672 C171.240736,189.000041 172.529011,189.413057 173.825557,189.793217 L172.172823,201.766311 C171.88384,203.858856 172.43208,205.936513 173.717512,207.617069 C175.001909,209.298652 176.869701,210.382658 178.980983,210.669382 C179.34751,210.71841 179.71197,210.743566 180.063506,210.743566 C184.015439,210.743566 187.401813,207.807534 187.940231,203.913018 L189.512319,192.524409 C190.944052,192.610657 192.376818,192.655835 193.809584,192.655835 C195.24235,192.655835 196.674858,192.60963 198.105815,192.524409 L199.677903,203.914045 C200.216063,207.807534 203.602437,210.743566 207.555404,210.743566 C207.90694,210.743566 208.270366,210.71841 208.642838,210.669382 C210.749209,210.382658 212.617001,209.298652 213.901398,207.617069 C215.185796,205.936513 215.734036,203.858086 215.446346,201.766311 L213.793353,189.793217 C215.089899,189.413057 216.378174,189.000041 217.655334,188.544672 C218.512719,188.238953 218.997373,187.336427 218.776112,186.459057 L213.929573,167.262421 L218.568293,170.052909 C219.867682,170.834019 221.30355,171.205965 222.7221,171.205965 C225.445209,171.205965 228.105765,169.835491 229.616335,167.359707 C230.73091,165.533864 231.062284,163.38613 230.550231,161.31335 C230.037402,159.2398 228.742924,157.489168 226.90434,156.384113 L209.412339,145.861836 C214.123434,141.628488 217.087966,135.512055 217.087966,128.720781 C217.087966,126.210856 216.682149,123.793341 215.933843,121.529326 L232.770592,124.119338 C232.861578,124.134483 232.952305,124.140387 233.042257,124.140387 C233.682258,124.140387 234.283229,123.795394 234.597026,123.225797 C234.955541,122.575085 234.865589,121.770872 234.371888,121.215393 Z M159.145583,119.894974 L165.177521,113.09754 C167.702892,110.251864 172.05754,109.82781 175.091603,112.132125 L176.541687,113.233073 C175.30666,114.589685 174.23034,116.091584 173.344005,117.710021 L159.145583,119.894974 Z M182.271718,112.838026 C182.647293,116.068738 183.695438,119.098719 185.273471,121.78499 C182.430168,125.273421 178.466086,127.688883 174.07887,128.624522 C174.110404,122.13409 177.337295,116.383442 182.271718,112.838026 Z M167.497915,167.03987 C165.376553,168.315367 162.604849,167.640527 161.319417,165.532837 C160.696476,164.511977 160.510627,163.311946 160.797542,162.15273 C161.084199,160.993513 161.808207,160.015007 162.835932,159.396382 L177.975487,150.289755 L174.864655,162.607843 L167.497915,167.03987 Z M184.426425,203.434803 C184.128395,205.593574 182.252591,207.220995 180.063506,207.220995 C179.86861,207.220995 179.6626,207.206877 179.45659,207.179925 C178.289543,207.020519 177.254581,206.419863 176.541687,205.488331 C175.829827,204.556799 175.525852,203.40477 175.68637,202.244527 L177.277844,190.71371 C180.147254,191.398305 183.052076,191.89988 185.974216,192.22177 L184.426425,203.434803 Z M211.075155,205.488331 C210.363554,206.419863 209.328591,207.020519 208.166456,207.178898 C207.955276,207.206877 207.749266,207.220995 207.55437,207.220995 C205.365544,207.220995 203.48948,205.593574 203.191451,203.434803 L201.64366,192.22177 C204.564766,191.898853 207.470622,191.397535 210.34029,190.71371 L211.931506,202.244527 C212.092023,203.403743 211.788048,204.555773 211.075155,205.488331 Z M225.066533,159.397409 C226.094516,160.015007 226.818524,160.993513 227.105181,162.15273 C227.391838,163.311946 227.207281,164.511977 226.583306,165.533864 C225.297874,167.6395 222.527205,168.315367 220.404808,167.03987 L212.702817,162.407367 L209.593018,150.088253 L225.066533,159.397409 Z M214.940496,185.749307 C201.251025,190.262448 186.367109,190.262448 172.677638,185.749307 L182.042445,148.660281 C182.808844,149.107693 183.602384,149.512752 184.420222,149.872633 C184.452532,154.986431 188.651057,159.137637 193.80855,159.137637 C198.967078,159.137637 203.166378,154.986431 203.198688,149.872633 C204.016526,149.512752 204.810066,149.107693 205.575431,148.660281 L214.940496,185.749307 Z M188.12091,151.139146 C189.942433,151.595286 191.847705,151.837859 193.80855,151.837859 C195.770171,151.837859 197.676476,151.594259 199.498,151.139146 C198.892376,153.700922 196.571982,155.616094 193.80855,155.616094 C191.045893,155.616094 188.726534,153.701949 188.12091,151.139146 Z M193.80855,148.316572 C184.109268,148.316572 176.0286,141.328673 174.38698,132.157873 C179.40205,131.188352 183.975115,128.585248 187.367693,124.780061 C191.639627,129.969069 198.132956,133.288084 205.393718,133.288084 C208.082449,133.288084 210.758256,132.819623 213.273287,131.923258 C211.728598,141.210338 203.591322,148.316572 193.80855,148.316572 Z M205.393718,129.76654 C194.750459,129.76654 186.054087,121.352979 185.680322,110.871773 C188.161233,109.7526 190.911741,109.12499 193.80855,109.12499 C204.456721,109.12499 213.156194,117.543685 213.523756,128.029769 C210.972279,129.182055 208.242966,129.76654 205.393718,129.76654 Z M214.274905,117.710021 C213.387536,116.091584 212.31225,114.589685 211.077223,113.233073 L212.526273,112.132125 C215.560336,109.82781 219.915243,110.251864 222.440355,113.09754 L228.473327,119.893948 L214.274905,117.710021 Z"/>
  </defs>
  <g fill="none" fill-rule="evenodd">
    <mask id="ic_doll_house-b" fill="#fff">
      <use xlink:href="#ic_doll_house-a"/>
    </mask>
    <use fill="#FFF" opacity=".01" xlink:href="#ic_doll_house-a"/>
    <g mask="url(#ic_doll_house-b)">
      <g transform="translate(11 23)">
        <path fill="#777" stroke="#777" stroke-width="2.749" d="M203.139262,178.295 L7.28864965,178.295 C6.02977194,178.295 5.01013796,177.268661 5.01013796,176.009167 L5.01013796,75.2187746 L2.27820243,75.2187746 C1.38388659,75.2187746 0.569318661,74.6964617 0.200199767,73.8747046 C-0.16550136,73.0575192 -0.0230943795,72.0974692 0.569318661,71.4242912 L22.4555628,46.480135 C22.8873407,45.9852521 23.5105137,45.7040946 24.1644465,45.7040946 L78.8840441,45.7040946 L78.8840441,35.5652808 L74.9900677,35.5652808 C74.0604349,35.5652808 73.2276389,35.0018229 72.8813051,34.1400637 C72.529275,33.2794475 72.7343411,32.2919675 73.397388,31.6450767 L103.649188,2.01839083 C104.535529,1.15663167 105.945928,1.15663167 106.831129,2.01839083 L137.084068,31.6450767 C137.747115,32.2919675 137.952181,33.2794475 137.604708,34.1400637 C137.253818,35.0018229 136.421021,35.5652808 135.491389,35.5652808 L131.543867,35.5652808 L131.543867,45.7040946 L186.263465,45.7040946 C186.917398,45.7040946 187.540571,45.9852521 187.972349,46.480135 L209.858593,71.4242912 C210.451006,72.0974692 210.593413,73.0575192 210.227712,73.8747046 C209.858593,74.6964617 209.044025,75.2233462 208.149709,75.2233462 L205.417773,75.2233462 L205.417773,176.009167 C205.417773,177.268661 204.398139,178.295 203.139262,178.295 Z M131.543867,173.723333 L200.86075,173.723333 L200.86075,75.2187746 L131.543867,75.2187746 L131.543867,173.723333 Z M116.430499,173.723333 L126.986844,173.723333 L126.986844,33.2794475 C126.986844,32.0153817 128.005339,30.9936142 129.265356,30.9936142 L129.897643,30.9936142 L105.243007,6.84949958 L80.5838139,30.9936142 L81.1625558,30.9936142 C82.4225728,30.9936142 83.4410675,32.0153817 83.4410675,33.2794475 L83.4410675,173.723333 L93.9974122,173.723333 L93.9974122,136.386532 C93.9974122,135.12818 95.015907,134.100698 96.2759239,134.100698 L114.151987,134.100698 C115.412004,134.100698 116.430499,135.12818 116.430499,136.386532 L116.430499,173.723333 Z M98.5544356,173.723333 L111.873476,173.723333 L111.873476,138.672365 L98.5544356,138.672365 L98.5544356,173.723333 Z M9.56716135,173.723333 L78.8840441,173.723333 L78.8840441,75.2187746 L9.56716135,75.2187746 L9.56716135,173.723333 Z M131.543867,70.6471079 L203.11192,70.6471079 L185.235856,50.2757612 L131.543867,50.2757612 L131.543867,70.6471079 Z M7.32054882,70.6471079 L78.8840441,70.6471079 L78.8840441,50.2757612 L25.1920553,50.2757612 L7.32054882,70.6471079 Z M191.621385,155.593246 L173.290758,155.593246 C172.031881,155.593246 171.012247,154.566907 171.012247,153.307413 L171.012247,132.578333 C171.012247,131.31541 172.031881,130.2925 173.290758,130.2925 L191.621385,130.2925 C192.881402,130.2925 193.899897,131.31541 193.899897,132.578333 L193.899897,153.307413 C193.899897,154.566907 192.881402,155.593246 191.621385,155.593246 Z M175.56927,151.02158 L189.342873,151.02158 L189.342873,134.864167 L175.56927,134.864167 L175.56927,151.02158 Z M159.112719,155.593246 L140.782093,155.593246 C139.527772,155.593246 138.503581,154.566907 138.503581,153.307413 L138.503581,132.578333 C138.503581,131.31541 139.527772,130.2925 140.782093,130.2925 L159.112719,130.2925 C160.372736,130.2925 161.391231,131.31541 161.391231,132.578333 L161.391231,153.307413 C161.391231,154.566907 160.372736,155.593246 159.112719,155.593246 Z M143.060605,151.02158 L156.834208,151.02158 L156.834208,134.864167 L143.060605,134.864167 L143.060605,151.02158 Z M69.6412615,155.593246 L51.3106349,155.593246 C50.0563142,155.593246 49.0321232,154.566907 49.0321232,153.307413 L49.0321232,132.578333 C49.0321232,131.31541 50.0563142,130.2925 51.3106349,130.2925 L69.6412615,130.2925 C70.9001392,130.2925 71.9197732,131.31541 71.9197732,132.578333 L71.9197732,153.307413 C71.9197732,154.566907 70.9001392,155.593246 69.6412615,155.593246 Z M53.5891466,151.02158 L67.3627498,151.02158 L67.3627498,134.864167 L53.5891466,134.864167 L53.5891466,151.02158 Z M37.1371529,155.593246 L18.8065263,155.593246 C17.5465093,155.593246 16.5280146,154.566907 16.5280146,153.307413 L16.5280146,132.578333 C16.5280146,131.31541 17.5465093,130.2925 18.8065263,130.2925 L37.1325958,130.2925 C38.3914736,130.2925 39.4111075,131.31541 39.4111075,132.578333 L39.4111075,153.307413 C39.4156646,154.566907 38.3914736,155.593246 37.1371529,155.593246 Z M21.085038,151.02158 L34.8540841,151.02158 L34.8540841,134.864167 L21.085038,134.864167 L21.085038,151.02158 Z M191.621385,115.970611 L173.290758,115.970611 C172.031881,115.970611 171.012247,114.948844 171.012247,113.684778 L171.012247,92.9556983 C171.012247,91.6927754 172.031881,90.669865 173.290758,90.669865 L191.621385,90.669865 C192.881402,90.669865 193.899897,91.6927754 193.899897,92.9556983 L193.899897,113.684778 C193.899897,114.948844 192.881402,115.970611 191.621385,115.970611 Z M175.56927,111.398945 L189.342873,111.398945 L189.342873,95.2415317 L175.56927,95.2415317 L175.56927,111.398945 Z M159.112719,115.970611 L140.782093,115.970611 C139.527772,115.970611 138.503581,114.948844 138.503581,113.684778 L138.503581,92.9556983 C138.503581,91.6927754 139.527772,90.669865 140.782093,90.669865 L159.112719,90.669865 C160.372736,90.669865 161.391231,91.6927754 161.391231,92.9556983 L161.391231,113.684778 C161.391231,114.948844 160.372736,115.970611 159.112719,115.970611 Z M143.060605,111.398945 L156.834208,111.398945 L156.834208,95.2415317 L143.060605,95.2415317 L143.060605,111.398945 Z M114.378699,115.970611 L96.049212,115.970611 C94.7937521,115.970611 93.7707003,114.948844 93.7707003,113.684778 L93.7707003,92.9556983 C93.7707003,91.6927754 94.7937521,90.669865 96.049212,90.669865 L114.378699,90.669865 C115.638716,90.669865 116.657211,91.6927754 116.657211,92.9556983 L116.657211,113.684778 C116.657211,114.948844 115.638716,115.970611 114.378699,115.970611 Z M98.3277237,111.398945 L112.100188,111.398945 L112.100188,95.2415317 L98.3277237,95.2415317 L98.3277237,111.398945 Z M69.6412615,115.970611 L51.3106349,115.970611 C50.0563142,115.970611 49.0321232,114.948844 49.0321232,113.684778 L49.0321232,92.9556983 C49.0321232,91.6927754 50.0563142,90.669865 51.3106349,90.669865 L69.6412615,90.669865 C70.9001392,90.669865 71.9197732,91.6927754 71.9197732,92.9556983 L71.9197732,113.684778 C71.9197732,114.948844 70.9001392,115.970611 69.6412615,115.970611 Z M53.5891466,111.398945 L67.3627498,111.398945 L67.3627498,95.2415317 L53.5891466,95.2415317 L53.5891466,111.398945 Z M37.1371529,115.970611 L18.8065263,115.970611 C17.5465093,115.970611 16.5280146,114.948844 16.5280146,113.684778 L16.5280146,92.9556983 C16.5280146,91.6927754 17.5465093,90.669865 18.8065263,90.669865 L37.1325958,90.669865 C38.3914736,90.669865 39.4111075,91.6927754 39.4111075,92.9556983 L39.4111075,113.684778 C39.4156646,114.948844 38.3914736,115.970611 37.1371529,115.970611 Z M21.085038,111.398945 L34.8540841,111.398945 L34.8540841,95.2415317 L21.085038,95.2415317 L21.085038,111.398945 Z M114.378699,70.3339487 L96.049212,70.3339487 C94.7937521,70.3339487 93.7707003,69.3121812 93.7707003,68.0481154 L93.7707003,47.3201787 C93.7707003,46.0561129 94.7937521,45.0343454 96.049212,45.0343454 L114.378699,45.0343454 C115.638716,45.0343454 116.657211,46.0561129 116.657211,47.3201787 L116.657211,68.0481154 C116.657211,69.3121812 115.638716,70.3339487 114.378699,70.3339487 Z M98.3277237,65.7622821 L112.100188,65.7622821 L112.100188,49.6060121 L98.3277237,49.6060121 L98.3277237,65.7622821 Z"/>
        <polygon fill="#FFF" points="185.711 106.193 171.497 130.639 181.073 148.189 173.426 185.658 200.086 192.368 233.57 192.368 221.536 139.498 217.622 113.686"/>
        <g>
          <use fill="#777" xlink:href="#ic_doll_house-c"/>
          <path stroke="#FFF" stroke-width="6.5" d="M236.802198,119.057594 C238.209235,120.641746 238.466016,122.938375 237.443633,124.794023 C236.557877,126.401825 234.865981,127.390387 233.042257,127.390387 C232.775805,127.390387 232.509355,127.37057 232.276454,127.331554 L220.136128,125.463996 C220.270149,126.538418 220.337966,127.625544 220.337966,128.720781 C220.337966,134.796914 218.246561,140.550237 214.542971,145.155447 L228.578573,153.598535 C231.156623,155.148036 232.98464,157.619698 233.705381,160.533912 C234.425621,163.449425 233.956518,166.487407 232.390702,169.052453 C230.319907,172.446433 226.639315,174.455965 222.7221,174.455965 C221.429782,174.455965 220.149877,174.236004 218.932779,173.802764 L221.927448,185.664333 C222.559138,188.169189 221.178558,190.738818 218.746814,191.605908 C218.299422,191.765425 217.847044,191.921323 217.389052,192.073925 L218.666037,201.323494 C219.071859,204.274194 218.293603,207.222299 216.484186,209.58981 C214.677429,211.955286 212.038184,213.487172 209.066972,213.891588 C208.554725,213.959014 208.050096,213.993566 207.555404,213.993566 C201.982918,213.993566 197.219363,209.86366 196.458427,204.358423 L195.289606,195.89042 C194.793374,195.900674 194.300113,195.905835 193.809584,195.905835 C193.317534,195.905835 192.823844,195.90075 192.328464,195.890621 L191.15961,204.358099 C190.398517,209.863282 185.635355,213.993566 180.063506,213.993566 C179.56654,213.993566 179.058342,213.958676 178.543629,213.88982 C175.58235,213.487662 172.942307,211.956368 171.136071,209.591573 C169.324014,207.222514 168.545665,204.27398 168.95335,201.321904 L170.229913,192.073951 C169.772172,191.921435 169.320129,191.765654 168.873201,191.606302 C166.439004,190.739383 165.057236,188.167541 165.691641,185.663627 L168.658884,173.908668 C167.535681,174.271779 166.363211,174.455965 165.180623,174.455965 C161.26296,174.455965 157.582331,172.446017 155.512998,169.053025 C153.946116,166.488273 153.476989,163.449887 154.197549,160.533073 C154.918016,157.619969 156.746891,155.148182 159.324065,153.599208 L173.169419,145.270078 C169.407925,140.647084 167.27991,134.848729 167.27991,128.720781 C167.27991,127.625518 167.34773,126.538367 167.481757,125.46392 L155.382391,127.324983 C155.109476,127.37054 154.842435,127.390387 154.575619,127.390387 C152.752117,127.390387 151.060873,126.402088 150.1743,124.794126 C149.151593,122.937891 149.408775,120.640547 150.81514,119.0582 L160.086286,108.610943 C164.960024,103.119803 173.33005,102.298295 179.188071,106.728157 C183.479423,103.89966 188.530662,102.35242 193.80855,102.35242 C199.086873,102.35242 204.138974,103.899551 208.430712,106.727475 C214.289851,102.298453 222.659136,103.120084 227.532912,108.611268 L236.802198,119.057594 Z M167.55732,115.31226 L158.651269,116.682786 L161.576478,122.052113 L167.55732,115.31226 Z M171.77416,114.049986 C172.134271,114.150479 172.483611,114.301381 172.810772,114.503821 C172.825518,114.512946 172.840219,114.522175 172.854873,114.531508 C172.94714,114.590275 173.03758,114.653197 173.125932,114.720299 L174.57643,115.82156 L176.541687,113.233073 L174.13842,111.045195 C173.278059,111.990256 172.487766,112.994574 171.77416,114.049986 C171.622008,114.275016 171.473342,114.502369 171.328227,114.731966 C171.035338,115.195366 170.756912,115.667905 170.493478,116.148933 L173.344005,117.710021 L172.849691,114.497832 L167.55732,115.31226 L167.608417,115.254679 C168.66183,114.067655 170.307351,113.640655 171.77416,114.049986 Z M181.331463,121.266193 C181.677013,122.004143 182.057278,122.726515 182.471216,123.431157 L185.273471,121.78499 L182.754268,119.731672 C182.311525,120.27487 181.835992,120.787141 181.331463,121.266193 Z M178.147577,123.632783 C176.676868,124.473166 175.076181,125.088744 173.401003,125.446001 L177.328831,128.640312 C177.337241,126.909538 177.620465,125.224046 178.147577,123.632783 Z M180.454077,119.157105 C181.475796,117.75875 182.725226,116.514103 184.168112,115.47738 L179.043459,113.213315 C179.281006,115.25671 179.756596,117.249086 180.454077,119.157105 Z M180.454077,119.157105 C180.715622,119.872582 181.008368,120.576197 181.331463,121.266193 C180.367239,122.181725 179.297112,122.975923 178.147577,123.632783 C178.679044,122.028376 179.458444,120.519761 180.454077,119.157105 Z M165.82296,164.254726 L172.041537,160.513465 L172.893688,157.139169 L164.512007,162.180852 C164.222472,162.355134 164.031554,162.613261 163.952347,162.933569 C163.87423,163.24918 163.922051,163.55866 164.094106,163.840618 C164.447409,164.419921 165.230341,164.610855 165.82296,164.254726 Z M180.019542,194.619767 L180.497324,191.158061 L177.277844,190.71371 L176.523616,193.874982 C177.681949,194.151342 178.847598,194.399628 180.019542,194.619768 Z M182.308159,195.012665 C183.406948,195.183665 184.510624,195.330206 185.618362,195.45223 L185.974216,192.22177 L182.754743,191.77737 L182.308159,195.012665 Z M180.019542,194.619768 C180.779858,194.762586 181.542823,194.893559 182.308159,195.012665 L181.206952,202.990403 L181.206961,202.990339 C181.131336,203.538122 180.632487,203.970995 180.063506,203.970995 C180.01366,203.970995 179.948286,203.966557 179.878198,203.957387 C179.578494,203.916399 179.313539,203.762636 179.12262,203.513164 C178.938296,203.271958 178.864103,202.990632 178.905707,202.689916 L180.019542,194.619767 Z M205.30962,195.011964 L204.863133,191.77737 L201.64366,192.22177 L202.00076,195.452092 C203.108157,195.329673 204.211423,195.182944 205.30962,195.011964 Z M207.598421,194.619091 C208.770493,194.399053 209.935957,194.151061 211.093652,193.875189 L210.34029,190.71371 L207.1208,191.15799 L207.598421,194.619091 Z M205.30962,195.011964 C206.075122,194.892782 206.838162,194.761817 207.598421,194.619091 L208.712016,202.688806 C208.753694,202.989793 208.679531,203.270755 208.493172,203.514536 L208.492494,203.515424 C208.303395,203.762967 208.03979,203.916118 207.727595,203.958665 C207.667398,203.966617 207.60369,203.970995 207.55437,203.970995 C206.985528,203.970995 206.486523,203.538005 206.410915,202.990339 L205.30962,195.011964 Z M214.674086,156.937947 L215.526042,160.312872 L222.078906,164.254211 C222.672217,164.610773 223.455697,164.419755 223.809523,163.84016 C223.980984,163.559358 224.028664,163.250158 223.950213,162.932906 C223.871261,162.613634 223.680927,162.35639 223.392811,162.183294 L223.391108,162.18227 L214.674086,156.937947 Z M211.030809,183.540684 L202.424332,149.455941 L205.575431,148.660281 L207.215607,151.466047 C206.900249,151.650397 206.580942,151.828295 206.257905,151.99962 C205.685789,152.303046 205.101976,152.585853 204.507687,152.847363 L203.198688,149.872633 L206.448623,149.893167 C206.448088,149.977956 206.446706,150.062546 206.444487,150.14693 C206.427911,150.777135 206.364604,151.395793 206.257905,151.99962 C205.945514,153.767489 205.26117,155.408228 204.288674,156.839404 C202.014165,160.186689 198.163418,162.387637 193.80855,162.387637 C189.453945,162.387637 185.603543,160.186333 183.329441,156.838661 C182.357371,155.407691 181.673315,153.767261 181.361008,151.999765 C181.254319,151.395963 181.191013,150.777332 181.174429,150.147157 C181.172206,150.062698 181.170823,149.978032 181.170287,149.893167 L184.420222,149.872633 L183.111223,152.847363 C182.517347,152.586034 181.933617,152.3033 181.361008,151.999765 C181.038389,151.828747 180.719302,151.651127 180.403918,151.467011 L182.042445,148.660281 L185.193549,149.45592 L176.587306,183.540679 C187.832291,186.665322 199.785823,186.665324 211.030809,183.540684 Z M187.331433,154.2918 C189.435669,154.818736 191.60656,155.087859 193.80855,155.087859 C196.008208,155.087859 198.179433,154.818502 200.285804,154.292218 L199.498,151.139146 L196.335181,150.391431 C196.065704,151.531315 195.019658,152.366094 193.80855,152.366094 C192.598035,152.366094 191.553308,151.532205 191.283796,150.391715 L188.12091,151.139146 L187.331433,154.2918 Z M208.369955,136.370592 C207.382265,136.481869 206.388277,136.538084 205.393718,136.538084 C198.55311,136.538084 192.126138,133.933208 187.274795,129.414631 C184.666106,131.654179 181.642281,133.370329 178.380801,134.461456 C180.745489,140.702692 186.827837,145.066572 193.80855,145.066572 C200.058168,145.066572 205.582308,141.571701 208.369955,136.370592 Z M210.034184,125.863728 C208.667174,118.197699 201.896569,112.37499 193.80855,112.37499 C192.220397,112.37499 190.664059,112.600314 189.17142,113.037057 C190.542908,120.698801 197.310879,126.51654 205.393718,126.51654 C206.994464,126.51654 208.544097,126.298014 210.034184,125.863728 Z M220.060018,115.311635 L226.042777,122.051476 L228.967414,116.681725 L220.060018,115.311635 Z M215.844157,114.049775 C215.130186,112.993749 214.34021,111.989553 213.48049,111.045195 L211.077223,113.233073 L213.043369,115.820885 L214.492419,114.719937 C214.580904,114.652735 214.671486,114.589727 214.763903,114.530887 C214.778305,114.521717 214.792752,114.512649 214.807243,114.503681 C215.134469,114.301181 215.483916,114.150255 215.844157,114.049775 C217.31074,113.640706 218.956209,114.067718 220.009418,115.254632 L220.060018,115.311635 L214.768992,114.497798 L214.274905,117.710021 L217.124664,116.147532 C216.861078,115.666788 216.58273,115.194656 216.290116,114.731769 C216.144954,114.502136 215.996281,114.274779 215.844157,114.049775 Z"/>
          <use stroke="#777" stroke-width="2.5" xlink:href="#ic_doll_house-c"/>
        </g>
        <path fill="#777" stroke="#777" stroke-width="2.5" d="M204.986418 137.653628C204.986418 138.626487 204.191844 139.414528 203.212455 139.414528 202.233066 139.414528 201.439268 138.626487 201.439268 137.653628 201.439268 136.681026 202.233066 135.891957 203.212455 135.891957 204.191844 135.891957 204.986418 136.681026 204.986418 137.653628zM186.178608 137.653628C186.178608 138.626487 185.385068 139.414528 184.405679 139.414528 183.426032 139.414528 182.632492 138.626487 182.632492 137.653628 182.632492 136.681026 183.426032 135.891957 184.405679 135.891957 185.385068 135.891957 186.178608 136.681026 186.178608 137.653628z"/>
        <polygon fill="#FFF" points="184.044 161.312 178.784 182.217 191.458 183.56 206.372 185.197 209.238 183.56 206.372 164.639 202.315 161.312"/>
      </g>
    </g>
  </g>
</svg>
