<svg xmlns="http://www.w3.org/2000/svg" xmlns:xlink="http://www.w3.org/1999/xlink" width="256" height="256" viewBox="0 0 256 256">
  <defs>
    <rect id="ic_playpen-a" width="256" height="256"/>
  </defs>
  <g fill="none" fill-rule="evenodd">
    <mask id="ic_playpen-b" fill="#fff">
      <use xlink:href="#ic_playpen-a"/>
    </mask>
    <use fill="#FFF" opacity=".01" xlink:href="#ic_playpen-a"/>
    <g fill="#777" stroke="#777" stroke-width="3" mask="url(#ic_playpen-b)">
      <g transform="translate(8 22)">
        <path d="M42.3837126,40.0784242 L41.0141317,42.8495758 L37.9487425,43.2920707 C35.5688623,43.6391818 33.5899401,45.3037374 32.8462275,47.5893636 C32.102515,49.8728384 32.7226347,52.3800707 34.4464671,54.0582525 L36.6632335,56.2147879 L36.1386826,59.259899 C35.731976,61.6301515 36.708503,64.0226364 38.6536527,65.4347475 C39.7566467,66.2329596 41.0622754,66.639596 42.3729341,66.639596 C43.377485,66.639596 44.3877844,66.4014949 45.314012,65.9138182 L48.0538922,64.4766061 L50.7937725,65.9138182 C51.72,66.4014949 52.7302994,66.639596 53.7348503,66.639596 C55.0483832,66.639596 56.3511377,66.2329596 57.4541317,65.4347475 C59.4021557,64.0226364 60.3758084,61.6301515 59.9691018,59.259899 L59.4445509,56.2147879 L61.6613174,54.0582525 C63.3851497,52.3800707 64.0052695,49.8728384 63.2615569,47.5893636 C62.5178443,45.3037374 60.5389222,43.6391818 58.1590419,43.2920707 L55.0936527,42.8495758 L53.7240719,40.0784242 C52.6598802,37.9240404 50.462515,36.5599798 48.0538922,36.5599798 C45.6481437,36.5599798 43.4507784,37.9240404 42.3837126,40.0784242 Z M57.2493413,49.5393535 L52.6512575,54.0130707 L53.7377246,60.3277677 L48.0538922,57.347202 L42.3729341,60.3277677 L43.4586826,54.0130707 L38.8613174,49.5393535 L45.2134132,48.6177879 L48.0567665,42.8718081 L50.8972455,48.6177879 L57.2493413,49.5393535 Z"/>
        <path d="M236.606228,66.552101 C234.857964,66.552101 233.443114,67.9670808 233.443114,69.7098081 L233.443114,80.3691313 L6.32407186,80.3691313 L6.32407186,80.1310303 C6.35784431,79.946 6.37724551,79.7559495 6.37724551,79.5594444 L6.37724551,25.6288485 C6.37724551,15.031202 15.0165269,6.40792929 25.6354491,6.40792929 C36.2536527,6.40792929 44.8936527,15.031202 44.8936527,25.6288485 C44.8936527,27.3715758 46.3077844,28.7829697 48.0538922,28.7829697 C49.8,28.7829697 51.217006,27.3715758 51.217006,25.6288485 C51.217006,11.5486162 39.7401198,0.0961010101 25.6354491,0.0961010101 C11.5307784,0.0961010101 0.0531736527,11.5486162 0.0531736527,25.6288485 L0.0531736527,69.1382222 C0.0194011976,69.3232525 0,69.513303 0,69.7098081 L0,195.357576 C0,197.100303 1.4148503,198.511697 3.16023952,198.511697 C3.33988024,198.511697 3.51449102,198.495202 3.68263473,198.467232 L46.6900599,198.467232 L46.6900599,209.126556 C46.6900599,210.869283 48.1041916,212.284263 49.8502994,212.284263 C51.5964072,212.284263 53.0105389,210.869283 53.0105389,209.126556 L53.0105389,198.467232 L186.753054,198.467232 L186.753054,209.126556 C186.753054,210.869283 188.170778,212.284263 189.916886,212.284263 C191.662275,212.284263 193.077126,210.869283 193.077126,209.126556 L193.077126,198.467232 L235.974611,198.467232 C236.003353,198.467232 236.031377,198.464364 236.056527,198.461495 C236.236168,198.492333 236.418683,198.511697 236.606228,198.511697 C238.352335,198.511697 239.767186,197.100303 239.767186,195.357576 L239.767186,69.7098081 C239.767186,67.9670808 238.352335,66.552101 236.606228,66.552101 Z M6.32407186,192.155404 L233.443114,192.155404 L233.443114,183.395152 L6.32407186,183.395152 L6.32407186,192.155404 Z M156.932695,124.500293 C163.944431,124.500293 169.866826,128.178667 169.866826,132.531899 C169.866826,136.888717 163.944431,140.567091 156.932695,140.567091 C149.924551,140.567091 143.998563,136.888717 143.998563,132.531899 C143.998563,128.178667 149.924551,124.500293 156.932695,124.500293 Z M82.2021557,124.500293 C89.2138922,124.500293 95.1362874,128.178667 95.1362874,132.531899 C95.1362874,136.888717 89.2138922,140.567091 82.2021557,140.567091 C75.194012,140.567091 69.268024,136.888717 69.268024,132.531899 C69.268024,128.178667 75.194012,124.500293 82.2021557,124.500293 Z M79.0419162,86.6809596 L79.0419162,118.376364 C69.7990419,119.469333 62.9475449,125.293485 62.9475449,132.531899 C62.9475449,140.57498 71.4043114,146.875333 82.2021557,146.875333 C93.0035928,146.875333 101.460359,140.57498 101.460359,132.531899 C101.460359,125.293485 94.6088623,119.469333 85.365988,118.376364 L85.365988,86.6809596 L153.772455,86.6809596 L153.772455,118.376364 C144.529581,119.469333 137.678084,125.293485 137.678084,132.531899 C137.678084,140.57498 146.13485,146.875333 156.932695,146.875333 C167.734132,146.875333 176.190898,140.57498 176.190898,132.531899 C176.190898,125.293485 169.339401,119.469333 160.096527,118.376364 L160.096527,86.6809596 L233.443114,86.6809596 L233.443114,177.08404 L6.32407186,177.08404 L6.32407186,86.6809596 L79.0419162,86.6809596 Z"/>
      </g>
    </g>
  </g>
</svg>
