<svg xmlns="http://www.w3.org/2000/svg" xmlns:xlink="http://www.w3.org/1999/xlink" width="256" height="256" viewBox="0 0 256 256">
  <defs>
    <rect id="ic_rocking_horse-a" width="256" height="256"/>
  </defs>
  <g fill="none" fill-rule="evenodd">
    <mask id="ic_rocking_horse-b" fill="#fff">
      <use xlink:href="#ic_rocking_horse-a"/>
    </mask>
    <use fill="#FFF" opacity=".01" xlink:href="#ic_rocking_horse-a"/>
    <g fill="#777" stroke="#777" stroke-width="2" mask="url(#ic_rocking_horse-b)">
      <g transform="translate(8 13)">
        <path d="M228.321138,176.197183 C200.507194,205.312776 163.052269,221.338517 122.853186,221.338517 C82.6541028,221.338517 45.1991779,205.312776 17.3852332,176.197183 C15.8391146,174.583255 13.2892332,174.518374 11.662166,176.06742 C10.0512885,177.624577 9.99462451,180.187398 11.5407431,181.801327 C40.8927115,212.522737 80.4199209,229.44871 122.853186,229.44871 C165.286451,229.44871 204.821755,212.522737 234.173723,181.801327 C235.711747,180.187398 235.655083,177.624577 234.044206,176.06742 C232.433328,174.518374 229.875352,174.591365 228.321138,176.197183"/>
        <path d="M66.8666941 146.900734L59.7675004 184.59691C59.3465676 186.802883 60.7955478 188.927753 62.9892553 189.333263 65.1262988 189.730662 67.3119115 188.311379 67.7166545 186.105406L74.8239431 148.360569C76.7262356 137.574012 83.4125913 124.970772 96.0405755 124.970772L149.669034 124.970772C161.973224 124.970772 169.574299 137.07118 171.419927 148.198365L176.924433 189.008855C177.191564 191.044513 178.931959 192.520569 180.923295 192.520569 181.101382 192.520569 181.287564 192.512458 181.473745 192.480018 183.691738 192.188051 185.237856 190.144282 184.938346 187.922089L179.417651 146.989946C176.487311 129.244844 164.255975 116.86058 149.669034 116.86058L96.0405755 116.86058C81.5183937 116.86058 70.0722593 128.66902 66.8666941 146.900734M161.926274 82.684227C163.836661 81.5244694 164.45187 79.0346402 163.310495 77.1125245 162.144835 75.1904088 159.675902 74.6064749 157.749325 75.7337917 126.697436 94.4683372 104.104677 76.8124474 103.165673 76.0581994 101.417183 74.6632463 98.875396 74.9308826 97.474985 76.6664639 96.0745739 78.4020452 96.3336095 80.9405355 98.0659099 82.3517091 98.2520917 82.5058028 110.612945 92.3110259 129.554922 92.3110259 138.953056 92.3110259 149.970163 89.8941884 161.926274 82.684227"/>
        <path d="M220.289417,64.3965532 C205.313923,54.2588121 187.861401,61.7769609 187.124768,62.0932584 C187.076199,62.117589 187.051915,62.1581399 187.003345,62.1824705 C182.810207,60.268465 177.961385,59.1249278 172.440689,59.1249278 L101.732073,59.1249278 C89.427883,19.7823824 51.6248791,3.86207383 30.7644206,0.658547658 C24.5556617,-0.314675482 18.6059383,3.50522534 16.8250688,9.49054766 L1.25055494,61.9472749 C0.206317787,65.4914292 1.93861818,69.3194402 5.28989091,70.8603769 L14.0161518,74.8505917 C16.986966,76.2212143 20.5810846,75.4669664 22.3619542,73.3502061 L41.1825075,56.2620298 L39.458302,176.382096 C39.4259225,178.612399 41.214887,180.461523 43.4490688,180.485853 L43.5057328,180.485853 C45.71563,180.485853 47.5207842,178.717831 47.5531636,176.487528 L49.2935589,55.053611 C49.2045154,51.9474072 47.2698435,49.2710435 44.3556933,48.2248287 C41.4415431,47.186724 38.2602625,48.0139636 36.6170055,49.9766303 L17.399804,67.4784264 L9.17542451,63.715297 L24.5880411,11.8100628 C25.2113455,9.67708209 27.3807684,8.34701047 29.5420964,8.67141818 C48.9859542,11.6559691 84.6033455,26.7247074 94.7866814,64.2343493 C95.2723731,66.0023713 96.8670609,67.2351207 98.6964996,67.2351207 L172.440689,67.2351207 C182.203092,67.2351207 193.608753,71.9390325 193.608753,85.1910876 L193.608753,180.153336 C193.608753,182.399859 195.422002,184.208432 197.656183,184.208432 C199.890365,184.208432 201.703614,182.399859 201.703614,180.153336 L201.703614,85.1910876 C201.703614,84.8423493 201.614571,84.534162 201.606476,84.1935339 C203.856847,83.5528287 205.216784,84.071881 206.091029,84.5909333 C213.149749,88.8082336 216.063899,109.148597 216.233891,120.973258 C216.26627,123.195451 218.079519,124.971583 220.281322,124.971583 L220.337986,124.971583 C222.572168,124.939143 224.361132,123.090019 224.328753,120.859716 C224.280183,117.2669 223.454508,85.5154953 210.243693,77.6242777 C207.969037,76.2617653 204.544911,75.1344485 200.108926,76.1887736 C199.01612,73.1069003 197.364768,70.3818755 195.211535,68.0461399 C200.295108,66.9107129 208.551867,66.2213466 215.740104,71.1117928 C226.886729,78.6786028 232.261717,97.5915725 231.266049,125.798823 C231.193195,128.045347 232.933591,129.918801 235.175867,129.999903 L235.31348,129.999903 C237.490998,129.999903 239.288057,128.272432 239.360911,126.08268 C240.461812,94.4934788 234.042587,73.7394953 220.289417,64.3965532"/>
        <path d="M32.4481518,25.7149884 C31.7115194,26.4449058 31.2339225,27.4992309 31.2339225,28.5616661 C31.2339225,29.6889829 31.7115194,30.6622061 32.4481518,31.3921234 C33.2576379,32.2031427 34.2290213,32.6167625 35.3542071,32.6167625 C36.3255905,32.6167625 37.3779225,32.2031427 38.1955036,31.3921234 C38.9240411,30.6622061 39.3287842,29.607881 39.3287842,28.5616661 C39.3287842,27.4992309 38.9240411,26.4449058 38.1955036,25.7149884 C36.6574798,24.182162 33.9780806,24.182162 32.4481518,25.7149884"/>
      </g>
    </g>
  </g>
</svg>
