<svg xmlns="http://www.w3.org/2000/svg" xmlns:xlink="http://www.w3.org/1999/xlink" width="256" height="256" viewBox="0 0 256 256">
  <defs>
    <rect id="ic_toys-a" width="256" height="256"/>
  </defs>
  <g fill="none" fill-rule="evenodd">
    <mask id="ic_toys-b" fill="#fff">
      <use xlink:href="#ic_toys-a"/>
    </mask>
    <use fill="#FFF" opacity=".01" xlink:href="#ic_toys-a"/>
    <g fill="#777" stroke="#FFF" stroke-width=".5" mask="url(#ic_toys-b)">
      <g transform="translate(23 23)">
        <path d="M201.794414,197.123965 C201.794414,199.699336 199.698926,201.794824 197.123145,201.794824 L113.774062,201.794824 C111.198281,201.794824 109.102793,199.699336 109.102793,197.123965 L109.102793,113.774883 C109.102793,111.199102 111.198281,109.103613 113.774062,109.103613 L197.123145,109.103613 C199.698926,109.103613 201.794414,111.199102 201.794414,113.774883 L201.794414,197.123965 Z M100.896797,197.123965 C100.896797,199.699336 98.8013086,201.794824 96.2259375,201.794824 L12.8764453,201.794824 C10.3010742,201.794824 8.20558594,199.699336 8.20558594,197.123965 L8.20558594,113.774883 C8.20558594,111.199102 10.3010742,109.103613 12.8764453,109.103613 L96.2259375,109.103613 C98.8013086,109.103613 100.896797,111.199102 100.896797,113.774883 L100.896797,197.123965 Z M58.6543945,12.8768555 C58.6543945,10.3014844 60.7494727,8.20599609 63.3248437,8.20599609 L146.674746,8.20599609 C149.250117,8.20599609 151.345195,10.3014844 151.345195,12.8768555 L151.345195,96.2263477 C151.345195,98.8017187 149.250117,100.897207 146.674746,100.897207 L63.3248437,100.897207 C60.7494727,100.897207 58.6543945,98.8017187 58.6543945,96.2263477 L58.6543945,12.8768555 Z M197.123145,100.897617 L158.670176,100.897617 C159.236191,99.4485352 159.551191,97.8739453 159.551191,96.2263477 L159.551191,12.8768555 C159.551191,5.77664063 153.774551,0.00041015625 146.674746,0.00041015625 L63.3248438,0.00041015625 C56.2250391,0.00041015625 50.4483984,5.77664063 50.4483984,12.8768555 L50.4483984,96.2263477 C50.4483984,97.8739453 50.7629883,99.4485352 51.3290039,100.897617 L12.8764453,100.897617 C5.77623047,100.897617 0,106.674258 0,113.774473 L0,197.123555 C0,204.22377 5.77623047,210 12.8764453,210 L96.2259375,210 C99.6138281,210 102.698203,208.682988 104.99959,206.53582 C107.300977,208.682578 110.385762,210 113.773652,210 L197.122734,210 C204.223359,210 209.99959,204.22377 209.99959,197.123555 L209.99959,113.774473 C210,106.674258 204.22377,100.897617 197.123145,100.897617 L197.123145,100.897617 Z"/>
        <path d="M57.2433079,187.435664 L57.146511,187.435664 C54.8803977,187.435664 53.043718,189.272344 53.043718,191.538457 C53.043718,193.80457 54.8803977,195.64125 57.146511,195.64125 L57.2433079,195.64125 C59.5094212,195.64125 61.3461009,193.80457 61.3461009,191.538457 C61.3461009,189.272344 59.5094212,187.435664 57.2433079,187.435664"/>
        <path d="M90.6396094 115.257598L18.4627734 115.257598C16.1966602 115.257598 14.3599805 117.094277 14.3599805 119.360391L14.3599805 191.537637C14.3599805 193.80375 16.1966602 195.64043 18.4627734 195.64043L38.6395898 195.64043C40.9057031 195.64043 42.742793 193.80375 42.742793 191.537637 42.742793 189.271523 40.9057031 187.434844 38.6395898 187.434844L22.5655664 187.434844 22.5655664 123.463184 86.5368164 123.463184 86.5368164 187.434844 73.8039258 187.434844C71.5382227 187.434844 69.7011328 189.271523 69.7011328 191.537637 69.7011328 193.80375 71.5382227 195.64043 73.8039258 195.64043L90.6396094 195.64043C92.9057227 195.64043 94.7424023 193.80375 94.7424023 191.537637L94.7424023 119.360391C94.7424023 117.094277 92.9057227 115.257598 90.6396094 115.257598M191.537227 115.258008L174.701133 115.258008C172.43502 115.258008 170.59834 117.094688 170.59834 119.360801 170.59834 121.626914 172.43502 123.463594 174.701133 123.463594L187.434434 123.463594 187.434434 187.434844 123.462773 187.434844 123.462773 123.463594 139.537207 123.463594C141.80332 123.463594 143.64 121.626914 143.64 119.360801 143.64 117.094688 141.80332 115.258008 139.537207 115.258008L119.35998 115.258008C117.093867 115.258008 115.257188 117.094688 115.257188 119.360801L115.257188 191.537637C115.257188 193.80375 117.093867 195.64043 119.35998 195.64043L191.537227 195.64043C193.80334 195.64043 195.64002 193.80375 195.64002 191.537637L195.64002 119.360801C195.64002 117.094688 193.80334 115.258008 191.537227 115.258008"/>
        <path d="M158.043718 123.462773L158.140515 123.462773C160.406628 123.462773 162.243308 121.626094 162.243308 119.35998 162.243308 117.093867 160.406628 115.257188 158.140515 115.257188L158.043718 115.257188C155.777605 115.257188 153.940925 117.093867 153.940925 119.35998 153.940925 121.626094 155.777605 123.462773 158.043718 123.462773M68.9111719 56.0594851C71.176875 56.0594851 73.0139648 54.2228054 73.0139648 51.9566921L73.0139648 51.8598952C73.0139648 49.593782 71.176875 47.7571023 68.9111719 47.7571023 66.6450586 47.7571023 64.8079688 49.593782 64.8079688 51.8598952L64.8079688 51.9566921C64.8079688 54.2228054 66.6450586 56.0594851 68.9111719 56.0594851"/>
        <path d="M68.9119922 39.4020703C71.1776953 39.4020703 73.0147852 37.5653906 73.0147852 35.2992773L73.0147852 22.5659766 136.986035 22.5659766 136.986035 86.5372266 73.0147852 86.5372266 73.0147852 70.4632031C73.0147852 68.1970898 71.1776953 66.3604102 68.911582 66.3604102 66.6458789 66.3604102 64.8087891 68.1970898 64.8087891 70.4632031L64.8087891 90.6400195C64.8087891 92.9061328 66.6458789 94.7428125 68.911582 94.7428125L141.088828 94.7428125C143.354941 94.7428125 145.192031 92.9061328 145.192031 90.6400195L145.192031 18.4631836C145.192031 16.1970703 143.354941 14.3603906 141.088828 14.3603906L68.911582 14.3603906C66.6458789 14.3603906 64.8087891 16.1970703 64.8087891 18.4631836L64.8087891 35.2992773C64.8087891 37.5653906 66.6458789 39.4020703 68.9119922 39.4020703M54.5511914 167.758008C47.7639258 167.758008 42.2424023 162.236484 42.2424023 155.449219 42.2424023 148.662363 47.7639258 143.14084 54.5511914 143.14084 61.3380469 143.14084 66.8595703 148.662363 66.8595703 155.449219 66.8595703 162.236484 61.3380469 167.758008 54.5511914 167.758008zM54.5511914 134.935254C43.2394922 134.935254 34.0368164 144.13793 34.0368164 155.449219 34.0368164 166.760918 43.2394922 175.963594 54.5511914 175.963594 65.8624805 175.963594 75.0651563 166.760918 75.0651563 155.449219 75.0651563 144.13793 65.8624805 134.935254 54.5511914 134.935254L54.5511914 134.935254zM155.448398 149.499902L164.686758 165.500918 146.210449 165.500918 155.448398 149.499902zM135.550898 171.655312C136.283848 172.924746 137.638184 173.706504 139.104082 173.706504L171.793125 173.706504C171.795996 173.706504 171.798457 173.706504 171.801328 173.706504 174.067441 173.706504 175.904121 171.869824 175.904121 169.603711 175.904121 168.767402 175.653926 167.989336 175.223672 167.340059L159.001582 139.242715C158.269043 137.973281 156.914707 137.191523 155.448398 137.191523 153.9825 137.191523 152.628164 137.973281 151.895625 139.242715L135.550898 167.55252C134.817949 168.822363 134.817949 170.386289 135.550898 171.655312L135.550898 171.655312z"/>
        <path d="M99.5650195,50.7100781 C100.279512,50.4475781 100.907461,49.9914844 101.3775,49.3930664 L105,44.7820898 L108.62209,49.3926562 C109.092539,49.9914844 109.720078,50.447168 110.43457,50.7100781 L115.938867,52.7300977 L112.673203,57.5998828 C112.248691,58.2323437 112.00916,58.9702148 111.980449,59.7310547 L111.760195,65.5901367 L106.120137,63.9888867 C105.387598,63.7809375 104.611992,63.7809375 103.879043,63.9888867 L98.2385742,65.5901367 L98.0183203,59.7310547 C97.9896094,58.9698047 97.749668,58.2319336 97.3255664,57.5998828 L94.0603125,52.7300977 L99.5650195,50.7100781 Z M90.2351953,71.1169922 C90.2823633,72.3753516 90.9045703,73.5422461 91.9233984,74.2825781 C92.9422266,75.0225 94.2440625,75.2538281 95.4556641,74.9101172 L105,72.200625 L114.543926,74.9101172 C114.912656,75.014707 115.28959,75.0659766 115.664063,75.0659766 C116.521289,75.0659766 117.367031,74.7973242 118.075781,74.2825781 C119.094609,73.5422461 119.716816,72.3753516 119.763984,71.1169922 L120.136816,61.2026953 L125.662852,52.9626562 C126.364219,51.917168 126.546328,50.6075391 126.1575,49.4098828 C125.768672,48.2126367 124.850742,47.2598437 123.668672,46.8263086 L114.354844,43.4080664 L108.225879,35.6060742 C107.448633,34.6155469 106.25877,34.0376367 104.99959,34.0376367 C103.74041,34.0376367 102.550957,34.6155469 101.773301,35.6056641 L95.6443359,43.4076562 L86.3300977,46.8258984 C85.1480273,47.2594336 84.2305078,48.2122266 83.8416797,49.4094727 C83.4528516,50.6071289 83.6349609,51.9167578 84.3363281,52.9622461 L89.8623633,61.2022852 L90.2351953,71.1169922 L90.2351953,71.1169922 Z"/>
      </g>
    </g>
  </g>
</svg>
