<svg id="Layer_1" data-name="Layer 1" xmlns="http://www.w3.org/2000/svg" viewBox="0 0 24 24"><defs><style>.cls-1{fill:#787878;}</style></defs><title>ironing-board</title><path class="cls-1" d="M22.8,7.25H6.87a.47.47,0,0,0,0,0V2.26a.5.5,0,0,0-.5-.5c-1.8,0-3.5,2.61-3.68,5.5H1.2a1.2,1.2,0,1,0,0,2.41H4.55l6.36,5.44L3.55,21.36a.5.5,0,0,0,.65.76l7.48-6.37,7.45,6.37a.5.5,0,1,0,.65-.76L12.45,15.1l6.39-5.44h4a1.2,1.2,0,1,0,0-2.41ZM5.88,2.88V7.2a.47.47,0,0,0,0,0H3.72C3.86,5.14,4.87,3.35,5.88,2.88Zm5.8,11.56L6.08,9.66H17.3ZM22.8,8.66H1.2a.2.2,0,1,1,0-.41H22.8a.2.2,0,1,1,0,.41ZM5.09,4.41a.51.51,0,0,0-.52.48L4.52,6.21v0a.5.5,0,0,0,.48.5H5a.5.5,0,0,0,.5-.48l.05-1.31v0A.5.5,0,0,0,5.09,4.41Z"/></svg>