<svg id="Layer_1" data-name="Layer 1" xmlns="http://www.w3.org/2000/svg" viewBox="0 0 24 24"><defs><style>.cls-1{fill:#777;}</style></defs><title>keyboard</title><path class="cls-1" d="M5.36,7.08A1.46,1.46,0,1,0,6.82,8.54,1.46,1.46,0,0,0,5.36,7.08Zm0,2.17a.71.71,0,1,1,.71-.71A.71.71,0,0,1,5.36,9.25ZM8.68,7.08a1.46,1.46,0,1,0,1.46,1.46A1.46,1.46,0,0,0,8.68,7.08Zm0,2.17a.71.71,0,1,1,.71-.71A.71.71,0,0,1,8.68,9.25ZM12,7.08a1.46,1.46,0,1,0,1.46,1.46A1.46,1.46,0,0,0,12,7.08Zm0,2.17a.71.71,0,1,1,.71-.71A.71.71,0,0,1,12,9.25Zm3.32-2.17a1.46,1.46,0,1,0,1.46,1.46A1.46,1.46,0,0,0,15.32,7.08Zm0,2.17A.71.71,0,1,1,16,8.54.71.71,0,0,1,15.32,9.25Zm3.32-2.17a1.46,1.46,0,1,0,1.46,1.46A1.46,1.46,0,0,0,18.64,7.08Zm0,2.17a.71.71,0,1,1,.71-.71A.71.71,0,0,1,18.64,9.25Zm2.71-4.92H2.64A2.64,2.64,0,0,0,0,7V17a2.64,2.64,0,0,0,2.64,2.63H21.36A2.64,2.64,0,0,0,24,17V7A2.64,2.64,0,0,0,21.36,4.33ZM4.86,18.67h-2V13.42a.56.56,0,0,1,.57-.56h.43v1.42a1.5,1.5,0,0,0,1,1.42Zm.5-3.89a.51.51,0,0,1-.51-.51V12.86h1v1.42A.51.51,0,0,1,5.36,14.78Zm3.93,3.89H5.86v-3a1.5,1.5,0,0,0,1-1.41V12.86H8.28v1.42a1.5,1.5,0,0,0,1,1.41Zm.5-3.89a.51.51,0,0,1-.51-.51V12.86h1v1.42A.51.51,0,0,1,9.79,14.78Zm3.93,3.89H10.29v-3a1.5,1.5,0,0,0,1-1.42V12.86h1.42v1.42a1.5,1.5,0,0,0,1,1.42Zm.5-3.89a.51.51,0,0,1-.51-.51V12.86h1v1.42A.51.51,0,0,1,14.21,14.78Zm3.93,3.89H14.71v-3a1.5,1.5,0,0,0,1-1.42V12.86h1.42v1.42a1.5,1.5,0,0,0,1,1.42Zm.5-3.89a.51.51,0,0,1-.51-.51V12.86h1v1.42A.51.51,0,0,1,18.64,14.78Zm2.51,3.89h-2v-3a1.5,1.5,0,0,0,1-1.41V12.86h.43a.57.57,0,0,1,.57.56ZM23,17a1.63,1.63,0,0,1-.85,1.42v-5a1.56,1.56,0,0,0-1.57-1.56H3.42a1.56,1.56,0,0,0-1.57,1.56v5A1.63,1.63,0,0,1,1,17V7A1.64,1.64,0,0,1,2.64,5.33H21.36A1.64,1.64,0,0,1,23,7Z"/></svg>