<svg id="Layer_1" data-name="Layer 1" xmlns="http://www.w3.org/2000/svg" viewBox="0 0 24 24"><defs><style>.cls-1{fill:#777;}</style></defs><title>korpus</title><path class="cls-1" d="M20.33,0H3.67a.5.5,0,0,0-.5.5v23a.5.5,0,0,0,.5.5H20.33a.5.5,0,0,0,.5-.5V.5A.5.5,0,0,0,20.33,0Zm-.5,23H4.17V12.11H19.83Zm0-11.9H4.17V1H19.83Zm-9.41,5.76h3.17a.5.5,0,0,0,.5-.5V14.78a.5.5,0,1,0-1,0v1.09H10.91V14.78a.5.5,0,1,0-1,0v1.59A.5.5,0,0,0,10.41,16.86Zm0-11.1h3.17a.5.5,0,0,0,.5-.5V3.67a.5.5,0,0,0-1,0V4.76H10.91V3.67a.5.5,0,0,0-1,0V5.26A.5.5,0,0,0,10.41,5.76Z"/></svg>