<svg id="Layer_1" data-name="Layer 1" xmlns="http://www.w3.org/2000/svg" viewBox="0 0 24 24"><defs><style>.cls-1{fill:#777;}</style></defs><title>lamp-system</title><path class="cls-1" d="M22.82,8.78A1.17,1.17,0,0,0,24,7.62V4.85a1.17,1.17,0,0,0-1.16-1.16H1.18A1.17,1.17,0,0,0,0,4.85V7.62A1.17,1.17,0,0,0,1.18,8.78H3.56v4h-1A1.8,1.8,0,0,0,.81,14.53v1a1.79,1.79,0,0,0,1,1.62A2.39,2.39,0,0,0,4.2,20l.34,0A2.37,2.37,0,0,0,6.11,19a2.35,2.35,0,0,0,.43-1.84,1.79,1.79,0,0,0,1-1.62v-1a1.8,1.8,0,0,0-1.79-1.79H4.56v-4h7.25a.5.5,0,0,0,0,.19v4.08H10.68a1.8,1.8,0,0,0-1.79,1.79v1a1.79,1.79,0,0,0,1,1.62,2.37,2.37,0,0,0,.91,2.32,2.4,2.4,0,0,0,3.36-.48,2.35,2.35,0,0,0,.43-1.84,1.79,1.79,0,0,0,1-1.62v-1a1.8,1.8,0,0,0-1.79-1.79H12.77V9a.5.5,0,0,0,0-.19h7.12v4H18.76A1.8,1.8,0,0,0,17,14.53v1a1.79,1.79,0,0,0,1,1.62A2.38,2.38,0,0,0,20.35,20l.34,0a2.37,2.37,0,0,0,2-2.78,1.79,1.79,0,0,0,1-1.62v-1a1.8,1.8,0,0,0-1.79-1.79H20.85v-4ZM5.31,18.44A1.38,1.38,0,0,1,4.4,19a1.41,1.41,0,0,1-1-.27,1.37,1.37,0,0,1-.53-1.35H5.56A1.35,1.35,0,0,1,5.31,18.44Zm1.27-3.91v1a.8.8,0,0,1-.79.79H2.6a.8.8,0,0,1-.79-.79v-1a.8.8,0,0,1,.79-.79H5.79A.8.8,0,0,1,6.58,14.53Zm6.81,4.22a1.4,1.4,0,0,1-2,.27,1.37,1.37,0,0,1-.53-1.35h2.74A1.36,1.36,0,0,1,13.39,18.75Zm1.27-3.91v1a.8.8,0,0,1-.79.79H10.68a.8.8,0,0,1-.79-.79v-1a.8.8,0,0,1,.79-.79h3.19A.8.8,0,0,1,14.66,14.85Zm6.81,3.59a1.38,1.38,0,0,1-.92.54,1.41,1.41,0,0,1-1-.27A1.37,1.37,0,0,1,19,17.36h2.74A1.36,1.36,0,0,1,21.47,18.44Zm1.27-3.91v1a.8.8,0,0,1-.79.79H18.76a.8.8,0,0,1-.79-.79v-1a.8.8,0,0,1,.79-.79h3.19A.8.8,0,0,1,22.74,14.53ZM1,7.62V4.85a.17.17,0,0,1,.16-.16H22.82a.17.17,0,0,1,.16.16V7.62a.17.17,0,0,1-.16.16H1.18A.17.17,0,0,1,1,7.62Z"/></svg>