<svg id="Layer_1" data-name="Layer 1" xmlns="http://www.w3.org/2000/svg" viewBox="0 0 24 24"><defs><style>.cls-1{fill:#777;}</style></defs><title>laundry-basket</title><path class="cls-1" d="M16.4,24H7.6a1.27,1.27,0,0,1-1.24-1.15L4.87,6a.5.5,0,0,1,.5-.54H18.43a.5.5,0,0,1,.5.54L18.66,9.5a.5.5,0,1,1-1-.08l.22-2.93h-12L7.36,22.76A.27.27,0,0,0,7.6,23H16.4a.27.27,0,0,0,.25-.25l.27-3.58a.5.5,0,1,1,1,.08l-.27,3.59A1.27,1.27,0,0,1,16.4,24Z"/><path class="cls-1" d="M9.4,21.86a.93.93,0,1,1,.93-.93A.93.93,0,0,1,9.4,21.86Zm0-1a.07.07,0,0,0-.07.07c0,.08.15.08.15,0A.07.07,0,0,0,9.4,20.86Z"/><path class="cls-1" d="M12,21.86a.93.93,0,1,1,.93-.93A.93.93,0,0,1,12,21.86Zm0-1a.07.07,0,0,0-.07.07c0,.08.15.08.15,0A.07.07,0,0,0,12,20.86Z"/><path class="cls-1" d="M14.62,21.86a.93.93,0,1,1,.93-.93A.93.93,0,0,1,14.62,21.86Zm0-1a.07.07,0,0,0-.07.07c0,.08.15.08.15,0A.07.07,0,0,0,14.62,20.86Z"/><path class="cls-1" d="M9.4,19.29a.93.93,0,1,1,.93-.93A.93.93,0,0,1,9.4,19.29Zm0-1a.07.07,0,0,0-.07.07c0,.08.15.08.15,0A.07.07,0,0,0,9.4,18.29Z"/><path class="cls-1" d="M12,19.29a.93.93,0,1,1,.93-.93A.93.93,0,0,1,12,19.29Zm0-1a.07.07,0,0,0-.07.07c0,.08.15.08.15,0A.07.07,0,0,0,12,18.29Z"/><path class="cls-1" d="M14.62,19.29a.93.93,0,1,1,.93-.93A.93.93,0,0,1,14.62,19.29Zm0-1a.07.07,0,0,0-.07.07c0,.08.15.08.15,0A.07.07,0,0,0,14.62,18.29Z"/><path class="cls-1" d="M18.45,4.75A.5.5,0,0,1,18,4a2.07,2.07,0,0,0-.92-2.39,3.61,3.61,0,0,0-3-.49A4,4,0,0,0,12,2.92c-.15.21-.31.42-.47.62a.5.5,0,0,1-.69.09l-.47-.36a3.88,3.88,0,0,0-2.28-1.1,2.37,2.37,0,0,0-1.73.75,1.65,1.65,0,0,0-.46,1.28.5.5,0,0,1-1,.09,2.65,2.65,0,0,1,.72-2A3.45,3.45,0,0,1,8.07,1.17,4.7,4.7,0,0,1,11,2.48l.06,0,.15-.2A4.92,4.92,0,0,1,13.78.18a4.57,4.57,0,0,1,3.88.63A3,3,0,0,1,18.9,4.47.5.5,0,0,1,18.45,4.75Z"/><path class="cls-1" d="M20.58,24.11a1.38,1.38,0,0,1-1.33-1l-2.68-10a1.38,1.38,0,0,1,1-1.69l.58-.16a1.38,1.38,0,0,1,1.69,1l2.68,10a1.38,1.38,0,0,1-1,1.69l-.58.16A1.36,1.36,0,0,1,20.58,24.11ZM18.48,12.2h-.1l-.58.16a.38.38,0,0,0-.27.46l2.68,10h0a.38.38,0,0,0,.18.23.37.37,0,0,0,.29,0l.58-.16a.38.38,0,0,0,.27-.46l-2.68-10A.38.38,0,0,0,18.48,12.2Z"/></svg>