<svg id="Layer_1" data-name="Layer 1" xmlns="http://www.w3.org/2000/svg" viewBox="0 0 24 24"><defs><style>.cls-1{fill:#777;}</style></defs><title>loft-bed</title><path class="cls-1" d="M23.5,0a.5.5,0,0,0-.5.5V.86A1.24,1.24,0,0,0,22.71.8H19a1.3,1.3,0,0,0-1.29,1.3V2.7a1.24,1.24,0,0,0,.06.3H5.17V1a.5.5,0,0,0-1,0V6H1V1A.5.5,0,0,0,0,1V23.5a.5.5,0,0,0,1,0V19H4.17V23.5a.5.5,0,0,0,1,0V7H23V23.52a.5.5,0,0,0,1,0V.48A.5.5,0,0,0,23.5,0ZM4.17,18H1V16H4.17Zm0-3H1V13H4.17Zm0-3H1V10H4.17Zm0-3H1V7H4.17ZM15.28,6H5.17V4H15.28ZM23,6H16.28V4H23Zm0-3.3a.3.3,0,0,1-.29.3H19a.3.3,0,0,1-.29-.3V2.09A.3.3,0,0,1,19,1.8h3.73a.3.3,0,0,1,.29.3Zm-2.22,14a1.6,1.6,0,0,0-.6.12v-.56a1.75,1.75,0,0,0-1.76-1.74H9.73a1.86,1.86,0,0,0-1.39.63A1.42,1.42,0,0,0,8,16.23v.57a1.66,1.66,0,0,0-.63-.12,1.5,1.5,0,0,0-1.51,1.49v2.73a1.57,1.57,0,0,0,1.58,1.55H8V23a.5.5,0,0,0,1,0v-.57H19.18V23a.5.5,0,0,0,1,0v-.57h.54a1.57,1.57,0,0,0,1.58-1.55V18.16A1.5,1.5,0,0,0,20.78,16.67Zm-6.21-1.19h3.85a.75.75,0,0,1,.76.74v3.07H14.57Zm-5.48.28a.87.87,0,0,1,.64-.28h3.84v3.81H9V16.15A.47.47,0,0,1,9.09,15.76ZM21.3,20.89a.57.57,0,0,1-.58.55H7.41a.57.57,0,0,1-.58-.55V18.16a.51.51,0,0,1,.51-.49c.3,0,.62.25.62.49v1.63a.5.5,0,0,0,.5.5H19.68a.5.5,0,0,0,.5-.5V18.16a.6.6,0,0,1,.61-.49.51.51,0,0,1,.51.49Z"/></svg>