<svg id="Layer_1" data-name="Layer 1" xmlns="http://www.w3.org/2000/svg" viewBox="0 0 24 24"><defs><style>.cls-1{fill:#777;}</style></defs><title>loudspeakers</title><path class="cls-1" d="M21.27,9.36a.5.5,0,0,0-.68.73,7.46,7.46,0,0,1,0,10.92.5.5,0,0,0,.68.73,8.46,8.46,0,0,0,0-12.39Zm-1.79,2.81a.5.5,0,0,0-.66.75,3.48,3.48,0,0,1,0,5.25.5.5,0,1,0,.66.75,4.48,4.48,0,0,0,0-6.76ZM16.54,0H.54A.5.5,0,0,0,0,.5v23a.5.5,0,0,0,.5.5h16a.5.5,0,0,0,.5-.5V.5A.5.5,0,0,0,16.54,0ZM16,23H1V1H16ZM8.54,8A2.55,2.55,0,1,0,6,5.49,2.55,2.55,0,0,0,8.54,8Zm0-4.1A1.55,1.55,0,1,1,7,5.49,1.55,1.55,0,0,1,8.54,3.94Zm0,17.12A5.5,5.5,0,1,0,3,15.56,5.51,5.51,0,0,0,8.54,21.06Zm0-10A4.5,4.5,0,1,1,4,15.56,4.51,4.51,0,0,1,8.54,11.05Zm0,6.72a2.22,2.22,0,1,0-2.22-2.22A2.22,2.22,0,0,0,8.54,17.78Zm0-3.44a1.22,1.22,0,1,1-1.22,1.22A1.22,1.22,0,0,1,8.54,14.34Z"/></svg>