<svg id="Layer_1" data-name="Layer 1" xmlns="http://www.w3.org/2000/svg" viewBox="0 0 24 24"><defs><style>.cls-1{fill:#777;}</style></defs><title>microwave</title><path class="cls-1" d="M21.12,17.26a1.33,1.33,0,1,0-1.33-1.33A1.33,1.33,0,0,0,21.12,17.26Zm0-1.66a.33.33,0,1,1-.33.33A.33.33,0,0,1,21.12,15.6ZM15.27,9.06a5.51,5.51,0,0,1-5.34,0,4.1,4.1,0,0,0-4.19,0,.5.5,0,0,0,.55.84,3.12,3.12,0,0,1,3.09,0,5.94,5.94,0,0,0,3.21.87,5.94,5.94,0,0,0,3.21-.88.5.5,0,0,0-.55-.84Zm0,3.38a5.52,5.52,0,0,1-5.34,0,4.1,4.1,0,0,0-4.19,0,.5.5,0,0,0,.55.84,3.12,3.12,0,0,1,3.09,0,5.94,5.94,0,0,0,3.21.87,5.94,5.94,0,0,0,3.21-.87.5.5,0,1,0-.55-.84ZM23.5,2.78H.5a.5.5,0,0,0-.5.5V19.14a.5.5,0,0,0,.5.5H2.45a2.08,2.08,0,0,0,2,1.59h.79a2.08,2.08,0,0,0,2-1.59h9.45a2.08,2.08,0,0,0,2,1.59h.79a2.08,2.08,0,0,0,2-1.59H23.5a.5.5,0,0,0,.5-.5V3.28A.5.5,0,0,0,23.5,2.78ZM5.26,20.22H4.47a1.09,1.09,0,0,1-1-.59H6.22A1.09,1.09,0,0,1,5.26,20.22Zm14.28,0h-.79a1.09,1.09,0,0,1-1-.59H20.5A1.09,1.09,0,0,1,19.53,20.22ZM23,18.64H1V3.78H23ZM2.88,17.26H18.74a.5.5,0,0,0,.5-.5V4.86a.5.5,0,0,0-.5-.5H2.88a.5.5,0,0,0-.5.5v11.9A.5.5,0,0,0,2.88,17.26Zm.5-11.9H18.24v10.9H3.38Z"/></svg>