<svg id="Layer_1" data-name="Layer 1" xmlns="http://www.w3.org/2000/svg" viewBox="0 0 24 24"><defs><style>.cls-1{fill:#787878;}</style></defs><title>miror</title><path class="cls-1" d="M18.81,0H5.19A2.43,2.43,0,0,0,2.76,2.43V21.57A2.43,2.43,0,0,0,5.19,24H18.81a2.43,2.43,0,0,0,2.43-2.43V2.43A2.43,2.43,0,0,0,18.81,0Zm1.43,21.57A1.43,1.43,0,0,1,18.81,23H5.19a1.43,1.43,0,0,1-1.43-1.43V2.43A1.43,1.43,0,0,1,5.19,1H18.81a1.43,1.43,0,0,1,1.43,1.43ZM17,1.86H7A2.43,2.43,0,0,0,4.62,4.28V19.72A2.43,2.43,0,0,0,7,22.14H17a2.43,2.43,0,0,0,2.43-2.43V4.28A2.43,2.43,0,0,0,17,1.86Zm1.43,17.86A1.43,1.43,0,0,1,17,21.14H7a1.43,1.43,0,0,1-1.43-1.43V4.28A1.43,1.43,0,0,1,7,2.86H17a1.43,1.43,0,0,1,1.43,1.43ZM7.59,11.39a.5.5,0,0,0,.32-.11L13.18,7a.5.5,0,1,0-.63-.77L7.27,10.5a.5.5,0,0,0,.32.89Zm8-3.45L7.27,14.74a.5.5,0,1,0,.63.77l8.31-6.79a.5.5,0,1,0-.63-.77Z"/></svg>