<svg id="Layer_1" data-name="Layer 1" xmlns="http://www.w3.org/2000/svg" viewBox="0 0 24 24"><defs><style>.cls-1{fill:#777;}</style></defs><title>office-desk</title><path class="cls-1" d="M4.87,4.59l.79-.79A.5.5,0,0,0,5,3.09l-.79.79a.5.5,0,1,0,.71.71Zm1.58-1.1L4.56,5.38a.5.5,0,1,0,.71.71L7.15,4.2a.5.5,0,1,0-.71-.71ZM22.8,10.06h-12V8.69h2.68a1.16,1.16,0,0,0,1.16-1.16V2.65a1.16,1.16,0,0,0-1.16-1.16H3.68A1.16,1.16,0,0,0,2.52,2.65V7.54A1.16,1.16,0,0,0,3.68,8.69H6.35v1.37H1.2A1.2,1.2,0,0,0,0,11.26v1.06a1.2,1.2,0,0,0,1.2,1.2h.27v8.62a.5.5,0,0,0,1,0V13.53H13.84v5.58a.5.5,0,0,0,.5.5h7.17v2.54a.5.5,0,0,0,1,0V13.53h.28a1.2,1.2,0,0,0,1.2-1.2V11.26A1.2,1.2,0,0,0,22.8,10.06ZM3.68,7.69a.16.16,0,0,1-.16-.16V2.65a.16.16,0,0,1,.16-.16h9.76a.16.16,0,0,1,.16.16V7.54a.16.16,0,0,1-.16.16Zm6.08,1v1.37H7.35V8.69Zm11.76,9.91H14.84v-2h6.67Zm0-3H14.84V13.53h6.67ZM23,12.33a.2.2,0,0,1-.2.2H1.2a.2.2,0,0,1-.2-.2V11.26a.21.21,0,0,1,.2-.2H22.8a.21.21,0,0,1,.2.2ZM17.47,15h1.42a.5.5,0,0,0,0-1H17.47a.5.5,0,0,0,0,1Zm0,3.19h1.42a.5.5,0,0,0,0-1H17.47a.5.5,0,0,0,0,1Z"/></svg>