<svg id="Layer_1" data-name="Layer 1" xmlns="http://www.w3.org/2000/svg" viewBox="0 0 24 24"><defs><style>.cls-1{fill:#777;}</style></defs><title>office-chair</title><path class="cls-1" d="M15.59,10.68h-.05a.5.5,0,0,1-.44-.55L16,1.43c0-.25-.19-.48-.35-.48H8.35c-.17,0-.35.23-.35.53l.91,8.65a.5.5,0,0,1-1,.1L7,1.53A1.46,1.46,0,0,1,8.35-.05h7.31A1.45,1.45,0,0,1,17,1.48l-.92,8.75A.5.5,0,0,1,15.59,10.68Z"/><path class="cls-1" d="M16.64,14.63H7.36a1.7,1.7,0,0,1,0-3.4h9.28a1.7,1.7,0,0,1,0,3.4Zm-9.28-2.4a.7.7,0,0,0,0,1.4h9.28a.7.7,0,0,0,0-1.4Z"/><path class="cls-1" d="M12,21.77a.5.5,0,0,1-.5-.5V14.13a.5.5,0,0,1,1,0v7.14A.5.5,0,0,1,12,21.77Z"/><path class="cls-1" d="M7.5,23.93a1,1,0,1,1,1-1A1,1,0,0,1,7.5,23.93Zm0-1.23a.24.24,0,0,0-.24.24c0,.26.49.26.49,0A.24.24,0,0,0,7.5,22.7Z"/><path class="cls-1" d="M12,23.93a1,1,0,1,1,1-1A1,1,0,0,1,12,23.93Zm0-1.23a.24.24,0,0,0-.24.24c0,.26.49.26.49,0A.24.24,0,0,0,12,22.7Z"/><path class="cls-1" d="M16.51,23.93a1,1,0,1,1,1-1A1,1,0,0,1,16.51,23.93Zm0-1.23a.24.24,0,0,0-.24.24c0,.26.49.26.49,0A.24.24,0,0,0,16.51,22.7Z"/><path class="cls-1" d="M6.14,13.44H5.55c-.88,0-1.52-.43-1.52-1V9.22c0-.59.64-1,1.52-1h.59a.5.5,0,0,1,0,1H5.55A1.08,1.08,0,0,0,5,9.31v3a1.07,1.07,0,0,0,.52.11h.59a.5.5,0,1,1,0,1Z"/><path class="cls-1" d="M18.45,13.44h-.59a.5.5,0,0,1,0-1h.59a1.06,1.06,0,0,0,.52-.11v-3a1.08,1.08,0,0,0-.52-.11h-.59a.5.5,0,0,1,0-1h.59c.88,0,1.52.43,1.52,1v3.19C20,13,19.33,13.44,18.45,13.44Z"/><path class="cls-1" d="M7.52,21.23a.5.5,0,0,1-.27-.92A9.08,9.08,0,0,1,12,19.08a9,9,0,0,1,4.75,1.23.5.5,0,1,1-.54.84A8,8,0,0,0,12,20.08a8.07,8.07,0,0,0-4.22,1.07A.5.5,0,0,1,7.52,21.23Z"/></svg>