<svg id="Layer_1" data-name="Layer 1" xmlns="http://www.w3.org/2000/svg" viewBox="0 0 24 24"><defs><style>.cls-1{fill:#787878;}</style></defs><title>picture</title><path class="cls-1" d="M6.47,9.48A2.5,2.5,0,1,0,9,12,2.51,2.51,0,0,0,6.47,9.48Zm0,4A1.5,1.5,0,1,1,8,12,1.51,1.51,0,0,1,6.47,13.48Zm15-7.19H16.64L13.46,2.57a1.67,1.67,0,0,0,.22-.83,1.69,1.69,0,0,0-3.38,0,1.67,1.67,0,0,0,.22.83L7.34,6.29H2.5A2.5,2.5,0,0,0,0,8.79V21.44a2.5,2.5,0,0,0,2.5,2.5h19a2.5,2.5,0,0,0,2.5-2.5V8.79A2.5,2.5,0,0,0,21.5,6.29ZM12,1.06a.69.69,0,1,1-.69.69A.69.69,0,0,1,12,1.06Zm-.74,2.2a1.63,1.63,0,0,0,1.48,0l2.59,3H8.66ZM23,21.44a1.5,1.5,0,0,1-1.5,1.5H6.4l6-8.45,2.46,3.34a.53.53,0,0,0,.42.2.5.5,0,0,0,.4-.23L19,12.62l4,6Zm0-4.65-3.64-5.37a.53.53,0,0,0-.42-.22.5.5,0,0,0-.41.23l-3.3,5.22-2.44-3.3a.44.44,0,0,0-.41-.2.5.5,0,0,0-.4.21L5.18,22.94H2.5A1.5,1.5,0,0,1,1,21.44V8.79a1.5,1.5,0,0,1,1.5-1.5h19A1.5,1.5,0,0,1,23,8.79Z"/></svg>