<svg id="Layer_1" data-name="Layer 1" xmlns="http://www.w3.org/2000/svg" viewBox="0 0 24 24"><defs><style>.cls-1{fill:#787878;}</style></defs><title>plant</title><path class="cls-1" d="M18.66,7.21a.49.49,0,0,0-.49-.49,7.87,7.87,0,0,0-6.53,3.17V5.71C14.56,5.5,16.86,3.46,16.86,1a.49.49,0,0,0-.49-.49,6.08,6.08,0,0,0-4.73,2.1V.49a.49.49,0,0,0-1,0V8A6,6,0,0,0,5.83,5.62a.49.49,0,0,0-.49.49,5.53,5.53,0,0,0,5.32,5.28v3.69c-1.32,0-4.65.28-4.82,1.63a.46.46,0,0,0,0,.08v0a.8.8,0,0,0,0,.09.45.45,0,0,0,0,.05v0a.84.84,0,0,0,.06.18L7.73,23c.19,1,2.87,1,3.42,1s3.24,0,3.42-1l1.82-5.84a.84.84,0,0,0,.06-.18v0a.45.45,0,0,0,0-.05.8.8,0,0,0,0-.09v0a.46.46,0,0,0,0-.08c-.17-1.35-3.5-1.59-4.82-1.63V13.42C15.55,13.21,18.66,10.51,18.66,7.21ZM15.84,1.49a4.45,4.45,0,0,1-4.14,3.24A4.45,4.45,0,0,1,15.84,1.49ZM6.35,6.62a4.62,4.62,0,0,1,4.28,3.78A4.62,4.62,0,0,1,6.35,6.62Zm11.3,1.1c-.3,2.52-2.83,4.53-6,4.73C12,10.18,14.29,7.93,17.65,7.71Zm-4,15a7.59,7.59,0,0,1-2.5.35,7.59,7.59,0,0,1-2.5-.35L7.21,18a15.12,15.12,0,0,0,3.94.5,15.12,15.12,0,0,0,3.94-.5Zm1.81-5.88c-.33.3-1.89.76-4.31.76s-4-.46-4.31-.76A8,8,0,0,1,10.66,16v.29a.49.49,0,0,0,1,0V16A8,8,0,0,1,15.46,16.8Z"/></svg>