<svg id="Layer_1" data-name="Layer 1" xmlns="http://www.w3.org/2000/svg" viewBox="0 0 24 24"><defs><style>.cls-1{fill:#777;}</style></defs><title>portable-wardrobe-organiser</title><path class="cls-1" d="M7.24,12a.5.5,0,0,0,.5-.5V10.39a.5.5,0,1,0-1,0v1.09A.5.5,0,0,0,7.24,12ZM22.11,1.24,17.51.08A.8.8,0,0,0,17.3,0h-15a.81.81,0,0,0-.81.81V21.07a.81.81,0,0,0,.81.81h0a.48.48,0,0,0,0,.14V23.1a.5.5,0,0,0,1,0V22a.48.48,0,0,0,0-.14H16.67a.48.48,0,0,0,0,.14V23.1a.5.5,0,0,0,1,0v-1L21.79,24a.49.49,0,0,0,.2,0,.5.5,0,0,0,.5-.5V1.72A.5.5,0,0,0,22.11,1.24ZM9.25,20.87H2.51V1H9.25Zm7.74,0H10.25V18.82H17Zm0-3.05H10.25V8.77h1V9.2a.5.5,0,0,0,1,0V8.77h.69V9.2a.5.5,0,0,0,1,0V8.77h.83V9.2a.5.5,0,0,0,1,0V8.77H17ZM17,7.77H15.78V7.14a.5.5,0,0,0-1,0v.63h-.83V7.14a.5.5,0,1,0-1,0v.63h-.69V7.14a.5.5,0,1,0-1,0v.63h-1V5H17ZM17,4H10.25V1H17Zm4.51,18.73L18,21.18a.76.76,0,0,0,0-.12V1.23l3.51.88Z"/></svg>