<svg id="Layer_1" data-name="Layer 1" xmlns="http://www.w3.org/2000/svg" viewBox="0 0 24 24"><defs><style>.cls-1{fill:#777;}</style></defs><title>printer-copier</title><path class="cls-1" d="M8.54,21h6.9a.5.5,0,1,0,0-1H8.54a.5.5,0,1,0,0,1Zm0-2h6.9a.5.5,0,0,0,0-1H8.54a.5.5,0,0,0,0,1Zm13-16H17.75L15.57.31A1,1,0,0,0,14.86,0H7A1,1,0,0,0,6,1V3H2.49A2.51,2.51,0,0,0,0,5.51v6.92a2.51,2.51,0,0,0,2.49,2.52h19A2.51,2.51,0,0,0,24,12.42V5.51A2.51,2.51,0,0,0,21.51,3ZM7,1l7.81,0L17,3.66V7H7ZM23,12.42a1.51,1.51,0,0,1-1.49,1.52h-19A1.51,1.51,0,0,1,1,12.42V5.51A1.51,1.51,0,0,1,2.49,4H6V7.52a.5.5,0,0,0,.5.5h11a.5.5,0,0,0,.5-.5V4h3.5A1.51,1.51,0,0,1,23,5.51Zm-5.49,3.65a.5.5,0,0,0-.5.5L17,23H7V16.58a.5.5,0,0,0-1,0V23a1,1,0,0,0,1,1H17a1,1,0,0,0,1-1V16.58A.5.5,0,0,0,17.51,16.08ZM20.69,11a.51.51,0,0,0-.55.11.51.51,0,0,0,0,.7.42.42,0,0,0,.16.11.44.44,0,0,0,.2,0,.48.48,0,0,0,.35-.15.46.46,0,0,0,.11-.16.59.59,0,0,0,0-.19.5.5,0,0,0-.14-.35A.41.41,0,0,0,20.69,11Z"/></svg>