<svg id="Layer_1" data-name="Layer 1" xmlns="http://www.w3.org/2000/svg" viewBox="0 0 24 24"><defs><style>.cls-1{fill:#777;}</style></defs><title>record-player</title><path class="cls-1" d="M10.35,2.13A10.35,10.35,0,1,0,20.7,12.48,10.36,10.36,0,0,0,10.35,2.13Zm0,19.7a9.35,9.35,0,1,1,9.35-9.35A9.36,9.36,0,0,1,10.35,21.83Zm0-10.76a1.41,1.41,0,1,0,1.42,1.41A1.42,1.42,0,0,0,10.35,11.07Zm0,1.83a.41.41,0,1,1,.42-.42A.41.41,0,0,1,10.35,12.9ZM23.5.43a.5.5,0,0,0-.5.5V14.8l-2.36,4.85a1,1,0,0,0-1.11.48l-.87,1.53A1,1,0,0,0,19.05,23l.69.39a1,1,0,0,0,1.39-.38L22,21.53a1,1,0,0,0-.38-1.39l-.08,0,2.41-5a.52.52,0,0,0,0-.22V.93A.5.5,0,0,0,23.5.43ZM20.24,22.57l-.7-.42.89-1.53.69.39.25-.43ZM10.35,9a3.44,3.44,0,1,0,3.44,3.44A3.45,3.45,0,0,0,10.35,9Zm0,5.88a2.44,2.44,0,1,1,2.44-2.44A2.45,2.45,0,0,1,10.35,14.93Z"/></svg>