<svg id="Layer_1" data-name="Layer 1" xmlns="http://www.w3.org/2000/svg" viewBox="0 0 24 24"><defs><style>.cls-1{fill:#777;}</style></defs><title>refrigerator</title><path class="cls-1" d="M19,0H5a1.5,1.5,0,0,0-1.5,1.5v21A1.5,1.5,0,0,0,5,24H19a1.5,1.5,0,0,0,1.5-1.5V1.5A1.5,1.5,0,0,0,19,0Zm.5,22.5a.5.5,0,0,1-.5.5H5a.5.5,0,0,1-.5-.5v-10H19.53Zm0-11H4.47V1.5A.5.5,0,0,1,5,1H19a.5.5,0,0,1,.5.5ZM6.13,6.05a.5.5,0,0,0-.5.5V10a.5.5,0,1,0,1,0V6.55A.5.5,0,0,0,6.13,6.05Zm0,12a.5.5,0,0,0,.5-.5V14.09a.5.5,0,0,0-1,0v3.44A.5.5,0,0,0,6.13,18Z"/></svg>