<svg id="Layer_1" data-name="Layer 1" xmlns="http://www.w3.org/2000/svg" viewBox="0 0 24 24"><defs><style>.cls-1{fill:none;stroke:#777;stroke-linecap:round;stroke-linejoin:round;}</style></defs><title>roller-shutter-cupboard</title><path class="cls-1" d="M19.42.56c-1.43,0-2.16,2.2-2.24,3.66V23.47l3.94-2.16V4.59c0-2.23-.48-4-1.7-4"/><path class="cls-1" d="M5.11.5a1.57,1.57,0,0,0-1.3.77,6,6,0,0,0-.94,3v18.2"/><path class="cls-1" d="M17.18,23.5,2.88,22.45Z"/><path class="cls-1" d="M17.18,5.67h0Z"/><path class="cls-1" d="M5.11.5l14.3.06Z"/><polyline class="cls-1" points="8.08 4.43 8.08 3.6 11.1 3.6 11.1 4.43"/><path class="cls-1" d="M6.9,20.49l10,.58Z"/><polyline class="cls-1" points="6.9 15.26 6.9 20.49 2.88 21.92"/><polyline class="cls-1" points="17.18 15.52 2.88 15.12 6.9 13.52 17.18 13.82"/><line class="cls-1" x1="6.9" y1="13.37" x2="6.9" y2="6.22"/></svg>