<svg id="Layer_1" data-name="Layer 1" xmlns="http://www.w3.org/2000/svg" viewBox="0 0 24 24"><defs><style>.cls-1{fill:#777;}</style></defs><title>rowing-machine</title><path class="cls-1" d="M7.45,14.57a.49.49,0,0,0,.21,0l5.61-2.64a.5.5,0,1,0-.43-.9L7.23,13.62a.5.5,0,0,0,.21,1Zm10-6.65a1.33,1.33,0,1,0,1.33,1.33A1.33,1.33,0,0,0,17.41,7.92Zm0,1.66a.33.33,0,1,1,.33-.33A.33.33,0,0,1,17.41,9.58Zm-5.45,1,.16,0a.5.5,0,0,0,.32-.63,4.55,4.55,0,0,1-.23-1.42,4.61,4.61,0,0,1,2.4-4.05L15,4.27l.15,0,.4-.14.15,0A3.28,3.28,0,0,1,16.14,4l.14,0a4.69,4.69,0,0,1,2,.19.5.5,0,0,0,.32-.95A5.45,5.45,0,0,0,16.14,3l.07.5L16,3a4.2,4.2,0,0,0-.59.12l-.11,0-.52.18.1.49-.2-.46a6.43,6.43,0,0,0-.58.28,5.61,5.61,0,0,0-2.64,6.66A.5.5,0,0,0,12,10.61Zm7.67,4.29a.59.59,0,0,0,.17,0l.41-.13.12,0,.11,0c.19-.08.36-.15.55-.25a5.62,5.62,0,0,0,3-4.87,5.52,5.52,0,0,0-.24-1.74.5.5,0,1,0-1,.3A4.5,4.5,0,0,1,23,9.52a4.62,4.62,0,0,1-2.48,4l-.42.2-.19.06-.3.1v-1a.49.49,0,0,0,0-.15,4.12,4.12,0,0,0,2-3.52A4.18,4.18,0,0,0,17.4,5.08a4.4,4.4,0,0,0-.49,0l-.1,0-.38.07-.13,0-.46.16a4.36,4.36,0,0,0-.43.21,4.14,4.14,0,0,0-.61,6.86L8.43,15.61H6.86s0,0,0,0v-.43a1.16,1.16,0,0,0-1.07-1.23H2.24a1.16,1.16,0,0,0-1.08,1.23v.43s0,0,0,0H.5a.5.5,0,0,0,0,1H2.36v3.49H.5a.5.5,0,0,0,0,1H21.07a.5.5,0,0,0,0-1H19.61V14.9Zm-17.47.71s0,0,0,0v-.43a.32.32,0,0,1,.08-.23H5.78a.29.29,0,0,1,.09.23v.43s0,0,0,0ZM4,16.77v3.33H3.36V16.61H4A.49.49,0,0,0,4,16.77Zm12.93,3.33H5V16.77a.49.49,0,0,0,0-.16H8.54a.5.5,0,0,0,.22-.05l6.83-3.37a.5.5,0,0,0,.16-.12,4.19,4.19,0,0,0,1.16.3ZM14.25,9.25a3.17,3.17,0,0,1,1.64-2.77,3.36,3.36,0,0,1,.39-.18l.27-.09.1,0L17,6.11l.4,0a3.16,3.16,0,1,1-3.17,3.16Zm4.36,10.85h-.7V13.36a4.17,4.17,0,0,0,.7-.15Z"/></svg>