<svg id="Layer_1" data-name="Layer 1" xmlns="http://www.w3.org/2000/svg" viewBox="0 0 24 24"><defs><style>.cls-1{fill:#787878;}</style></defs><title>safe</title><path class="cls-1" d="M9.05,7.09a4.81,4.81,0,1,0,6.8,0A4.77,4.77,0,0,0,9.05,7.09Zm6.09,6.09a3.81,3.81,0,1,1,1.11-2.69A3.81,3.81,0,0,1,15.14,13.18Zm-1.06-5-.74.74A1.84,1.84,0,1,0,14,9.6l.74-.74a.5.5,0,0,0-.71-.71Zm-1,2.93A.84.84,0,1,1,13,9.9.84.84,0,0,1,13,11.08ZM23.5,0H.5A.5.5,0,0,0,0,.5V20.33a.5.5,0,0,0,.5.5H3.17V23.5a.5.5,0,0,0,.5.5h4a.5.5,0,0,0,.5-.5V20.83h7.72V23.5a.5.5,0,0,0,.5.5h4a.5.5,0,0,0,.5-.5V20.83H23.5a.5.5,0,0,0,.5-.5V.5A.5.5,0,0,0,23.5,0ZM7.14,23h-3V20.83h3Zm12.69,0h-3V20.83h3ZM23,19.83H1V1H23ZM2.88,15.28H4v2.67a.5.5,0,0,0,.5.5H20.33a.5.5,0,0,0,.5-.5V2.88a.5.5,0,0,0-.5-.5H4.47a.5.5,0,0,0-.5.5V5.55H2.88a.5.5,0,0,0-.5.5V7.64a.5.5,0,0,0,.5.5H4v4.55H2.88a.5.5,0,0,0-.5.5v1.59A.5.5,0,0,0,2.88,15.28ZM5,3.38H19.83V17.45H5ZM3.38,7.14V6.55H4v.59Zm0,6.55H4v.59H3.38Z"/></svg>