<svg id="Layer_1" data-name="Layer 1" xmlns="http://www.w3.org/2000/svg" viewBox="0 0 24 24"><defs><style>.cls-1{fill:#787878;}</style></defs><title>sculpture</title><path class="cls-1" d="M24,21.41a.44.44,0,0,0,0-.06.46.46,0,0,0-.07-.17v0l-3.21-4a.48.48,0,0,0-.37-.18H19.08a9.27,9.27,0,0,0,.55-4.09A51.05,51.05,0,0,0,18,6.64a.47.47,0,0,0-.12-.19L15.7,4.82h0a.48.48,0,0,0-.25-.08h-.12l-3.67.78a.48.48,0,0,0-.37.56s.92,4.75-.65,7A9.74,9.74,0,0,1,9.34,12,14.7,14.7,0,0,1,5.82,5.49C5.74,5.19,4.92,1.28,4.87,1a.49.49,0,0,0,0-.14A.48.48,0,0,0,4.41.53L1.16.41h0A.48.48,0,0,0,.67.83c-1.34,10.09,2.27,15,2.42,15.23a11,11,0,0,0,.7.87H3.48a.48.48,0,0,0-.38.19l-3,4v0a.46.46,0,0,0-.07.17.46.46,0,0,0,0,.05V23a.48.48,0,0,0,.48.48h23A.48.48,0,0,0,24,23V21.44S24,21.42,24,21.41ZM11.44,13.63c1.48-2.19,1.07-6,.86-7.27l2.82-.6c.07.22.18.5.31.82,1.15,3.08.92,4.54.73,5.62l0,.08a4.59,4.59,0,0,1-.2.53l0,.1a3.8,3.8,0,0,1-.32.56,2.32,2.32,0,0,1-.4.44l-.1.08a2,2,0,0,1-.36.22l-.12.05a2.05,2.05,0,0,1-.36.09l-.17,0h-.21a2.83,2.83,0,0,1-.39,0l-.25,0-.36-.08-.26-.08L12.24,14l-.24-.1-.49-.25ZM4.89,5.73a15.67,15.67,0,0,0,3.76,6.94,11,11,0,0,0,1.81,1.48h0l.06,0c.24.16.49.3.75.44l.17.09c.2.1.4.18.61.26l.28.1.44.12.42.09.28,0c.12,0,.24,0,.35,0l.18,0h.09l.18,0a3.09,3.09,0,0,0,.42-.08,2.85,2.85,0,0,0,.31-.12,2.82,2.82,0,0,0,.31-.14,2.87,2.87,0,0,0,.36-.25c.07-.05.14-.09.2-.15a3.41,3.41,0,0,0,.49-.56,4.82,4.82,0,0,0,.39-.68c0-.05,0-.11.07-.17a5.42,5.42,0,0,0,.23-.59l0-.05,0-.12h0a6.35,6.35,0,0,0,.22-1.32,10.25,10.25,0,0,0-.36-3A12.47,12.47,0,0,0,16.5,6.6l.65.48a48.54,48.54,0,0,1,1.52,5.84,7.83,7.83,0,0,1-.76,4.26h0a4.61,4.61,0,0,1-.37.58l-.12.13a3.73,3.73,0,0,1-.44.45,3.4,3.4,0,0,1-.47.35l-.25.13a3.36,3.36,0,0,1-.51.2l-.15,0a3.9,3.9,0,0,1-.73.11h-.21a5.09,5.09,0,0,1-.84-.05,11.25,11.25,0,0,1-1.43-.31c-.16,0-.3-.11-.46-.16s-.59-.19-.87-.32-.34-.17-.51-.26-.49-.24-.72-.37-.34-.23-.51-.34-.43-.28-.63-.43-.32-.28-.48-.41-.38-.32-.56-.49-.3-.32-.45-.48-.34-.35-.5-.54-.28-.36-.42-.53-.31-.39-.45-.59-.25-.39-.38-.58-.27-.42-.4-.63-.23-.42-.34-.63-.24-.44-.35-.67-.2-.44-.3-.66-.21-.46-.31-.7-.18-.46-.27-.69-.18-.48-.27-.72S3.06,8.11,3,7.87s-.16-.5-.23-.75-.13-.48-.19-.73-.13-.51-.19-.76-.11-.49-.16-.73-.11-.52-.15-.77S2,3.64,1.94,3.39s-.08-.52-.12-.77-.06-.49-.09-.74,0-.33-.05-.49L4,1.48C4.17,2.88,4.88,5.69,4.89,5.73ZM1.34,5.41l0,.18L1.47,6q.13.53.27,1.06l.12.43c.12.43.26.85.4,1.27l0,.12c.16.46.33.9.51,1.35l.15.37q.21.5.44,1l.18.37A19.92,19.92,0,0,0,5,14.33l.23.32q.3.42.63.81l.24.29c.29.34.6.67.92,1l.1.09c.29.28.6.54.91.78l.13.11,0,0a.53.53,0,0,0,.13.09h0q.4.29.82.56l.31.19a11.86,11.86,0,0,0,1.18.61l.21.08c.26.11.52.21.78.3h0l-.63,0a11.21,11.21,0,0,1-1.81-.33l-.09,0c-.25-.07-.5-.15-.76-.24l-.07,0a9.46,9.46,0,0,1-2-1c-.16-.11-.32-.22-.48-.34l-.36-.29a9.86,9.86,0,0,1-1.61-1.76S1.41,12.13,1.34,5.41ZM3.72,17.88h1l.19.15.42.34.35.26.29.19q.43.28.87.5l.09,0a12.17,12.17,0,0,0,6.62,1.13h0l.52-.07.15,0,.41-.07.21,0,.32-.07.22-.06.27-.08.2-.07.21-.07.35-.15h0A4.31,4.31,0,0,0,17,19.5l.12-.08A4.36,4.36,0,0,0,17.7,19l.05,0c.06-.06.11-.12.17-.18s.22-.23.32-.35.15-.21.23-.32.1-.14.15-.21h1.47L22.53,21H1.43ZM23,22.53H1v-.61H23Z"/></svg>