<svg id="Layer_1" data-name="Layer 1" xmlns="http://www.w3.org/2000/svg" viewBox="0 0 24 24"><defs><style>.cls-1{fill:#777;}</style></defs><title>shelf</title><path class="cls-1" d="M20.94,0H3.06a.5.5,0,0,0-.5.5V21.42h0v2a.5.5,0,0,0,1,0V21.92H20.44V23.5a.5.5,0,0,0,1,0V21.44h0V.5A.5.5,0,0,0,20.94,0ZM3.56,6.26H11.5v4.22H3.56Zm16.87,4.22H12.5V6.26h7.94Zm-16.87,1H11.5V15.7H3.56Zm8.94,0h7.94V15.7H12.5Zm7.94,5.22v4.22H12.5V16.7Zm0-11.44H12.5V1h7.94ZM11.5,1V5.26H3.56V1ZM3.56,16.7H11.5v4.22H3.56Z"/></svg>