<svg id="Layer_1" data-name="Layer 1" xmlns="http://www.w3.org/2000/svg" viewBox="0 0 24 24"><defs><style>.cls-1{fill:#777;}</style></defs><title>shoe-cabinet</title><path class="cls-1" d="M23.5.84H.5a.5.5,0,0,0-.5.5V21.69a.5.5,0,0,0,.5.5h23a.5.5,0,0,0,.5-.5V1.34A.5.5,0,0,0,23.5.84ZM23,21.19H1V11.88H23Zm0-10.32H1v-9H23ZM3.54,10.31l.11,0a1.25,1.25,0,0,0,.54.12H6.75a1.32,1.32,0,0,0,.36,0A3.34,3.34,0,0,0,8.6,9.49c.23-.23.46-.51.68-.77l.35-.41.49,2.16h1.58a.5.5,0,0,0,.5-.48l.1-2.22a3.77,3.77,0,0,0,.34-2.58c-.31-1.37-.79-1.69-1.13-1.72h0l-.08,0-.1,0-.09.06-.06,0c-.24.22-.53.53-.87.89C9.08,5.71,6.9,8,5.66,7.49a.47.47,0,0,0-.16,0H5.42c-.34,0-2.08.13-2.62,1a1.25,1.25,0,0,0,0,1.25A1.22,1.22,0,0,0,3.54,10.31ZM3.67,9c.18-.31,1.09-.51,1.73-.55A2,2,0,0,0,6,8.57c1.71,0,3.61-2,4.93-3.4l.46-.48a4.12,4.12,0,0,1,.22.72,2.7,2.7,0,0,1-.28,1.94.5.5,0,0,0-.08.25l-.09,1.87H10.6c0-.81-.11-2.27-.53-2.42s-1,.32-1.57,1c-.2.24-.41.5-.62.71a2.31,2.31,0,0,1-1.14.69H4.19a.26.26,0,0,1-.11,0l-.19-.08L3.71,9.3C3.61,9.1,3.65,9,3.67,9ZM9.46,20.71H20.64a.5.5,0,0,0,.47-.32l.51-1.3a.48.48,0,0,0-.21-.6V16.6a.86.86,0,0,0-.35-.7.78.78,0,0,0-.54-.14h-.18a3.31,3.31,0,0,1-3.09-.58l.18-.9a.5.5,0,0,0-.76-.52l-1.32.83-4.59,1.67A2.58,2.58,0,0,0,8.6,18.56a.63.63,0,0,0-.2.44,2,2,0,0,0,.36,1.45A1,1,0,0,0,9.46,20.71Zm11-3.55v1.25h-.28A3.22,3.22,0,0,1,20.41,17.16Zm-8.88-.1.79-.29.53,1a.5.5,0,0,0,.44.27.49.49,0,0,0,.23-.06.5.5,0,0,0,.22-.67l-.48-.92.07,0,.69,1a.5.5,0,0,0,.83-.56l-.55-.81h0l.86,1.13a.5.5,0,0,0,.79-.61l-.67-.88.29-.11.86.25a3.94,3.94,0,0,0,2.95,1.11,4.52,4.52,0,0,0-.28,1.47h-7.6Zm-1,.32v1H9.62A1.49,1.49,0,0,1,10.53,17.39Zm9.89,2-.12.3H9.46a1,1,0,0,1,0-.3Z"/></svg>