<svg id="Layer_1" data-name="Layer 1" xmlns="http://www.w3.org/2000/svg" viewBox="0 0 24 24"><defs><style>.cls-1{fill:#777;}</style></defs><title>showcase</title><path class="cls-1" d="M18.85.46a.48.48,0,0,0,0-.09v0a.49.49,0,0,0-.15-.23l0,0A.49.49,0,0,0,18.36,0H8.28a.49.49,0,0,0-.23.06H8L5.39,1.58a.5.5,0,0,0-.24.51.47.47,0,0,0,0,.06v21a.5.5,0,0,0,1,0V20.73l1.64.94V23.5a.5.5,0,0,0,1,0V21.88h6.44V22a.5.5,0,0,0,1,0v-.15h1.64V23.5a.5.5,0,0,0,1,0V.5S18.85.47,18.85.46ZM15.22,19.37H8.78v-4.7h6.44Zm-6.44-5.7V8.21h6.44v5.46ZM16.22,2.38l1.64-1V7.21H16.22Zm-1,4.84H8.78V2.51h6.44Zm-7.44,0H6.14V2.51H7.78Zm-1.64,1H7.78v5.46H6.14Zm10.08,0h1.64v5.46H16.22ZM16.56,1l-.85.51H8.78V1Zm-8.78.36v.15H7.52ZM6.14,14.67H7.78v4.7H6.14Zm1.38,5.7h.26v.15Zm1.26.51v-.51h6.93l.85.51Zm7.44-1.38V14.67h1.64v5.83Z"/></svg>