<svg id="Layer_1" data-name="Layer 1" xmlns="http://www.w3.org/2000/svg" viewBox="0 0 24 24"><defs><style>.cls-1{fill:#777;}</style></defs><title>side-table</title><path class="cls-1" d="M24,10.54a.49.49,0,0,0,0-.14v0a.5.5,0,0,0-.1-.15l0,0-.08-.06L19.71,8a.5.5,0,0,0-.23-.06H4.55A.5.5,0,0,0,4.32,8l-4,2.12-.08.06,0,0a.5.5,0,0,0-.1.15v0a.49.49,0,0,0,0,.14v5.73a.5.5,0,1,0,1,0V15.19H4a.5.5,0,0,0,1,0h13.9a.5.5,0,0,0,1,0H23v1.22a.5.5,0,0,0,1,0V10.54ZM4.67,8.94H19.35l2.13,1.12h-19Zm14.28,3.43H5v-1.3h13.9ZM1,11.06H4v1.48L1,13.91Zm1.82,3.13,1.83-.83H19.37l1.82.83ZM23,13.91l-3.05-1.38V11.06H23Z"/></svg>