<svg id="Layer_1" data-name="Layer 1" xmlns="http://www.w3.org/2000/svg" viewBox="0 0 24 24"><defs><style>.cls-1{fill:#777;}</style></defs><title>sideboard</title><path class="cls-1" d="M24,8.35a.48.48,0,0,0,0-.07l0,0,0-.07,0,0h0l0,0L23.81,8l0,0,0,0-.07,0-.07,0h0L2.11,5.08a.49.49,0,0,0-.31.06L.25,6A.49.49,0,0,0,0,6.59a.49.49,0,0,0,0,.12V12a.5.5,0,0,0,.42.49l.38.06v2a.5.5,0,0,0,1,0V12.76L3.48,13v.81a.5.5,0,0,0,1,0V13.2l16.1,2.62v2.51a.5.5,0,0,0,1,0V16l.16,0h.08A.49.49,0,0,0,22,16h0l.55-.29v1a.5.5,0,0,0,1,0V15.13l.13-.07a.5.5,0,0,0,.26-.44V8.4S24,8.37,24,8.35Zm-1,6-.68.36V9.79L23,9.34ZM1,11.62V7.28l3.49.46v4.44ZM5.49,7.88l4,.52V13l-4-.65Zm5,.66,4.63.61v4.77l-4.63-.75Zm5.63.74,5.23.69v5l-5.23-.85ZM2.15,6.1l20,2.63L21.7,9l-20-2.64Z"/></svg>