<svg id="Layer_1" data-name="Layer 1" xmlns="http://www.w3.org/2000/svg" viewBox="0 0 24 24"><defs><style>.cls-1{fill:#777;}</style></defs><title>singel bed</title><path class="cls-1" d="M22,11.58a.5.5,0,0,0-.2,0h-12a1.24,1.24,0,0,0,.06-.3v-.61a1.3,1.3,0,0,0-1.3-1.3H4.81a1.24,1.24,0,0,0-.3.06V5.59a.5.5,0,0,0-.5-.5H.56a.5.5,0,0,0-.5.5v11a.5.5,0,0,0,.5.5H1.62v1.28a.5.5,0,0,0,1,0V17.13h19v1.29a.5.5,0,0,0,1,0V17.13h.79a.5.5,0,0,0,.5-.5V14.15A2.58,2.58,0,0,0,22,11.58Zm1,2.57v2H4.52V12.54h17A1.54,1.54,0,0,1,22.94,14.15ZM4.81,10.34H8.54a.3.3,0,0,1,.3.3v.61a.3.3,0,0,1-.3.3H4.81a.3.3,0,0,1-.3-.3v-.61A.3.3,0,0,1,4.81,10.34ZM1.06,6.09H3.52v10H1.06Z"/></svg>