<svg id="Layer_1" data-name="Layer 1" xmlns="http://www.w3.org/2000/svg" viewBox="0 0 24 24"><defs><style>.cls-1{fill:#777;}</style></defs><title>ski-case</title><path class="cls-1" d="M22.63,1.5C21.28.15,18.6-.42,17.29.9L15.55,2.75l-.81-.81a1.24,1.24,0,0,0-1.76,0L6.47,8.52a1.24,1.24,0,0,0,0,1.75l1,1-.83.88-.84-.84a1.24,1.24,0,0,0-1.75,0L.56,14.82a1.24,1.24,0,0,0,0,1.75l1,1L1.16,18a3.24,3.24,0,0,0-.94,2.41,3.6,3.6,0,0,0,3.48,3.48h.1A3.23,3.23,0,0,0,6.1,23L22.74,6.33A3.42,3.42,0,0,0,22.63,1.5Zm-21.36,14L4.79,12A.2.2,0,0,1,4.93,12a.28.28,0,0,1,.2.08L6,12.9,2.28,16.84l-1-1A.25.25,0,0,1,1.27,15.52Zm5.93-6a.25.25,0,0,1,0-.34l6.51-6.61a.2.2,0,0,1,.14-.06.28.28,0,0,1,.2.08l.84.84-5,5.34L8.19,10.56ZM22,5.62,5.39,22.27a2.17,2.17,0,0,1-1.67.65,2.6,2.6,0,0,1-2.5-2.5,2.26,2.26,0,0,1,.66-1.68l.78-.83h0l.28-.3,5.63-6h0l6.78-7.21L18,1.6a1.8,1.8,0,0,1,1.3-.45,4,4,0,0,1,2.61,1.07A2.56,2.56,0,0,1,22.68,4,2.25,2.25,0,0,1,22,5.62Z"/></svg>