<svg id="Layer_1" data-name="Layer 1" xmlns="http://www.w3.org/2000/svg" viewBox="0 0 24 24"><defs><style>.cls-1{fill:#777;}</style></defs><title>skis-or-snowboard</title><path class="cls-1" d="M19.49,10.59h0c1.2-1,2.34-1.91,3.15-2.73a4.6,4.6,0,0,0-6.51-6.51c-.81.81-1.74,1.95-2.73,3.15C12.18,6,10.79,7.71,9.25,9.25S6,12.18,4.5,13.41c-1.2,1-2.34,1.91-3.15,2.73a4.6,4.6,0,0,0,6.51,6.51c.81-.81,1.74-1.95,2.73-3.15,1.23-1.5,2.63-3.21,4.17-4.75S18,11.82,19.49,10.59ZM9.81,18.87c-1,1.18-1.88,2.3-2.66,3.07a3.69,3.69,0,0,1-5.1,0,3.61,3.61,0,0,1,0-5.1c.78-.78,1.9-1.69,3.08-2.66C6.66,12.94,8.38,11.53,10,10s3-3.3,4.24-4.83c1-1.18,1.88-2.3,2.66-3.07a3.6,3.6,0,0,1,5.1,5.1c-.78.78-1.9,1.69-3.08,2.66h0C17.34,11.06,15.61,12.48,14,14S11.06,17.34,9.81,18.87ZM17.92,6.72a1,1,0,1,0,1,1A1,1,0,0,0,17.92,6.72Zm0,1.33a.29.29,0,1,1,.29-.29A.29.29,0,0,1,17.92,8.05Zm0-2.59a1,1,0,1,0-1-1A1,1,0,0,0,17.92,5.47Zm0-1.33a.29.29,0,1,1-.29.29A.29.29,0,0,1,17.92,4.14Zm.63,2a1,1,0,1,0,1-1A1,1,0,0,0,18.55,6.09Zm1-.29a.29.29,0,1,1-.29.29A.29.29,0,0,1,19.59,5.81Zm-2.3.29a1,1,0,1,0-1,1A1,1,0,0,0,17.29,6.09Zm-1,.29a.29.29,0,1,1,.29-.29A.29.29,0,0,1,16.25,6.38ZM4.83,18.55a1,1,0,1,0-1,1A1,1,0,0,0,4.83,18.55Zm-1,.29a.29.29,0,1,1,.29-.29A.29.29,0,0,1,3.8,18.84Zm1.67-.92a1,1,0,1,0-1-1A1,1,0,0,0,5.46,17.92Zm0-1.33a.29.29,0,1,1-.29.29A.29.29,0,0,1,5.46,16.59Zm1.67.92a1,1,0,1,0,1,1A1,1,0,0,0,7.13,17.51Zm0,1.33a.29.29,0,1,1,.29-.29A.29.29,0,0,1,7.13,18.84Zm-1.67.34a1,1,0,1,0,1,1A1,1,0,0,0,5.46,19.18Zm0,1.33a.29.29,0,1,1,.29-.29A.29.29,0,0,1,5.46,20.51Zm9.78-4.86a.5.5,0,0,0-.71.71L19,20.79,17,22.74l-4.35-4.35a.5.5,0,0,0-.71.71l4.71,4.71a.5.5,0,0,0,.71,0L20,21.15a.5.5,0,0,0,0-.71ZM.9,8l3.86,3.86a.5.5,0,0,0,.71-.71l-3.8-3.8c-.53-1.1-.82-2.33-.6-2.55s1.44.07,2.55.6L7.44,9.27a.5.5,0,0,0,.71-.71L4.26,4.67a.5.5,0,0,0-.13-.09C3.47,4.25,1.24,3.24.36,4.13S.48,7.24.81,7.9A.49.49,0,0,0,.9,8Zm18.38,4.08a.5.5,0,0,0-.71.71L22.76,17l-1.95,1.95-4.21-4.21a.5.5,0,0,0-.71.71L20.46,20a.5.5,0,0,0,.71,0l2.65-2.65a.5.5,0,0,0,0-.71ZM4.69,4.24,8.57,8.12a.5.5,0,1,0,.71-.71L5.46,3.59C4.93,2.51,4.64,1.26,4.86,1s1.45.07,2.55.6l3.8,3.8a.5.5,0,0,0,.71-.71L8.05.88A.5.5,0,0,0,7.92.78C7.26.46,5-.55,4.15.33s.12,3.11.45,3.77A.5.5,0,0,0,4.69,4.24Z"/></svg>