<svg id="Layer_1" data-name="Layer 1" xmlns="http://www.w3.org/2000/svg" viewBox="0 0 24 24"><defs><style>.cls-1{fill:#777;}</style></defs><title>sliding-door-cabinet</title><path class="cls-1" d="M21,.44,18.26,0h-.2L3,2.46A.5.5,0,0,0,2.55,3V19.73a.5.5,0,0,0,.38.49L18,24h.12a.51.51,0,0,0,.24-.06l2.82-1.58a.5.5,0,0,0,.26-.44V.94A.5.5,0,0,0,21,.44ZM3.55,9l5.28-.22v6l-5.28-.39Zm6.28-.26,7.81-.32v7l-7.81-.57Zm0-1V2.36l7.81-1.27V7.38Zm7.81,8.64v6.51l-7.81-2V15.78ZM8.83,2.52V7.75L3.55,8V3.38ZM3.55,15.32l5.28.39v5L3.55,19.33Zm16.91,6.31-1.82,1V1.08l1.82.28Z"/></svg>