<svg id="Layer_1" data-name="Layer 1" xmlns="http://www.w3.org/2000/svg" viewBox="0 0 24 24"><defs><style>.cls-1{fill:#777;}</style></defs><title>small-stool</title><path class="cls-1" d="M4.52,20.57A1.54,1.54,0,0,1,3,18.76L4.88,8.09a.5.5,0,1,1,1,.17L4,18.94a.53.53,0,0,0,.12.44A.56.56,0,0,0,5,19.13l2.18-11a.5.5,0,0,1,1,.19L6,19.33A1.54,1.54,0,0,1,4.52,20.57Z"/><path class="cls-1" d="M19.48,20.54A1.54,1.54,0,0,1,18,19.3l-2.18-11a.5.5,0,0,1,1-.19l2.18,11a.56.56,0,0,0,.94.24.53.53,0,0,0,.12-.44L18.14,8.27a.5.5,0,1,1,1-.17L21,18.74a1.54,1.54,0,0,1-1.51,1.8Z"/><path class="cls-1" d="M21.65,8.68H2.35A2.36,2.36,0,0,1,0,6.33V5.79A2.36,2.36,0,0,1,2.35,3.43H21.65A2.36,2.36,0,0,1,24,5.79v.54A2.36,2.36,0,0,1,21.65,8.68ZM2.35,4.43A1.35,1.35,0,0,0,1,5.79v.54A1.35,1.35,0,0,0,2.35,7.68H21.65A1.35,1.35,0,0,0,23,6.33V5.79a1.35,1.35,0,0,0-1.35-1.35Z"/></svg>