<svg id="Layer_1" data-name="Layer 1" xmlns="http://www.w3.org/2000/svg" viewBox="0 0 24 24"><defs><style>.cls-1{fill:#777;}</style></defs><title>stands-pillars</title><path class="cls-1" d="M15.72.62a1.6,1.6,0,0,0-1.6,1.6,1.58,1.58,0,0,0,.18.72h0L12.5,4.59V3.11a1.6,1.6,0,1,0-1,0V4.59L9.72,3h0a1.58,1.58,0,0,0,.18-.72,1.6,1.6,0,1,0-1.6,1.6A1.58,1.58,0,0,0,9,3.64l0,.05,2.29,2.1a.5.5,0,0,0,.17.1V18.58H9.83a.34.34,0,0,0-.34.34v.32a.34.34,0,0,0,.34.34H11.5v.84A3.22,3.22,0,0,0,8.73,23.5a.5.5,0,0,0,.5.5h5.54a.5.5,0,0,0,.5-.5,3.22,3.22,0,0,0-2.77-3.07v-.84h1.67a.34.34,0,0,0,.34-.34v-.32a.34.34,0,0,0-.34-.34H12.5V5.89a.5.5,0,0,0,.17-.1L15,3.69l0-.05a1.58,1.58,0,0,0,.72.18,1.6,1.6,0,0,0,0-3.2ZM8.28,2.82a.6.6,0,1,1,.6-.6A.6.6,0,0,1,8.28,2.82ZM14.2,23H9.8a2.3,2.3,0,0,1,1.7-1.56v.5a.5.5,0,1,0,1,0v-.5A2.3,2.3,0,0,1,14.2,23ZM12,2.2a.6.6,0,1,1,.6-.6A.6.6,0,0,1,12,2.2Zm3.72.62a.6.6,0,1,1,.6-.6A.6.6,0,0,1,15.72,2.82Z"/></svg>