<svg id="Layer_1" data-name="Layer 1" xmlns="http://www.w3.org/2000/svg" viewBox="0 0 24 24"><defs><style>.cls-1{fill:#777;}</style></defs><title>stepper</title><path class="cls-1" d="M22.36,20.23a1.63,1.63,0,0,0-1.55,1.14H19.28a4.59,4.59,0,0,0,2.28-2.86,4.13,4.13,0,0,0-1.87-4.78c-1.63-1-5.78-.43-8.38,1.06A4.66,4.66,0,0,0,8.72,18L7.25,4.95,8.64,6.34a.5.5,0,0,0,.71-.71L4.54.83a.5.5,0,0,0-.71.71L6.12,3.81l1.57,14L3.6,3a.5.5,0,0,0-.17-.25L.82.6a.5.5,0,0,0-.63.78l2.49,2,4.43,16a.5.5,0,0,0,.48.37H7.7l.21,0,.09.77a1.64,1.64,0,1,0,.63,1.85H20.81a1.63,1.63,0,1,0,1.55-2.14ZM7.07,22.51a.64.64,0,1,1,.64-.64A.64.64,0,0,1,7.07,22.51Zm2-1.14L8.9,19.66a3,3,0,0,0,.62,1,3.37,3.37,0,0,0,1,.71Zm3.8-.54A3.54,3.54,0,0,1,10.26,20a2,2,0,0,1-.43-.68l8-1.88v.94a.5.5,0,0,0,1,0V16.79a.5.5,0,0,0-.19-.39.48.48,0,0,0-.42-.09l-1,.24c-.27-.59-.82-1.42-1.53-1.26l-3.76.9c-.28.06-.65.3-.83,1.09A3.47,3.47,0,0,0,11,18l-1.28.3a3.75,3.75,0,0,1,2.1-2.64,12,12,0,0,1,5.5-1.42,4,4,0,0,1,1.88.35,3.13,3.13,0,0,1,1.41,3.65,3.37,3.37,0,0,1-3.21,2.58ZM12,17.77a2.17,2.17,0,0,1,.12-.6l3.69-.88a1.72,1.72,0,0,1,.38.5Zm10.37,4.74a.64.64,0,1,1,.64-.64A.64.64,0,0,1,22.36,22.51Z"/></svg>