<svg id="Layer_1" data-name="Layer 1" xmlns="http://www.w3.org/2000/svg" viewBox="0 0 24 24"><defs><style>.cls-1{fill:#777;}</style></defs><title>stereo-system</title><path class="cls-1" d="M12,5.12a4.25,4.25,0,1,0,4.25,4.25A4.26,4.26,0,0,0,12,5.12Zm0,7.51a3.25,3.25,0,1,1,3.25-3.25A3.26,3.26,0,0,1,12,12.63ZM10.74,8.12a1.78,1.78,0,1,0,2.51,0A1.82,1.82,0,0,0,10.74,8.12Zm1.81,1.81a.8.8,0,0,1-1.1,0,.78.78,0,1,1,1.1,0ZM3.6,15.57a1.19,1.19,0,1,0-1.19-1.19A1.19,1.19,0,0,0,3.6,15.57Zm0-1.38a.19.19,0,0,1,.19.19c0,.21-.38.21-.38,0A.19.19,0,0,1,3.6,14.19Zm0,1.74a1.78,1.78,0,1,0,1.78,1.78A1.78,1.78,0,0,0,3.6,15.93Zm0,2.56a.78.78,0,1,1,.78-.78A.78.78,0,0,1,3.6,18.49Zm18-7.06H19.23a2.41,2.41,0,0,0-1.44.48V5.09a2.44,2.44,0,0,0-2.44-2.44H8.64A2.44,2.44,0,0,0,6.21,5.09v6.82a2.41,2.41,0,0,0-1.44-.48H2.44A2.44,2.44,0,0,0,0,13.87v4.56a2.43,2.43,0,0,0,1.63,2.29v.13a.5.5,0,0,0,.5.5h1a.5.5,0,0,0,.5-.49h.14a.5.5,0,0,0,.5.49h1a.5.5,0,0,0,.5-.5v-.17a2.44,2.44,0,0,0,1-.79,2.42,2.42,0,0,0,1.75,1h0a.5.5,0,0,0,.5.5h1a.5.5,0,0,0,.5-.49h3.29a.5.5,0,0,0,.5.49h1a.5.5,0,0,0,.5-.5v0a2.42,2.42,0,0,0,1.63-.94,2.44,2.44,0,0,0,1.07.81v.15a.5.5,0,0,0,.5.5h1a.5.5,0,0,0,.5-.49h.41a.5.5,0,0,0,.5.49h1a.5.5,0,0,0,.5-.5v-.28A2.43,2.43,0,0,0,24,18.43V13.87A2.44,2.44,0,0,0,21.56,11.43Zm-15.36,7a1.44,1.44,0,0,1-1.44,1.44H2.44A1.44,1.44,0,0,1,1,18.43V13.87a1.44,1.44,0,0,1,1.44-1.44H4.77a1.44,1.44,0,0,1,1.44,1.44Zm10.59,0a1.44,1.44,0,0,1-1.44,1.44H8.64a1.44,1.44,0,0,1-1.44-1.44V5.09A1.44,1.44,0,0,1,8.64,3.65h6.71a1.44,1.44,0,0,1,1.44,1.44Zm6.21,0a1.44,1.44,0,0,1-1.44,1.44H19.23a1.44,1.44,0,0,1-1.44-1.44V13.87a1.44,1.44,0,0,1,1.44-1.44h2.33A1.44,1.44,0,0,1,23,13.87Zm-2.6-2.85a1.19,1.19,0,1,0-1.19-1.19A1.19,1.19,0,0,0,20.4,15.57Zm0-1.38a.19.19,0,0,1,.19.19c0,.21-.38.21-.38,0A.19.19,0,0,1,20.4,14.19Zm0,1.74a1.78,1.78,0,1,0,1.78,1.78A1.78,1.78,0,0,0,20.4,15.93Zm0,2.56a.78.78,0,1,1,.78-.78A.78.78,0,0,1,20.4,18.49Z"/></svg>