<svg id="Layer_1" data-name="Layer 1" xmlns="http://www.w3.org/2000/svg" viewBox="0 0 24 24"><defs><style>.cls-1{fill:#777;}</style></defs><title>stool</title><path class="cls-1" d="M21.51,5.05h-19l-.06-.43a5.22,5.22,0,0,1-.05-.74,4.72,4.72,0,0,1,.79-2.68A2.61,2.61,0,0,1,5.27,0H18.73c1.6,0,2.9,1.74,2.9,3.89a5.22,5.22,0,0,1-.05.74Zm-18.13-1H20.62q0-.08,0-.17c0-1.56-.87-2.89-1.9-2.89H5.27A1.64,1.64,0,0,0,4,1.79a3.71,3.71,0,0,0-.61,2.1Q3.38,4,3.38,4.05Z"/><rect class="cls-1" x="5.06" y="8.29" width="13.99" height="1"/><path class="cls-1" d="M12,24h0a1.32,1.32,0,0,1-1.33-1.32V4.05h2.67V22.68A1.32,1.32,0,0,1,12,24ZM11.67,5.05V22.68A.33.33,0,0,0,12,23h0a.33.33,0,0,0,.33-.32V5.05Z"/><path class="cls-1" d="M4.52,24H4.36a1.44,1.44,0,0,1-1.17-1.61L4.9,4.05H7.56L5.84,22.69a1.5,1.5,0,0,1-.54,1A1.26,1.26,0,0,1,4.52,24ZM5.81,5.05,4.19,22.48a.45.45,0,0,0,.3.52.26.26,0,0,0,.19-.06.49.49,0,0,0,.17-.34L6.46,5.05Z"/><path class="cls-1" d="M19.48,24a1.26,1.26,0,0,1-.78-.28,1.5,1.5,0,0,1-.54-1L16.48,4.45l.07-.13c.14-.27.15-.26,2.12-.26h.46l1.69,18.33A1.44,1.44,0,0,1,19.64,24ZM17.54,5.05,19.15,22.6a.49.49,0,0,0,.17.34.24.24,0,0,0,.19.06.45.45,0,0,0,.3-.52L18.21,5.05Z"/></svg>