<svg id="Layer_1" data-name="Layer 1" xmlns="http://www.w3.org/2000/svg" viewBox="0 0 24 24"><defs><style>.cls-1{fill:#777;}</style></defs><title>Arstraight-benchtboard 3</title><path class="cls-1" d="M21.57,15.22a.5.5,0,0,1-.5-.5v-2.9a.5.5,0,0,1,1,0v2.9A.5.5,0,0,1,21.57,15.22Z"/><path class="cls-1" d="M2.43,15.22a.5.5,0,0,1-.5-.5v-2.9a.5.5,0,0,1,1,0v2.9A.5.5,0,0,1,2.43,15.22Z"/><path class="cls-1" d="M19.21,13.77a.5.5,0,0,1-.5-.5V11.91a.5.5,0,0,1,1,0v1.35A.5.5,0,0,1,19.21,13.77Z"/><path class="cls-1" d="M4.79,13.77a.5.5,0,0,1-.5-.5V11.91a.5.5,0,1,1,1,0v1.35A.5.5,0,0,1,4.79,13.77Z"/><path class="cls-1" d="M22.86,12.32H1.14A1.14,1.14,0,0,1,0,11.18V9.92A1.14,1.14,0,0,1,1.14,8.78H22.86A1.14,1.14,0,0,1,24,9.92v1.26A1.14,1.14,0,0,1,22.86,12.32ZM1.14,9.78A.14.14,0,0,0,1,9.92v1.26a.14.14,0,0,0,.14.14H22.86a.14.14,0,0,0,.14-.14V9.92a.14.14,0,0,0-.14-.14Z"/></svg>