<svg id="Layer_1" data-name="Layer 1" xmlns="http://www.w3.org/2000/svg" viewBox="0 0 24 24"><defs><style>.cls-1{fill:#777;}</style></defs><title>stroller-buggy</title><path class="cls-1" d="M16.28,20.34l-2.07-.92.27-.12a.5.5,0,0,0-.41-.91l-1.1.49-1.1-.49a.5.5,0,0,0-.41.91l.27.12-2.08.93-.19,0A1.71,1.71,0,1,0,11.17,22a1.7,1.7,0,0,0-.4-1.09L13,20l2,.87a1.71,1.71,0,1,0,1.35-.49ZM9.46,22.75a.71.71,0,1,1,.71-.71A.71.71,0,0,1,9.46,22.75Zm6.68,0a.71.71,0,1,1,.71-.71A.71.71,0,0,1,16.14,22.75ZM23.87,8.89C23.69,4.46,19.73.26,15.69.25h0a.49.49,0,0,0-.42.24l0,.07a.52.52,0,0,0,0,.08.48.48,0,0,0,0,.12h0V9a.5.5,0,0,0,.5.5h7.25a5.69,5.69,0,0,1,.06.76v.27a5.88,5.88,0,0,1-5.87,5.87H10a5.88,5.88,0,0,1-5.87-5.87v-.27a5.69,5.69,0,0,1,.05-.76H13a.5.5,0,0,0,0-1H3.73l-.11,0-.09,0L2.71,6a.5.5,0,0,0-.48-.35H.5a.5.5,0,0,0,0,1H1.87l1.27,4A6.88,6.88,0,0,0,10,17.35h7.11A6.88,6.88,0,0,0,24,10.48v-.27A6.42,6.42,0,0,0,23.87,8.89ZM16.19,7V1.29a6.31,6.31,0,0,1,2.77,1Zm3.58-4.09a9.12,9.12,0,0,1,1.64,1.81l-4.78,3.5ZM18,8.45l3.88-2.85a8,8,0,0,1,.9,2.84Z"/></svg>