<svg id="Layer_1" data-name="Layer 1" xmlns="http://www.w3.org/2000/svg" viewBox="0 0 24 24"><defs><style>.cls-1{fill:#777;}</style></defs><title>suitcase</title><path class="cls-1" d="M18.67,6.81a2.44,2.44,0,0,0-2.44-2.44h-2v-3A1.38,1.38,0,0,0,12.88,0H11.13A1.39,1.39,0,0,0,9.75,1.38v3h-2A2.44,2.44,0,0,0,5.33,6.81V19.72a2.42,2.42,0,0,0,.87,1.85,1.39,1.39,0,1,0,2.22.58h7.49a1.37,1.37,0,0,0-.08.45A1.39,1.39,0,1,0,18,21.45a2.43,2.43,0,0,0,.71-1.72ZM16.43,5.39A1.43,1.43,0,0,1,17.66,6.7H16.43Zm-5.68-4A.39.39,0,0,1,11.13,1h1.75a.38.38,0,0,1,.37.38v3H10.75ZM7.5,5.4V6.7H6.34A1.43,1.43,0,0,1,7.5,5.4ZM7.12,23a.39.39,0,1,1,.39-.39A.39.39,0,0,1,7.12,23Zm.66-1.84h0a1.44,1.44,0,0,1-1.42-1.29H7.78ZM17.22,23a.39.39,0,1,1,.39-.39A.39.39,0,0,1,17.22,23Zm-.79-1.86V19.84h1.24A1.43,1.43,0,0,1,16.43,21.14Zm1.25-2.31H15.93a.5.5,0,0,0-.5.5v1.82H8.78V19.38a.5.5,0,0,0-.5-.5h-2V7.7H8a.5.5,0,0,0,.5-.5V5.37h6.92V7.2a.5.5,0,0,0,.5.5h1.75ZM7.67,8.32a.5.5,0,0,0-.5.5v8.9a.5.5,0,0,0,1,0V8.82A.5.5,0,0,0,7.67,8.32Zm2.12,0a.5.5,0,0,0-.5.5v8.9a.5.5,0,0,0,1,0V8.82A.5.5,0,0,0,9.79,8.32Zm4.42,0a.5.5,0,0,0-.5.5v8.9a.5.5,0,0,0,1,0V8.82A.5.5,0,0,0,14.21,8.32Zm1.62,9.4a.5.5,0,0,0,1,0V8.82a.5.5,0,0,0-1,0Z"/></svg>