<svg id="Layer_1" data-name="Layer 1" xmlns="http://www.w3.org/2000/svg" viewBox="0 0 24 24"><defs><style>.cls-1{fill:#777;}</style></defs><title>surfboard</title><path class="cls-1" d="M16.49,9.16q0-.73-.09-1.38a17.31,17.31,0,0,0-.53-3,10.91,10.91,0,0,0-.77-2A6.82,6.82,0,0,0,13.71.89a3.67,3.67,0,0,0-1.61-1,.52.52,0,0,0-.21,0c-.13,0-3.1.71-4.09,6.3A22.35,22.35,0,0,0,7.5,9.65c0,.19,0,.39,0,.59,0,.74,0,1.43,0,2.09,0,1.14.1,2.23.2,3.22,0,.46.09.9.15,1.31A22.24,22.24,0,0,0,8.8,21.1c.15.43.29.8.44,1.14a17.16,17.16,0,0,0,.8,1.58.5.5,0,0,0,.44.26l.13,0a3.93,3.93,0,0,0,1.38-.7,3.93,3.93,0,0,0,1.38.7.61.61,0,0,0,.62-.32,17.87,17.87,0,0,0,2.23-7.68q.09-.79.15-1.69c.09-1.26.13-2.65.13-4.13C16.51,9.87,16.5,9.51,16.49,9.16ZM15.38,14.3q-.06.88-.14,1.65a17.42,17.42,0,0,1-1.95,7c-.37-.15-.75-.38-.81-.58a.52.52,0,0,0-1,0c-.06.19-.42.42-.81.58-.17-.32-.36-.69-.56-1.13s-.27-.66-.41-1.06a21.2,21.2,0,0,1-.89-4c-.05-.4-.1-.83-.14-1.28-.09-1-.16-2-.19-3.16,0-.65,0-1.33,0-2.06,0-.19,0-.38,0-.57A21.35,21.35,0,0,1,8.8,6.4C9.55,2.12,11.53,1.12,12,.94a3.19,3.19,0,0,1,1,.67,5.82,5.82,0,0,1,1.18,1.62,10,10,0,0,1,.7,1.85,16.29,16.29,0,0,1,.49,2.79c0,.42.07.86.09,1.32s0,.68,0,1C15.51,11.7,15.46,13.07,15.38,14.3Zm-.86-9.15a9.29,9.29,0,0,0-.65-1.72A5.28,5.28,0,0,0,12.79,2a3.29,3.29,0,0,0-.53-.41.5.5,0,0,0-.53,0,3.53,3.53,0,0,0-.63.51A7.92,7.92,0,0,0,9.2,6.39a20.11,20.11,0,0,0-.28,3.1V10c0,.68,0,1.34,0,2,0,1.56.16,3,.32,4.22a20.29,20.29,0,0,0,.86,3.88c.11.33.23.64.37.94l.46-.2-.44.23a.5.5,0,0,0,.46.31H13a.5.5,0,0,0,.46-.3,19.09,19.09,0,0,0,1.33-5.61c.05-.5.1-1,.14-1.57.08-1.18.12-2.48.12-3.88,0-.33,0-.67,0-1A17.15,17.15,0,0,0,14.52,5.15ZM14,13.83c0,.53-.08,1-.13,1.53a18.86,18.86,0,0,1-1.13,5H11.3c-.08-.2-.16-.41-.25-.66a19.13,19.13,0,0,1-.79-3.63c-.16-1.21-.27-2.6-.31-4.12,0-.62,0-1.27,0-1.94V9.51a19.11,19.11,0,0,1,.27-2.94,7,7,0,0,1,1.63-3.8L12,2.59l.11.1A4.36,4.36,0,0,1,13,3.89a8.38,8.38,0,0,1,.58,1.53,16.14,16.14,0,0,1,.51,3.65c0,.31,0,.63,0,1C14.08,11.4,14,12.68,14,13.83Z"/></svg>