<svg id="Layer_1" data-name="Layer 1" xmlns="http://www.w3.org/2000/svg" viewBox="0 0 24 24"><defs><style>.cls-1{fill:#777;}</style></defs><title>table-lamp</title><path class="cls-1" d="M22.81,7.95,20.35.35A.5.5,0,0,0,19.87,0H4.13a.5.5,0,0,0-.48.35L1.19,7.95a.5.5,0,0,0,.48.65H10.5c-1.05.91-2.39,2.4-2.39,4.14V23.5a.5.5,0,0,0,.5.5h6.78a.5.5,0,0,0,.5-.5V12.74c0-1.74-1.34-3.23-2.39-4.14h8.83a.5.5,0,0,0,.48-.65Zm-7.92,4.79V23H9.11V12.74c0-1.85,2.13-3.51,2.89-4C12.76,9.23,14.89,10.89,14.89,12.74ZM2.35,7.6,4.49,1h15l2.14,6.6Z"/></svg>