<svg id="Layer_1" data-name="Layer 1" xmlns="http://www.w3.org/2000/svg" viewBox="0 0 24 24"><defs><style>.cls-1{fill:#787878;}</style></defs><title>tires</title><path class="cls-1" d="M12,0A12,12,0,1,0,24,12,12,12,0,0,0,12,0Zm0,23A11,11,0,1,1,23,12,11,11,0,0,1,12,23ZM12,3a9,9,0,1,0,9,9A9,9,0,0,0,12,3Zm0,17a8,8,0,1,1,8-8A8,8,0,0,1,12,20ZM12,9.7A2.3,2.3,0,1,0,14.3,12,2.3,2.3,0,0,0,12,9.7Zm0,3.6A1.3,1.3,0,1,1,13.3,12,1.3,1.3,0,0,1,12,13.3ZM10.8,8.62a1.31,1.31,0,0,0,2.41,0l1-2.24A1.31,1.31,0,0,0,13,4.54H11a1.31,1.31,0,0,0-1.2,1.84Zm0-2.94A.31.31,0,0,1,11,5.54h2a.31.31,0,0,1,.29.44l-1,2.24a.31.31,0,0,1-.58,0L10.73,6A.31.31,0,0,1,10.75,5.68Zm2.45,9.69a1.31,1.31,0,0,0-2.41,0l-1,2.25A1.31,1.31,0,0,0,11,19.46h2a1.31,1.31,0,0,0,1.2-1.84Zm0,2.94a.31.31,0,0,1-.26.14H11a.32.32,0,0,1-.29-.44l1-2.25a.31.31,0,0,1,.58,0l1,2.25A.31.31,0,0,1,13.25,18.31ZM17.94,13l-2.43-.31a1.31,1.31,0,0,0-1.24,2.07l1.42,2a1.31,1.31,0,0,0,1.07.55h.05a1.31,1.31,0,0,0,1.08-.64l1-1.69a1.31,1.31,0,0,0-1-2ZM18,14.47h0l-1,1.69a.31.31,0,0,1-.26.15.3.3,0,0,1-.27-.13l-1.42-2a.32.32,0,0,1,.25-.5h0l2.43.31a.31.31,0,0,1,.23.47ZM6.06,11l2.43.31h.17A1.32,1.32,0,0,0,9.72,9.23l-1.42-2a1.28,1.28,0,0,0-1.12-.55,1.31,1.31,0,0,0-1.08.64L5.09,9a1.31,1.31,0,0,0,1,2ZM6,9.53,7,7.84a.31.31,0,0,1,.26-.15h0a.31.31,0,0,1,.26.13l1.42,2a.3.3,0,0,1,0,.34.31.31,0,0,1-.31.15L6.18,10A.31.31,0,0,1,6,9.53ZM9.77,13.3a1.31,1.31,0,0,0-1.29-.64L6,12.94a1.32,1.32,0,0,0-1,2l1,1.7a1.31,1.31,0,0,0,1.07.65h.07a1.31,1.31,0,0,0,1.06-.54l1.44-2A1.3,1.3,0,0,0,9.77,13.3Zm-.88.85-1.44,2a.32.32,0,0,1-.27.13.31.31,0,0,1-.26-.16l-1-1.7a.31.31,0,0,1,.24-.47l2.43-.28a.31.31,0,0,1,.31.15A.31.31,0,0,1,8.89,14.15Zm5.35-3.45a1.3,1.3,0,0,0,1.13.65h.16L18,11.05a1.32,1.32,0,0,0,1-2l-1-1.7a1.31,1.31,0,0,0-1.07-.65,1.25,1.25,0,0,0-1.13.54l-1.44,2A1.3,1.3,0,0,0,14.23,10.69Zm.88-.85,1.44-2a.31.31,0,0,1,.25-.13h0a.31.31,0,0,1,.26.16l1,1.7a.31.31,0,0,1,0,.3.31.31,0,0,1-.24.17l-2.43.28a.29.29,0,0,1-.31-.15A.3.3,0,0,1,15.11,9.85Z"/></svg>