<svg id="Layer_1" data-name="Layer 1" xmlns="http://www.w3.org/2000/svg" viewBox="0 0 24 24"><defs><style>.cls-1{fill:#777;}</style></defs><title>treadmill</title><path class="cls-1" d="M12.06,4.07a2.08,2.08,0,1,0-1.22-1A2.08,2.08,0,0,0,12.06,4.07Zm-.41-2.31a1.08,1.08,0,0,1,1-.76,1.08,1.08,0,1,1-.32,2.11,1.08,1.08,0,0,1-.71-1.35ZM8,11.79a.52.52,0,0,0,.08.11l2.62,2.66a.34.34,0,0,1,.1.22c.07,1.09.08,4.6.08,4.63a.5.5,0,0,0,.5.5h0a.5.5,0,0,0,.5-.5c0-.15,0-3.57-.08-4.69a1.33,1.33,0,0,0-.38-.86L8.9,11.25a1.07,1.07,0,0,1-.06-.78L9.91,7.06a1.22,1.22,0,0,1,1.38-.87c.93.21.9,1.17.85,1.58l-.41,3.37a.5.5,0,0,0,.49.56l3.28.05a.51.51,0,0,0,.51-.49.5.5,0,0,0-.49-.51l-2.72,0,.34-2.81A2.16,2.16,0,1,0,9,6.76L7.88,10.17A2.08,2.08,0,0,0,8,11.79Zm-5.8,3.05H6.12a.5.5,0,0,0,.39-.18L8,12.85a.5.5,0,1,0-.78-.63L5.88,13.84H2.25a.5.5,0,1,0,0,1ZM5.06,9.36a.49.49,0,0,0,.19,0,.5.5,0,0,0,.46-.31l1.4-3.4H8.4a.5.5,0,0,0,0-1H6.78A.5.5,0,0,0,6.32,5L4.79,8.71A.5.5,0,0,0,5.06,9.36ZM22.4,21H20.06L21.56,9.1l1.72-.82a.5.5,0,0,0-.43-.9L18.18,9.6a.5.5,0,1,0,.43.9l1.88-.89L19.05,21H1.6a1.5,1.5,0,0,0,0,3H22.4a1.5,1.5,0,0,0,0-3Zm0,2H1.6a.5.5,0,0,1,0-1H22.4a.5.5,0,0,1,0,1Z"/></svg>