<svg id="Layer_1" data-name="Layer 1" xmlns="http://www.w3.org/2000/svg" viewBox="0 0 24 24"><defs><style>.cls-1{fill:#777;}</style></defs><title>tricycle</title><path class="cls-1" d="M20.92,14.87l-.43,0-.28.05-.1,0-.33.11-.32.15a3.07,3.07,0,0,0-1.53,2.1l-.67-.13a9.13,9.13,0,0,0-1.65-5.58L17.1,7.86a3.67,3.67,0,0,0,2.26-1.2.81.81,0,0,0,.08-.86c-.21-.4-.72-.59-1.65-.62h-.06C12,5.68,11.94,6,11.87,6.42a.57.57,0,0,0,.37.62,15,15,0,0,0,3.8.77l-1.17,3c-.18-.19-.37-.37-.57-.54a13.07,13.07,0,0,0-8-2.59c.07-.29.14-.55.22-.76a21.9,21.9,0,0,0,.64-2.43c0-.16.06-.27.06-.28A.36.36,0,0,1,7.56,4h1a.5.5,0,0,0,0-1h-1a1.3,1.3,0,0,0-1.28.8s-.06.2-.11.46-.21,1-.37,1.54l-.27-2a.5.5,0,0,0-.36-.41L3.93,3a.5.5,0,0,0-.28,1l1,.27.54,4h0c-.23,1.1-.43,2.42-.6,3.68h0A4.82,4.82,0,0,0,4,12l-.12,0-.41.08-.14,0-.4.13-.1,0a4.8,4.8,0,0,0-.47.22,4.56,4.56,0,1,0,3.19-.43c.16-1.17.34-2.39.55-3.42,1.23,0,5.06.19,7.65,2.44A7.64,7.64,0,0,1,16.25,17L15.94,17s0-.06,0-.09a2.47,2.47,0,0,0-2.47-2.46l-.34,0-.31.06-.27.09-.26.12a2.46,2.46,0,1,0,3.4,3.22l2.2.42a3.06,3.06,0,1,0,3-3.49Zm-6.64-8.3c1-.14,2.31-.28,3.51-.38a3.33,3.33,0,0,1,.61.06,3,3,0,0,1-1.61.63S15.49,6.78,14.28,6.57ZM4.49,17h.07l.42,0a.65.65,0,0,1-.44.18.66.66,0,0,1-.66-.66.65.65,0,0,1,.2-.47l0,.42s0,0,0,0v0a862.9,862.9,0,0,0,0,.16l0,.09.05.07.08.06.07,0,.1,0Zm3.59-.5a3.54,3.54,0,1,1-5.24-3.1,3.66,3.66,0,0,1,.44-.2l.31-.1.11,0L4.11,13l.32,0c-.09.71-.16,1.36-.22,1.91a1.66,1.66,0,1,0,1.93,2l1.39-.07a.5.5,0,0,0,.47-.5v0a.49.49,0,0,0-.53-.47l-1.38.07A1.66,1.66,0,0,0,5.2,15c.06-.55.13-1.2.22-1.91A3.54,3.54,0,0,1,8.08,16.47Zm5.41,1.47a1.05,1.05,0,0,0,.72-.29l.45.09a1.46,1.46,0,1,1-1.89-2.14l.18-.08.17-.05.17,0h.18a1.46,1.46,0,0,1,1.45,1.36l-.42-.08a1,1,0,0,0-1-.87,1.06,1.06,0,1,0,0,2.12ZM20.93,20a2.07,2.07,0,0,1-1-3.89l.25-.12.24-.08.24,0,.26,0a2.07,2.07,0,0,1,0,4.14Zm0-3.31a1.23,1.23,0,1,0,1.23,1.23A1.24,1.24,0,0,0,20.94,16.71Zm-.24,1.23a.23.23,0,0,1,.47,0C21.17,18.2,20.7,18.2,20.7,17.94Z"/></svg>