<svg id="Layer_1" data-name="Layer 1" xmlns="http://www.w3.org/2000/svg" viewBox="0 0 24 24"><defs><style>.cls-1{fill:#777;}</style></defs><title>tumble-dryer</title><path class="cls-1" d="M11.61,4a1.2,1.2,0,1,0-1.2-1.2A1.2,1.2,0,0,0,11.61,4Zm0-1.4a.2.2,0,0,1,.2.2c0,.22-.4.22-.4,0A.2.2,0,0,1,11.61,2.61ZM12,21.68a7.32,7.32,0,0,0,7.2-6.23h0a7.1,7.1,0,0,0,.08-1.06,7.22,7.22,0,0,0-.08-1.06h0A7.28,7.28,0,1,0,12,21.68ZM12,8.11a6.32,6.32,0,0,1,6.21,5.38h0a6.25,6.25,0,0,1,.07.91,6.12,6.12,0,0,1-.07.91h0A6.28,6.28,0,1,1,12,8.11Zm2.88-4.8a.51.51,0,0,0,.5-.5.55.55,0,0,0-.15-.36.44.44,0,0,0-.16-.1.51.51,0,0,0-.55.1.54.54,0,0,0-.14.36.5.5,0,0,0,.14.35A.53.53,0,0,0,14.84,3.31Zm6.35-3.4H2.81a.5.5,0,0,0-.5.5V23.59a.5.5,0,0,0,.5.5H21.19a.5.5,0,0,0,.5-.5V.41A.5.5,0,0,0,21.19-.09Zm-.5,23.18H3.31V5.71H20.69Zm0-18.39H3.31V.91H20.69ZM7.9,15.8a2.94,2.94,0,0,0,.86,2.08.56.56,0,0,0,.8-.79,1.83,1.83,0,0,1,0-2.58,3,3,0,0,0,0-4.17.56.56,0,1,0-.8.8,1.82,1.82,0,0,1,0,2.58A2.94,2.94,0,0,0,7.9,15.8ZM11,13.72a3,3,0,0,0,0,4.17.56.56,0,1,0,.8-.79,1.83,1.83,0,0,1,0-2.58,3,3,0,0,0,0-4.17.56.56,0,0,0-.8.8A1.82,1.82,0,0,1,11,13.72Zm2.25,0a2.95,2.95,0,0,0,0,4.17.56.56,0,1,0,.79-.79,1.83,1.83,0,0,1,0-2.58,3,3,0,0,0,0-4.17.56.56,0,0,0-.79.8A1.83,1.83,0,0,1,13.26,13.72Z"/></svg>