<svg id="Layer_1" data-name="Layer 1" xmlns="http://www.w3.org/2000/svg" viewBox="0 0 24 24"><defs><style>.cls-1{fill:#777;}</style></defs><title>tv</title><path class="cls-1" d="M18.87,9.75a1.66,1.66,0,0,0,2.34,2.34,1.66,1.66,0,0,0-2.34-2.34Zm1.64,1.64a.66.66,0,1,1,0-.93A.66.66,0,0,1,20.5,11.39ZM15.24,8.92H3.8A1.8,1.8,0,0,0,2,10.72V20a1.87,1.87,0,0,0,1.8,1.89H15.24A1.85,1.85,0,0,0,17,20V10.72A1.76,1.76,0,0,0,15.24,8.92ZM16,20a.86.86,0,0,1-.76.89H3.8A.88.88,0,0,1,3,20V10.72a.8.8,0,0,1,.8-.8H15.24a.76.76,0,0,1,.76.8ZM21.7,6.92H12.9L16,3a1.46,1.46,0,0,0,.46.08,1.5,1.5,0,1,0-1.25-.69l-3.3,4.25L8.58,2.36a1.48,1.48,0,1,0-1.25.69A1.47,1.47,0,0,0,7.79,3l3.07,3.95H2.36A2.29,2.29,0,0,0,0,9.14V21.48a2.49,2.49,0,0,0,2.36,2.44H21.7A2.43,2.43,0,0,0,24,21.48V9.14A2.26,2.26,0,0,0,21.7,6.92ZM16.43,1.08a.49.49,0,1,1-.49.48A.49.49,0,0,1,16.43,1.08Zm-9.1,1a.49.49,0,1,1,.49-.49A.49.49,0,0,1,7.33,2.05ZM23,21.48a1.45,1.45,0,0,1-1.3,1.44H2.36A1.49,1.49,0,0,1,1,21.48V9.14A1.31,1.31,0,0,1,2.36,7.92H21.7A1.25,1.25,0,0,1,23,9.14Z"/></svg>