<svg id="Layer_1" data-name="Layer 1" xmlns="http://www.w3.org/2000/svg" viewBox="0 0 24 24"><defs><style>.cls-1{fill:#777;}</style></defs><title>upright-piano</title><path class="cls-1" d="M22.86,3.23H15.38V.78a.88.88,0,0,0-.87-.87h-5a.88.88,0,0,0-.87.87V3.24H1.14A1.13,1.13,0,0,0,0,4.36V22.74a1.13,1.13,0,0,0,1.13,1.13H2.67a.49.49,0,0,0,.28-.1.49.49,0,0,0,.43-.49v-1h7v1.13a.5.5,0,0,0,1,0V22.25h1.21v1.13a.5.5,0,0,0,1,0V22.25h7.14v1a.5.5,0,0,0,.5.5h0a.49.49,0,0,0,.26.08h1.35A1.13,1.13,0,0,0,24,22.74V4.36A1.13,1.13,0,0,0,22.86,3.23ZM9.63.91h4.75V7.66H9.63ZM1,10.41h.45v.85H1ZM2.38,22.87H1.14A.13.13,0,0,1,1,22.74V15.52H2.38Zm18.38-1.62H3.38V15.52H20.75ZM23,22.74a.13.13,0,0,1-.13.13H21.75V15.52H23Zm0-8.22H1V12.26H23ZM2.46,11.26v-.85H3.69v.85Zm2.23,0v-.85H5.92v.85Zm2.23,0v-.85H8.15v.85Zm2.23,0v-.85h1.23v.85Zm2.23,0v-.85h1.23v.85Zm2.23,0v-.85h1.23v.85Zm2.23,0v-.85h1.23v.85Zm2.23,0v-.85h1.23v.85Zm2.23,0v-.85h1.23v.85Zm2.68,0h-.45v-.85H23Zm0-1.85H1V4.36a.13.13,0,0,1,.13-.13H8.63V7.66H8a.5.5,0,0,0,0,1h8a.5.5,0,0,0,0-1h-.6V4.23h7.49a.13.13,0,0,1,.13.13ZM13.11,1.94H10.89a.5.5,0,0,0,0,1h2.21a.5.5,0,0,0,0-1Zm0,3.68H10.89a.5.5,0,0,0,0,1h2.21a.5.5,0,0,0,0-1Zm0-1.75H10.89a.5.5,0,0,0,0,1h2.21a.5.5,0,0,0,0-1Z"/></svg>