<svg id="Layer_1" data-name="Layer 1" xmlns="http://www.w3.org/2000/svg" viewBox="0 0 24 24"><defs><style>.cls-1{fill:#777;}</style></defs><title>vacuum-cleaner</title><path class="cls-1" d="M15.59,24H14.15a2.08,2.08,0,0,1-1.74-.93c-.83-1.26-3.14-5.85,2.16-12C15.89,9.48,17,8.89,18,9.24c1.38.5,2.08,2.93,2.14,7.43a.5.5,0,0,1-.49.51.49.49,0,0,1-.51-.49C19,11.13,18,10.3,17.63,10.19c-.5-.19-1.33.35-2.31,1.5-4.84,5.66-2.82,9.72-2.08,10.84a1.08,1.08,0,0,0,.91.48h1.45a.5.5,0,0,1,0,1Z"/><path class="cls-1" d="M19,23.93a3.1,3.1,0,0,1,0-6.21h0a3.1,3.1,0,0,1,0,6.21Zm0-5.21a2.1,2.1,0,0,0,0,4.21h0a2.1,2.1,0,0,0,0-4.21Zm0-.5h0Z"/><path class="cls-1" d="M3.38,24l-.14,0a.5.5,0,0,1-.34-.62l5-16.74,0-.09C8,6.44,12.11-1.12,19,.14c.79.14,1.86.43,2.12,1.24S20.58,3.16,19.77,4a9.31,9.31,0,0,0-.9,1,3.51,3.51,0,0,0-.73,2.44V7.7a.5.5,0,0,1-.5.49h0a.5.5,0,0,1-.49-.51V7.47a4.45,4.45,0,0,1,.9-3,10.05,10.05,0,0,1,1-1.16c.5-.52,1.25-1.31,1.14-1.62,0-.06-.17-.35-1.35-.57C12.91,0,9.16,6.37,8.83,7l-5,16.69A.5.5,0,0,1,3.38,24Z"/><path class="cls-1" d="M5.9,24H.22a.5.5,0,0,1,0-1H5.9a.5.5,0,1,1,0,1Z"/><path class="cls-1" d="M13.49,20a.5.5,0,0,1-.5-.5V18.46a.5.5,0,0,1,1,0v1.09A.5.5,0,0,1,13.49,20Z"/><path class="cls-1" d="M19,21.33a.49.49,0,0,1-.36-.15.62.62,0,0,1-.11-.16.57.57,0,0,1,0-.19.5.5,0,0,1,1,0,.57.57,0,0,1,0,.19.45.45,0,0,1-.11.16.43.43,0,0,1-.16.11A.45.45,0,0,1,19,21.33Z"/></svg>