<svg id="Layer_1" data-name="Layer 1" xmlns="http://www.w3.org/2000/svg" viewBox="0 0 24 24"><defs><style>.cls-1{fill:#777;}</style></defs><title>wall-unit-modern</title><path class="cls-1" d="M.46,4.72H10.72a.5.5,0,0,0,.5-.5V.59a.5.5,0,0,0-.5-.5H.46a.5.5,0,0,0-.5.5V4.22A.5.5,0,0,0,.46,4.72ZM1,1.09h9.27V3.72H1Zm-.5,8.6H8.92a.5.5,0,0,0,.5-.5v-3a.5.5,0,0,0-.5-.5H.46a.5.5,0,0,0-.5.5v3A.5.5,0,0,0,.46,9.68Zm4.73-3H8.42v2H5.19ZM1,6.69H4.19v2H1Zm10.81,6.7a.5.5,0,0,0-.71,0L9,15.42a.5.5,0,1,0,.71.71l2.06-2A.5.5,0,0,0,11.77,13.38ZM9.24,14.77,10,14a.5.5,0,1,0-.71-.71l-.79.79a.5.5,0,1,0,.71.71ZM23.46.09H15.53a.5.5,0,0,0-.5.5v8.6a.5.5,0,0,0,.5.5h7.93a.5.5,0,0,0,.5-.5V.59A.5.5,0,0,0,23.46.09ZM23,8.68H16V1.09H23Zm.5,11H13.32v-.84h3.07a1,1,0,0,0,1-1l0-5.18a1,1,0,0,0-1-1l-9,0h0a1,1,0,0,0-1,1l0,5.18a1,1,0,0,0,1,1h3.09v.85H.46a.5.5,0,0,0-.5.5v3.19a.5.5,0,0,0,.5.5h23a.5.5,0,0,0,.5-.5V20.19A.5.5,0,0,0,23.46,19.69ZM7.39,17.83l0-5.18,9,0,0,5.18h-9Zm4.93,1v.84h-.84v-.84Zm10.64,4H1V20.69H23Z"/></svg>