<svg id="Layer_1" data-name="Layer 1" xmlns="http://www.w3.org/2000/svg" viewBox="0 0 24 24"><defs><style>.cls-1{fill:#777;}</style></defs><title>wall-clock3</title><path class="cls-1" d="M12,0A12,12,0,1,0,24,12,12,12,0,0,0,12,0Zm0,23A11,11,0,1,1,23,12,11,11,0,0,1,12,23ZM17.51,5.46,11.94,11,8,8.56a.5.5,0,0,0-.53.85l4.22,2.65a.5.5,0,0,0,.62-.07l5.85-5.81a.5.5,0,0,0-.71-.71Zm2.89,5.05a1.33,1.33,0,1,0,1.33,1.33A1.33,1.33,0,0,0,20.39,10.51Zm0,1.66a.33.33,0,1,1,.33-.33A.33.33,0,0,1,20.39,12.17ZM4.94,11.84a1.33,1.33,0,1,0-1.33,1.33A1.33,1.33,0,0,0,4.94,11.84Zm-1.33.33a.33.33,0,1,1,.33-.33A.33.33,0,0,1,3.61,12.17ZM12,4.82a1.33,1.33,0,1,0-1.33-1.33A1.33,1.33,0,0,0,12,4.82Zm0-1.66a.33.33,0,1,1-.33.33A.33.33,0,0,1,12,3.16Zm0,15.77a1.33,1.33,0,1,0,1.33,1.33A1.33,1.33,0,0,0,12,18.93Zm0,1.66a.33.33,0,1,1,.33-.33A.33.33,0,0,1,12,20.59ZM7.55,5.09a.44.44,0,0,0,.19,0A.51.51,0,0,0,8.1,5a.51.51,0,0,0,0-.7.51.51,0,0,0-.55-.11.42.42,0,0,0-.16.11.48.48,0,0,0,0,.7A.42.42,0,0,0,7.55,5.09ZM8.1,18.77a.51.51,0,0,0-.55-.11.58.58,0,0,0-.16.11.46.46,0,0,0-.11.16.65.65,0,0,0,0,.19.59.59,0,0,0,0,.19.51.51,0,0,0,.11.17.53.53,0,0,0,.16.1.43.43,0,0,0,.19,0,.54.54,0,0,0,.36-.14.48.48,0,0,0,.1-.17.4.4,0,0,0,0-.19.55.55,0,0,0-.14-.35ZM16.16,5.08a.5.5,0,0,0,.35-.14.56.56,0,0,0,.15-.36.44.44,0,0,0,0-.19.58.58,0,0,0-.11-.16.5.5,0,0,0-.7,0,.41.41,0,0,0-.11.16.43.43,0,0,0,0,.19.51.51,0,0,0,.15.36A.5.5,0,0,0,16.16,5.08Zm.35,13.73a.51.51,0,0,0-.54-.1.44.44,0,0,0-.16.1.44.44,0,0,0-.11.17.4.4,0,0,0,0,.19.49.49,0,0,0,.85.35.51.51,0,0,0,.15-.35.41.41,0,0,0,0-.19A.63.63,0,0,0,16.51,18.81Zm2.56-10.7a.41.41,0,0,0,.19,0A.47.47,0,0,0,19.61,8a.51.51,0,0,0,.15-.35.4.4,0,0,0,0-.19.6.6,0,0,0-.11-.17.51.51,0,0,0-.54-.1.6.6,0,0,0-.17.1.57.57,0,0,0-.1.17.4.4,0,0,0,0,.19A.5.5,0,0,0,18.9,8,.65.65,0,0,0,19.07,8.11Zm0,7.55a.46.46,0,0,0-.17.11.51.51,0,0,0,0,.7.45.45,0,0,0,.17.11.4.4,0,0,0,.19,0,.47.47,0,0,0,.35-.15.48.48,0,0,0,0-.7A.49.49,0,0,0,19.07,15.66ZM4.49,7.27a.48.48,0,0,0-.17.1.53.53,0,0,0-.14.36.63.63,0,0,0,0,.19.88.88,0,0,0,.11.16.5.5,0,0,0,.17.11.59.59,0,0,0,.19,0A.51.51,0,0,0,5,8.08a.57.57,0,0,0,.11-.16.64.64,0,0,0,0-.19A.52.52,0,0,0,5,7.37.49.49,0,0,0,4.49,7.27Zm0,8.31a.48.48,0,0,0-.31.46.58.58,0,0,0,0,.19,1,1,0,0,0,.11.17.48.48,0,0,0,.17.1.41.41,0,0,0,.19,0A.5.5,0,0,0,5,16.4.53.53,0,0,0,5.18,16a.5.5,0,0,0-.69-.46Z"/></svg>