<svg id="Layer_1" data-name="Layer 1" xmlns="http://www.w3.org/2000/svg" viewBox="0 0 24 24"><defs><style>.cls-1{fill:#777;}</style></defs><title>wall-unit-classic</title><path class="cls-1" d="M23.85.15A.5.5,0,0,0,23.5,0H.51a.5.5,0,0,0-.5.5v23a.5.5,0,0,0,.5.5h23a.5.5,0,0,0,.5-.5V.5A.5.5,0,0,0,23.85.15ZM4.57,23H1V7H4.58Zm0-17H1V1H4.58ZM18.42,23H5.57v-2.5l12.85,0Zm0-3.45-12.85,0V17l6.74,0h.55l5.56,0Zm-6.8-4.72h.74V16h-.74Zm-3-1V10l6.66,0v3.78Zm9.77,2.25-5.06,0V14.82h1.95a1,1,0,0,0,1-1V10a1,1,0,0,0-1-1L8.67,9a1,1,0,0,0-1,1V13.8a1,1,0,0,0,1,1h2V16l-5,0V7H18.43ZM18.43,6H5.58V1H18.43ZM23,23H19.42V7H23ZM23,6H19.43V1H23ZM9.08,17.71H7.84a.5.5,0,0,0,0,1H9.08a.5.5,0,0,0,0-1Zm5.74,1h1.25a.5.5,0,0,0,0-1H14.82a.5.5,0,0,0,0,1ZM7.76,22.28H9a.5.5,0,0,0,0-1H7.76a.5.5,0,0,0,0,1Zm7,0H16a.5.5,0,0,0,0-1H14.75a.5.5,0,0,0,0,1Zm-4.1-11.07a.5.5,0,1,0-.71-.71l-.61.61a.5.5,0,1,0,.71.71Zm.92-.32L10,12.5a.5.5,0,1,0,.71.71l1.58-1.58a.5.5,0,0,0-.71-.71Z"/></svg>