<svg id="Layer_1" data-name="Layer 1" xmlns="http://www.w3.org/2000/svg" viewBox="0 0 24 24"><defs><style>.cls-1{fill:#777;}</style></defs><title>washing-machine</title><path class="cls-1" d="M11.61,4a1.2,1.2,0,1,0-1.2-1.2A1.2,1.2,0,0,0,11.61,4Zm0-1.4a.2.2,0,0,1,.2.2c0,.22-.4.22-.4,0A.2.2,0,0,1,11.61,2.61ZM12,20A5.8,5.8,0,0,0,16.32,18a.5.5,0,0,0-.17-.79,19,19,0,0,1-2.65-1.6l-.71-.48c-1.49-1-3.53-1-6.07,0a.5.5,0,0,0-.29.6A5.82,5.82,0,0,0,12,20Zm.24-4,.71.48c.74.5,1.44,1,2.15,1.36a4.79,4.79,0,0,1-7.56-1.88C9,15.4,10.88,15.06,12.23,16ZM12,21.68a7.32,7.32,0,0,0,7.2-6.23,6.62,6.62,0,0,0,0-2.11h0A7.28,7.28,0,1,0,12,21.68Zm6.29-7.29c0,.15,0,.31,0,.48h-.64v-1h.64C18.24,14.08,18.25,14.24,18.25,14.39ZM12,8.11A6.3,6.3,0,0,1,18,12.91h-1a.5.5,0,0,0-.5.5v2a.5.5,0,0,0,.5.5h1A6.27,6.27,0,1,1,12,8.11Zm2.52-4.95a.49.49,0,0,0,.17.11.59.59,0,0,0,.19,0,.51.51,0,0,0,.35-.15A.57.57,0,0,0,15.3,3a.65.65,0,0,0,0-.19.55.55,0,0,0-.15-.36.53.53,0,0,0-.71,0,.52.52,0,0,0-.14.36.43.43,0,0,0,0,.19A.53.53,0,0,0,14.48,3.16ZM21.19-.09H2.81a.5.5,0,0,0-.5.5V23.59a.5.5,0,0,0,.5.5H21.19a.5.5,0,0,0,.5-.5V.41A.5.5,0,0,0,21.19-.09Zm-.5,23.18H3.31V5.71H20.69Zm0-18.39H3.31V.91H20.69Z"/></svg>