<svg id="Layer_1" data-name="Layer 1" xmlns="http://www.w3.org/2000/svg" viewBox="0 0 24 24"><defs><style>.cls-1{fill:#777;}</style></defs><title>water-bed</title><path class="cls-1" d="M24,17,20.83,7.8c0-.56,0-1.09.05-1.58C21,4.56,21,3.12,20,2.09S16.59.43,12,.43,5.08.91,4,2.09,3,4.56,3.12,6.22c0,.49,0,1,.05,1.58L0,17a.51.51,0,0,0,0,.16v3a.5.5,0,0,0,.5.5H1v2a.5.5,0,0,0,.5.5H22.53a.5.5,0,0,0,.5-.5v-2h.47a.5.5,0,0,0,.5-.5v-3A.51.51,0,0,0,24,17ZM4.68,2.78C5.57,1.84,7.83,1.43,12,1.43s6.43.42,7.32,1.35c.69.72.63,1.84.56,3.39,0,.38,0,.79,0,1.21H18.55v-2A1.52,1.52,0,0,0,18,4.17,1.26,1.26,0,0,0,16.83,4a4.29,4.29,0,0,1-2.47,0,1.21,1.21,0,0,0-1.08.19,1.52,1.52,0,0,0-.56,1.22v2H11.29v-2a1.51,1.51,0,0,0-.59-1.21A1.28,1.28,0,0,0,9.56,4,4.35,4.35,0,0,1,7.09,4,1.2,1.2,0,0,0,6,4.14a1.52,1.52,0,0,0-.57,1.23v2H4.16c0-.42,0-.83,0-1.21C4,4.62,4,3.5,4.68,2.78ZM17.55,5.39v2H13.71v-2a.53.53,0,0,1,.16-.42.21.21,0,0,1,.2,0,5.27,5.27,0,0,0,3,0,.26.26,0,0,1,.24,0A.52.52,0,0,1,17.55,5.39Zm-7.27,0v2H6.45v-2a.54.54,0,0,1,.16-.43.2.2,0,0,1,.2,0,5.36,5.36,0,0,0,3,0A.28.28,0,0,1,10.1,5,.52.52,0,0,1,10.29,5.42ZM22,22.07H2V20.62H22Zm1-2.45H1v-2.4L4,8.38H20l3,8.84ZM7.36,11.76a1.74,1.74,0,0,0,1.21-.48,1.75,1.75,0,0,0,2.41,0,1.75,1.75,0,0,0,2.41,0,1.74,1.74,0,0,0,1.21.48.5.5,0,0,0,0-1,.68.68,0,0,1-.71-.64.5.5,0,1,0-1,0,.71.71,0,0,1-1.41,0,.5.5,0,1,0-1,0,.71.71,0,0,1-1.41,0,.5.5,0,1,0-1,0,.68.68,0,0,1-.71.64.5.5,0,0,0,0,1Zm7.24,4.69a.68.68,0,0,1-.71-.64.5.5,0,0,0-1,0,.71.71,0,0,1-1.41,0,.5.5,0,0,0-1,0,.71.71,0,0,1-1.41,0,.5.5,0,1,0-1,0,.68.68,0,0,1-.71.64.5.5,0,1,0,0,1A1.74,1.74,0,0,0,8.57,17,1.75,1.75,0,0,0,11,17a1.75,1.75,0,0,0,2.41,0,1.74,1.74,0,0,0,1.21.48.5.5,0,0,0,0-1Zm2-2.85a.68.68,0,0,1-.71-.64.5.5,0,0,0-1,0,.71.71,0,0,1-1.41,0,.5.5,0,0,0-1,0,.71.71,0,0,1-1.41,0,.5.5,0,0,0-1,0,.68.68,0,0,1-.71.64.5.5,0,0,0,0,1,1.74,1.74,0,0,0,1.21-.48,1.75,1.75,0,0,0,2.41,0,1.75,1.75,0,0,0,2.41,0,1.74,1.74,0,0,0,1.21.48.5.5,0,0,0,0-1Z"/></svg>