<svg id="Layer_1" data-name="Layer 1" xmlns="http://www.w3.org/2000/svg" viewBox="0 0 24 24"><defs><style>.cls-1{fill:#777;}</style></defs><title>weight-bench-n-weights</title><path class="cls-1" d="M19.42,23H14s0,0,0,0V20.48H16.8a1.16,1.16,0,0,0,1-.67h.24a.5.5,0,0,0,0-1h-.24a1.16,1.16,0,0,0-1-.67h-1v-.51a1.42,1.42,0,0,0-1.3-1.52h-1V15.4h0a.5.5,0,0,0,0-1h0v-.83h0a.5.5,0,0,0,0-1h0V1h1.75c.89,0,1.68,1.4,1.68,3V6.25a1.4,1.4,0,0,0-.83,1.3v4.24a.5.5,0,0,0,.5.5h.33v.61a.5.5,0,0,0,1,0v-.61h.33a.5.5,0,0,0,.5-.5V7.54a1.4,1.4,0,0,0-.83-1.3V4c0-2.24-1.18-4-2.68-4H8.78C7.28,0,6.1,1.76,6.1,4V6.26a1.4,1.4,0,0,0-.83,1.3V11.8a.5.5,0,0,0,.5.5H6.1v.59a.5.5,0,0,0,1,0V12.3h.33a.5.5,0,0,0,.5-.5V7.56a1.4,1.4,0,0,0-.83-1.3V4c0-1.6.78-3,1.68-3h1.75V12.57h0a.5.5,0,0,0,0,1h0v.83h0a.5.5,0,0,0,0,1h0v.73h-1a1.42,1.42,0,0,0-1.31,1.52v.51H7.34a1.16,1.16,0,0,0-1,.67H6.06a.5.5,0,0,0,0,1h.24a1.16,1.16,0,0,0,1,.67H10V23s0,0,0,0H4.58a.5.5,0,0,0,0,1H19.42a.5.5,0,1,0,0-1ZM17.73,11.28h-.66V7.54a.33.33,0,1,1,.66,0Zm-10.79,0H6.27V7.56a.38.38,0,0,1,.33-.4.38.38,0,0,1,.33.4Zm9.6,8.18H14a.44.44,0,0,0,0-.34h2.57a.44.44,0,0,0,0,.34ZM11.53,1h.94V12.57h-.94Zm0,12.57h.94v.83h-.94Zm0,1.83h.94v.73h-.94Zm-2.3,2.24c0-.29.16-.52.31-.52h4.93c.12,0,.3.2.3.52v.51H13.66a1.16,1.16,0,0,0-1,.67H11.53a1.17,1.17,0,0,0-1-.67H9.23ZM7.62,19.14H10a.44.44,0,0,0,0,.34H7.62a.44.44,0,0,0,0-.34ZM11,20.35a1.17,1.17,0,0,0,.53-.53h1.08a1.15,1.15,0,0,0,.4.45.48.48,0,0,0,0,.11V23s0,0,0,0H11s0,0,0,0V20.35Z"/></svg>