<svg id="Layer_1" data-name="Layer 1" xmlns="http://www.w3.org/2000/svg" viewBox="0 0 24 24"><defs><style>.cls-1{fill:#777;}</style></defs><title>wine-cooler</title><path class="cls-1" d="M21.5,0H2.5A1.16,1.16,0,0,0,1.35,1.16V22a.5.5,0,0,0,.5.5h.71v1a.5.5,0,0,0,1,0v-1H20.65v1a.5.5,0,0,0,1,0v-1h.5a.5.5,0,0,0,.5-.5V1.16A1.16,1.16,0,0,0,21.5,0Zm.16,21.49H2.35v-.91a1.08,1.08,0,0,0,.16,0h19a1.08,1.08,0,0,0,.16,0Zm0-2a.16.16,0,0,1-.16.16H2.5a.16.16,0,0,1-.16-.16V11.12h19.3Zm0-9.33H2.35V3.41h19.3Zm0-7.71H2.35V1.16A.16.16,0,0,1,2.5,1h19a.16.16,0,0,1,.16.16ZM5.82,9.69A2.56,2.56,0,1,0,3.26,7.13,2.56,2.56,0,0,0,5.82,9.69Zm0-4.11A1.56,1.56,0,1,1,4.26,7.13,1.56,1.56,0,0,1,5.82,5.58ZM5.82,8a.87.87,0,1,0-.87-.87A.87.87,0,0,0,5.82,8Zm0-1a.13.13,0,0,1,.13.13c0,.14-.26.14-.26,0A.13.13,0,0,1,5.82,7ZM12,8a.87.87,0,1,0-.87-.87A.87.87,0,0,0,12,8Zm0-1a.13.13,0,0,1,.13.13c0,.14-.26.14-.26,0A.13.13,0,0,1,12,7Zm0,2.69A2.56,2.56,0,1,0,9.44,7.13,2.56,2.56,0,0,0,12,9.69Zm0-4.11a1.56,1.56,0,1,1-1.56,1.56A1.56,1.56,0,0,1,12,5.58ZM18.18,8a.87.87,0,1,0-.87-.87A.87.87,0,0,0,18.18,8Zm0-1a.13.13,0,0,1,.13.13c0,.14-.26.14-.26,0A.13.13,0,0,1,18.18,7Zm0,2.69a2.56,2.56,0,1,0-2.56-2.56A2.56,2.56,0,0,0,18.18,9.69Zm0-4.11a1.56,1.56,0,1,1-1.56,1.56A1.56,1.56,0,0,1,18.18,5.58Zm-14,11.48a24.53,24.53,0,0,1,4.16.45c.63.2,1.23.44,1.82.68a8.77,8.77,0,0,0,3,.84l5.35-.13a2.08,2.08,0,0,0,1.6-.51,2.55,2.55,0,0,0,.4-2c0-.23,0-.48,0-.74s0-.5,0-.74a2.71,2.71,0,0,0-.42-2.1,2.07,2.07,0,0,0-1.58-.52H13.19a8.77,8.77,0,0,0-3,.85c-.59.23-1.2.48-1.82.68a24.53,24.53,0,0,1-4.16.44.5.5,0,0,0-.48.5v1.78A.5.5,0,0,0,4.23,17.06ZM6.6,15.13a11.79,11.79,0,0,0,2.09-.34c.66-.21,1.29-.46,1.89-.7a8.43,8.43,0,0,1,2.61-.77h5.36a1.31,1.31,0,0,1,.85.21c.2.21.18.74.15,1.36,0,.25,0,.52,0,.79s0,.54,0,.79c0,.56.05,1.05-.12,1.24a1.32,1.32,0,0,1-.89.2L13.19,18a8.44,8.44,0,0,1-2.61-.77c-.6-.24-1.23-.49-1.89-.7a11.8,11.8,0,0,0-2.09-.34Zm-1.85.13.85-.05v.93l-.85-.05Z"/></svg>